<?xml version="1.0" encoding="utf-8"?>
<!-- Generator: Adobe Illustrator 23.0.3, SVG Export Plug-In . SVG Version: 6.00 Build 0)  -->
<svg version="1.1" xmlns="http://www.w3.org/2000/svg" xmlns:xlink="http://www.w3.org/1999/xlink" x="0px" y="0px"
	 viewBox="0 0 1936.3 483" style="enable-background:new 0 0 1936.3 483;" xml:space="preserve">
<style type="text/css">
	.st0{fill:url(#SVGID_1_);}
	.st1{fill:#2C3A64;}
	.st2{fill:#B84C42;}
	.st3{fill:#ED975D;}
	.st4{fill:#AA3E39;}
	.st5{fill:#D8716B;}
	.st6{fill:#415DA5;}
	.st7{fill:#FFB27D;}
	.st8{fill:#739CF3;}
	.st9{fill:#6488D3;}
	.st10{fill:#EE9849;}
	.st11{fill:#E58638;}
	.st12{fill:#BCBCBC;}
	.st13{fill:#BCBCBC;stroke:#BCBCBC;stroke-miterlimit:10;}
	.st14{fill:url(#SVGID_2_);}
	.st15{fill:url(#SVGID_3_);}
	.st16{opacity:0.5;}
	.st17{fill:#C45A50;}
	.st18{fill:#848484;}
	.st19{fill:url(#SVGID_4_);}
	.st20{fill:#E5A65C;}
	.st21{fill:#AA529C;}
</style>
<g id="_x3C_Layer_x3E_">
</g>
<g id="Layer_2">
	<linearGradient id="SVGID_1_" gradientUnits="userSpaceOnUse" x1="1203.043" y1="498.3282" x2="1161.0457" y2="260.1499">
		<stop  offset="0.264" style="stop-color:#C45A50"/>
		<stop  offset="0.2943" style="stop-color:#C36151"/>
		<stop  offset="0.3383" style="stop-color:#BF7453"/>
		<stop  offset="0.3906" style="stop-color:#B99456"/>
		<stop  offset="0.4488" style="stop-color:#B0BF5B"/>
		<stop  offset="0.4665" style="stop-color:#ADCE5D"/>
	</linearGradient>
	<path class="st0" d="M1265.4,372.4l35.6-71.5l-35.6-66.4h-213.7v158.4H1241c10.1,0,30.1,10.5,30.1,40.6h-10.7l25.9,34.7l24.6-34.7
		c0,0-5,0-9.5,0c0-35.6-13-61-43.7-61.1L1265.4,372.4z"/>
	<g>
		<g>
			<g>
				<path class="st1" d="M1306.9,234.5c-22.3,0-40.5-18.2-40.5-40.5s18.2-40.5,40.5-40.5s40.5,18.2,40.5,40.5
					c0,7.2-1.9,14.2-5.5,20.4c-3.5,6-8.5,11.1-14.5,14.6C1321.2,232.6,1314.1,234.5,1306.9,234.5z M1306.9,159.1
					c-19.2,0-34.9,15.7-34.9,34.9c0,19.2,15.7,34.9,34.9,34.9c6.2,0,12.3-1.7,17.6-4.8c5.2-3,9.5-7.4,12.5-12.6
					c3.1-5.3,4.7-11.4,4.7-17.5C1341.8,174.8,1326.1,159.1,1306.9,159.1z"/>
			</g>
			<g>
				<path class="st2" d="M1307.2,229.9c-19.7,0-35.7-16-35.7-35.7c0-19.7,16-35.7,35.7-35.7c19.7,0,35.7,16,35.7,35.7
					C1342.9,213.9,1326.9,229.9,1307.2,229.9z M1307.2,160c-18.9,0-34.2,15.4-34.2,34.2s15.4,34.2,34.2,34.2
					c18.9,0,34.2-15.4,34.2-34.2S1326.1,160,1307.2,160z"/>
			</g>
		</g>
		<path class="st2" d="M1288.8,141.5c-0.6-1.5-2-2.5-3.5-2.6c-17.5-40.2-17.7-40.5-17.9-40.9l-2.5,5c-0.1-0.2,9.5,21.3,16.5,37.1
			l-1,0.4l24.1,51.5l3.9-1.6L1288.8,141.5z"/>
		<path class="st1" d="M1232.5,12c0-0.5-0.6-5.8-8.7-5.7c0,0,4,0.3,4.7,2c0,0-2.8-2.1-4.9-1.3c-2.2,0.8-3.3,4.7-3.3,5.9
			c0,1.3,1.4,5.3,2.8,5.6c0.5,0.1,1.1,0.1,1.7-0.1c-0.3,0.6-0.7,1.2-1,2c-3,6.7,0.6,13,3.3,12.2c1.7-0.5,2.3,2.4,2.3,2.4l16.4-14.4
			C1245.9,20.7,1239.2,8.1,1232.5,12z"/>
		<path class="st3" d="M1226.8,98.7c0,0,3,6.3,6.9,15c4.3,9.8,9.6,22.6,12.7,33.1c1.7,5.5,2.7,10.4,2.7,13.7c0,1.2-4.5,5.9-5.7,7.7
			c-8.1,11.3-19.2,26.4-19.2,26.4l-3-0.8c0,0,4.2-18.9,10.4-28.3c1.2-1.9,4.6-4.1,4.5-4.3c0,0,0,0,0,0c-0.5-0.7-1.9-2.3-3.7-4.7
			c-5-6.6-13.7-18.6-19.6-29.8c-0.4-0.7-0.7-1.4-1.1-2.1c-3.1-6.2-5.1-12.1-4.9-16.4L1226.8,98.7z"/>
		<g>
			<path class="st2" d="M1218.5,194.6l2.1,1.3c0.8,0.3,1.4,0.5,2.2,0.8c1.2,0.5,1.4,1.3,1.4,1.5c0,0,0,0,0,0l8.9,5.6
				c0.4-0.2,0.7-1.1,0.8-1.7c0.1-0.5,0-0.9-0.3-1.3c-0.8-0.9-2.5-2.3-3.2-4.9c-0.4-1.5-2.6-6.1-2.6-6.1l0,0c-0.1,0-0.5-0.2-3.1,0.2
				c-1.3,0.2-1.7-2.5-1.7-2.5s-0.4,0.1-0.9,0.3c-0.4,0.2-0.8,0.6-1.1,1.2c-0.4,0.9-1.7,2.1-2.7,2.9c-0.6,0.5-1,0.8-1,0.8
				S1216.8,193.3,1218.5,194.6z"/>
			<path class="st4" d="M1222,187.9c0.3,0.7,0.9,2,1.5,2.6c0.9,0.7,4.1-0.6,4.1-0.6l0,0c-0.1,0-0.5-0.2-3.1,0.2
				c-1.3,0.2-1.7-2.5-1.7-2.5S1222.5,187.6,1222,187.9z"/>
			<path class="st4" d="M1218.5,194.6l2.1,1.3c0.8,0.3,1.4,0.5,2.2,0.8c1.2,0.5,1.4,1.3,1.4,1.5c0,0,0,0,0,0l8.9,5.6
				c0.4-0.2,0.7-1.1,0.8-1.7c-0.1-0.4-1,0.8-1.3,0.9c-0.3,0.1-7.3-4.5-7.5-5.1c-0.2-0.6-1.1-1.9-3.1-2.5c-1.7-0.6-3.3-2.9-3.7-3.5
				c-0.6,0.5-1,0.8-1,0.8S1216.8,193.3,1218.5,194.6z"/>
		</g>
		<path class="st5" d="M1279.7,130.8l-4.7-4.9l0.4-0.8l-0.7,0.5l0,0l0,0l-53.2,36l-11.9-37.1l-4,1.3l12.2,38.3l-46.6,31.5l56.2,4.9
			l0.4-4.2l-44.3-3.9l36.1-23.1l9.9,30.9l4-1.3l-1.1-3.5l2.7,1.7L1279.7,130.8z M1223.2,166.9l42.8-27.4l-34.1,54.6L1223.2,166.9z"
			/>
		<path class="st6" d="M1289.8,91.8c-0.8-2.8-3.8-4.4-6.6-3.6c-2.2,0.7-3.7,2.6-3.8,4.8L1256,99c-1.3-1.4-3.4-2.1-5.4-1.5
			c-2.8,0.8-4.4,3.8-3.6,6.6c0.8,2.8,3.8,4.4,6.6,3.6c1.4-0.4,2.5-1.3,3.1-2.5l26.7-6.7c0.9,0.2,1.9,0.2,2.8,0
			C1289.1,97.5,1290.7,94.6,1289.8,91.8z"/>
		<path class="st6" d="M1240.9,187.2l7.9,4.6c0.9,0.5,1.3,1.7,0.7,2.7l0,0c-0.5,0.9-1.7,1.3-2.7,0.7l-7.9-4.6
			c-0.9-0.5-1.3-1.7-0.7-2.7l0,0C1238.7,187,1239.9,186.7,1240.9,187.2z"/>
		<g>
			<polygon class="st6" points="1242.4,190.2 1232.5,201.2 1231.5,200.4 1241.5,189.4 			"/>
		</g>
		<path class="st2" d="M1218.4,147.8c-0.5-1.3-1.9-2-3.3-1.6l-2.3,0.8c-1.8,0.6-3.8,0.5-5.6-0.3c-8.5-4.2-18.9-6.4-30.9-6.4
			c-0.1,0-0.3,0-0.4,0c-5.4,0-14.9,1.3-19,1.9c-1.1,0.2-1.9,1.1-1.9,2.3v1.5c0,0.4,0.4,0.7,0.8,0.7l0,0c7.6-1.6,33.8-5.9,52.8,5.6
			c0.5,0.3,1.2,0.4,1.8,0.2l7.1-2.5C1218.3,149.6,1218.7,148.6,1218.4,147.8z"/>
		<path class="st6" d="M1192.7,123.5c0,0-0.8-3.5,1.4-3.7c2.2-0.2,10.1,1.5,12.2,1.2c2.1-0.2,13.1-2,15-0.2c1.9,1.9,1.1,3.5-2.8,3.9
			c-3.9,0.4-9,1-10.5,2.2C1206.6,128.2,1196,131.8,1192.7,123.5z"/>
		<path class="st6" d="M1220.9,199.6c0-5.8,4.7-10.5,10.5-10.5c5.8,0,10.5,4.7,10.5,10.5c0,5.8-4.7,10.5-10.5,10.5
			C1225.6,210.1,1220.9,205.4,1220.9,199.6z"/>
		<g>
			<g>
				<path class="st1" d="M1174.8,234.5c-22.3,0-40.5-18.2-40.5-40.5s18.2-40.5,40.5-40.5c22.3,0,40.5,18.2,40.5,40.5
					c0,7.2-1.9,14.2-5.5,20.4c-3.5,6-8.5,11.1-14.5,14.6C1189.1,232.6,1182,234.5,1174.8,234.5z M1174.8,159.1
					c-19.2,0-34.9,15.7-34.9,34.9c0,19.2,15.7,34.9,34.9,34.9c6.2,0,12.3-1.7,17.6-4.8c5.2-3,9.5-7.4,12.5-12.6
					c3.1-5.3,4.7-11.4,4.7-17.5C1209.7,174.8,1194,159.1,1174.8,159.1z"/>
			</g>
			<g>
				<path class="st2" d="M1175.1,229.9c-19.7,0-35.7-16-35.7-35.7c0-19.7,16-35.7,35.7-35.7c19.7,0,35.7,16,35.7,35.7
					C1210.8,213.9,1194.8,229.9,1175.1,229.9z M1175.1,160c-18.9,0-34.2,15.4-34.2,34.2s15.4,34.2,34.2,34.2
					c18.9,0,34.2-15.4,34.2-34.2S1194,160,1175.1,160z"/>
			</g>
		</g>
		<path class="st3" d="M1278.7,91.2c0,0-2.6-0.9-4.6-0.8c-2,0.1-4.9-1.8-4.9-1.8s-10.6-6.9-12.9-9.3c-4.9-5.1-9.6-31.2-13.9-29.2
			c0,0-5.7,3.2-5.1,11.4c0.7,8.2,8.2,21,13.9,24.2c4.2,2.3,15.7,5.9,17.3,6.4c1.9,0.7,4.3,2.5,5,2.8c0.8,0.3,2.8-0.5,4,0
			c4.2,1.7,4.3,0.4,4.3,0.4C1281.4,92,1278.7,91.2,1278.7,91.2z"/>
		<path class="st7" d="M1241.7,68.4c-0.3,1.8-0.7,3.4-1.3,4.9c-0.5,1.3-1.1,2.5-1.7,3.7c-1.7,3.7-5.8,5.5-6,12.6
			c0,2.4-2.1,7.9-0.9,11.9c5.7,19.6-31.4,1.8-29.4-3.4c4-10.3,9.7-16.3,9.6-24.8c0,0,0,0,0-0.1c0-0.4-0.1-1.5-0.2-3
			c-0.2-3.6-0.4-9.3-0.4-12.2c0-0.1,0-0.1,0-0.2c0-1.2-0.1-2.1-0.1-2.4c2.8-11.7,9.1-11.8,11.3-11.7c0.8,0,1.6,0.1,2.3,0.1
			c1.4-0.8,3.7-4.4,4.9-10.3l0.5,0.2l8.3,3.5c0,0-0.8,2.7-1.3,5.3c-0.4,2-0.7,3.9-0.4,4.5c0.7,0.2,1,0.4,1,0.4s0,0,0,0
			C1238.1,47.7,1243.1,59.1,1241.7,68.4z"/>
		<path class="st3" d="M1240.4,73.3c-0.5,1.3-1.1,2.5-1.7,3.7c-1.7,3.7-5.8,5.5-6,12.6c-0.1,0-0.3,0-0.4,0
			c-15.2,1.2-20.4-16.5-20.4-16.5c0-0.4-0.1-1.5-0.2-3l27.4,0C1239.3,70.2,1239.8,71.5,1240.4,73.3z"/>
		<path class="st3" d="M1238.6,37.3c0,0-0.8,2.7-1.3,5.3c-4.8-1.2-6.5-6.1-7-8.8L1238.6,37.3z"/>
		<path class="st8" d="M1247.3,56.5c-0.5-1.2-2.7-5.9-2.7-5.9s-1.8-1.5-6.7-3.3c0,0,0,0,0,0c0.1,0.3,2.4,7.7,1.7,9.3
			c-0.7,1.6-15.4-3-16.2-4.2c-0.7-0.9-0.9-6-0.9-8c0-0.5,0-0.8,0-0.8s-5.4-0.5-8.4,0.8c0,0,1.3,2.6,1.8,5.4c0.1,0.3,0.1,0.5,0.1,0.8
			c0.1,0.6,0.1,1.2,0.1,1.7c0,1.4-1.3,2.6-3.1,4c-0.5,0.4-1.1,0.9-1.7,1.4c0,0.1,0,0.1,0,0.2c0.1,4.1,0.5,13.7,0.6,15.1
			c0,0,0,0,0,0.1c2.6-0.1,8.6-0.3,14.7,0.5c2,0.2,4,0.6,5.9,1.1c2.2,0.6,4.4,1.3,6.1,2.3c0.1,0,0.1,0.1,0.2,0.1
			c0,0,2.4-5.2,5.1-11.5c0.1-0.2,0.2-0.5,0.3-0.7c0.8-2.5,0.6-5,0.2-7.3C1245.8,56.5,1247.3,56.5,1247.3,56.5z"/>
		<path class="st7" d="M1239.7,40c0,0-11.5-2.2-10-9.4c1.5-7.2,1-12.3,8.4-11.1c7.4,1.1,8.3,4.1,8.4,6.6
			C1246.6,28.7,1242.8,40.4,1239.7,40z"/>
		<path class="st9" d="M1238.9,77.2c-0.1,0-0.1-0.1-0.2-0.1c-1.8-1-3.9-1.7-6.1-2.3c-1.9-0.5-3.9-0.8-5.9-1.1
			c-6.1-0.8-12.1-0.6-14.7-0.5c0,0,0,0,0-0.1c-0.1-1.4-0.5-11.1-0.6-15.1c0-0.1,0-0.1,0-0.2c0.6-0.5,1.2-0.9,1.7-1.4
			C1220.6,60.1,1234.6,67.9,1238.9,77.2z"/>
		<path class="st1" d="M1247,22.1c-1.3-2.5-2.8-2.3-3.7-1.8c-5.6-4.8-10.7-0.5-10.7-0.5c-1.8,5-6.2,7.1-6.2,7.1s1.8,1.7,6.9,1.5
			c1.6-0.1,3.1-0.8,4.5-1.9c-2.6,2.9-5.8,4.7-5.8,4.7c6.3-1.5,10.3-9,10.7-9.8c0.6,0.8,1.7,2.4,1.8,3.9c0.2,1.9-0.3,5.7,0.8,5.8
			C1245.4,31.1,1248.9,25.9,1247,22.1z"/>
		<path class="st7" d="M1202,98.8c0,0-8.6,13.6,2,21.1c10.6,7.5,46.2,11,44.5,12.5c-5.3,4.4-10.2,11.2-9.9,52.1l2.6,1.4
			c0,0,25.4-55.3,23.7-61.9C1263.8,119.6,1226.8,96,1202,98.8z"/>
		<path class="st10" d="M1222.6,127.1c0,0-21.6-3.6-23.8-11.2c-1.7-5.7-2.2-8,7.6-26.4c0,0,4.1,7.8,25.4,6c0,0-0.1,1-0.1,2.4
			c0,2.3,0.4,5.5,2.2,6.4c0,0,0.1,0,0.1,0.1c2.8,1.3,7.2,3.9,7.8,4.1C1241.8,108.4,1228.7,110.9,1222.6,127.1z"/>
		<path class="st11" d="M1233.9,104.2c-9.5-2.8-20.5-3.5-20.5-3.5c8.1-2.1,14-2.9,18.3-2.9C1231.8,100.1,1232.1,103.3,1233.9,104.2z
			"/>
		<g>
			<path class="st2" d="M1235,186.4l2.2,1.1c0.8,0.2,1.5,0.3,2.3,0.6c1.2,0.4,1.5,1.1,1.6,1.3c0,0,0,0,0,0l9.5,4.5
				c0.4-0.2,0.6-1.1,0.6-1.8c0-0.5-0.1-0.9-0.5-1.2c-0.9-0.8-2.7-2-3.7-4.5c-0.6-1.4-3.3-5.7-3.3-5.7l0,0c-0.1,0-0.6-0.1-3,0.5
				c-1.3,0.3-2-2.3-2-2.3s-0.4,0.1-0.8,0.4c-0.3,0.3-0.7,0.7-0.9,1.4c-0.3,0.9-1.5,2.3-2.4,3.2c-0.5,0.5-0.9,0.9-0.9,0.9
				S1233.2,185.3,1235,186.4z"/>
			<path class="st4" d="M1237.8,179.3c0.4,0.6,1.1,1.9,1.8,2.4c0.9,0.6,4.1-1,4.1-1l0,0c-0.1,0-0.6-0.1-3,0.5c-1.3,0.3-2-2.3-2-2.3
				S1238.2,179,1237.8,179.3z"/>
			<path class="st4" d="M1235,186.4l2.2,1.1c0.8,0.2,1.5,0.3,2.3,0.6c1.2,0.4,1.5,1.1,1.6,1.3c0,0,0,0,0,0l9.5,4.5
				c0.4-0.2,0.6-1.1,0.6-1.8c-0.2-0.4-0.9,0.9-1.2,1.1c-0.3,0.1-7.8-3.6-8-4.2c-0.3-0.5-1.3-1.7-3.4-2.2c-1.8-0.4-3.6-2.5-4.1-3
				c-0.5,0.5-0.9,0.9-0.9,0.9S1233.2,185.3,1235,186.4z"/>
		</g>
		<path class="st7" d="M1263.2,94.8c0,0-2.6-0.9-4.6-0.8c-2,0.1-4.9-1.8-4.9-1.8s-19.9-9.5-22-13c-2.9-4.5-7.7-19.9-11.9-28.6
			c-2-4.2-4-6.8-5.5-6.1c0,0-3.9,1.2-3.7,9.1c0,0.4,0,0.9,0.1,1.4c0.8,9.1,10.3,30.8,16.6,34.4c6.3,3.7,25.6,6.3,25.6,6.3
			c2-0.1,4.4,2.5,5.1,2.7c0.8,0.3,3-0.3,4,0c4.3,1.3,4.3,0.4,4.3,0.4C1266,95.6,1263.2,94.8,1263.2,94.8z"/>
		<path class="st8" d="M1219.7,50.6c-5.3-1.2-9.2,3-9.2,3c-0.2-7.9,3.7-9.1,3.7-9.1C1215.7,43.8,1217.6,46.5,1219.7,50.6z"/>
		<path class="st1" d="M1296.4,193.9c0-5.8,4.7-10.5,10.5-10.5c5.8,0,10.5,4.7,10.5,10.5c0,5.8-4.7,10.5-10.5,10.5
			C1301.1,204.5,1296.4,199.7,1296.4,193.9z"/>
		<path class="st1" d="M1164.3,194.6c0-5.8,4.7-10.5,10.5-10.5c5.8,0,10.5,4.7,10.5,10.5c0,5.8-4.7,10.5-10.5,10.5
			C1169,205.2,1164.3,200.5,1164.3,194.6z"/>
	</g>
	<g>
		<g>
			<path class="st12" d="M1149.2,192.2c0-3.1,0.5-6,1.3-8.8c-1.8,3.3-2.9,7.1-2.9,11.1c0,9.4,5.6,17.4,13.6,21
				C1154,210.7,1149.2,202.1,1149.2,192.2z"/>
		</g>
	</g>
	<g>
		<g>
			<path class="st12" d="M1284.1,198.2c-0.8-3-1-5.9-0.8-8.8c-1,3.6-1,7.6-0.1,11.5c2.3,9.1,9.7,15.5,18.3,17
				C1293.3,215,1286.5,207.8,1284.1,198.2z"/>
		</g>
	</g>
	<path class="st13" d="M1141.5,166.7c4.5-5.9,8.2-9,15-11.7c0,0-6.8,2.2-9.3,4.4C1145.8,160.6,1142.3,164.4,1141.5,166.7z"/>
	<path class="st13" d="M1141.5,162c2.4-3.4,6-6.2,9.6-7.6c0,0-4.8,1.8-6,2.9C1143.3,158.9,1142,160.2,1141.5,162z"/>
	<path class="st13" d="M1348.5,205.3c-1.6,7.2-3.7,11.6-8.6,16.9c0,0,5.2-4.9,6.6-7.9C1347.2,212.6,1348.7,207.7,1348.5,205.3z"/>
	<linearGradient id="SVGID_2_" gradientUnits="userSpaceOnUse" x1="1453.6018" y1="479.4222" x2="1409.6871" y2="230.3696">
		<stop  offset="0.264" style="stop-color:#C45A50"/>
		<stop  offset="0.2926" style="stop-color:#BD5E57"/>
		<stop  offset="0.3341" style="stop-color:#AB686A"/>
		<stop  offset="0.3834" style="stop-color:#8D788A"/>
		<stop  offset="0.4383" style="stop-color:#648FB5"/>
		<stop  offset="0.4712" style="stop-color:#489ED3"/>
	</linearGradient>
	<path class="st14" d="M1271.3,234.5l35.6,66.4l-35.6,71.2c0,0,176.1,0,203.2,0c10.1,0,30.1,10.5,30.1,40.6h-10.7l25.9,34.7
		l24.6-34.7c0,0-5,0-9.5,0c0-35.6-13-60.9-43.7-61.1l57.4,0.6l35.3-60.5l-35.6-57.2H1271.3z"/>
	<path class="st13" d="M1350.5,209.6c-0.8,4.1-2.8,8.1-5.5,11c0,0,3.6-3.6,4.2-5.1C1350.1,213.1,1350.7,211.4,1350.5,209.6z"/>
	<linearGradient id="SVGID_3_" gradientUnits="userSpaceOnUse" x1="1554.8335" y1="302.5826" x2="1927.5092" y2="302.5826">
		<stop  offset="0.6821" style="stop-color:#C45A50"/>
		<stop  offset="0.9828" style="stop-color:#C45A50;stop-opacity:0"/>
	</linearGradient>
	<path class="st15" d="M1554.8,234.5l35.6,57.2l-35.6,60.5c0,0,100.4,0,238.9,0s133.8,65.1,133.8,65.1l-1-229.6
		c0,0-17.1,46.7-143,46.7S1554.8,234.5,1554.8,234.5z"/>
	<g class="st16">
		<path d="M1097.7,298.4h3.7c0.1,0,0.2,0,0.3,0.1c0.1,0.1,0.1,0.2,0.1,0.3v27c0,0.1,0,0.2-0.1,0.3c-0.1,0.1-0.2,0.1-0.3,0.1h-3.7
			c-0.1,0-0.2,0-0.3-0.1c-0.1-0.1-0.1-0.2-0.1-0.3v-19c0-0.1,0-0.2-0.1-0.2c-0.1,0-0.1,0-0.2,0.1l-4.2,7c-0.1,0.2-0.3,0.3-0.6,0.3
			h-0.8c-0.3,0-0.5-0.1-0.6-0.3l-4.2-7c-0.1-0.1-0.1-0.1-0.2-0.1c-0.1,0-0.1,0.1-0.1,0.2v18.9c0,0.1,0,0.2-0.1,0.3
			c-0.1,0.1-0.2,0.1-0.3,0.1h-3.7c-0.1,0-0.2,0-0.3-0.1c-0.1-0.1-0.1-0.2-0.1-0.3v-27c0-0.1,0-0.2,0.1-0.3c0.1-0.1,0.2-0.1,0.3-0.1
			h3.7c0.3,0,0.5,0.1,0.6,0.3l5.2,8.4c0.1,0.2,0.2,0.2,0.2,0l5.2-8.4C1097.2,298.5,1097.4,298.4,1097.7,298.4z"/>
		<path d="M1117.3,306.1c0.1-0.1,0.2-0.1,0.3-0.1h3.7c0.1,0,0.2,0,0.3,0.1c0.1,0.1,0.1,0.2,0.1,0.3v19.5c0,0.1,0,0.2-0.1,0.3
			c-0.1,0.1-0.2,0.1-0.3,0.1h-3.7c-0.1,0-0.2,0-0.3-0.1c-0.1-0.1-0.1-0.2-0.1-0.3v-1.1c0-0.1,0-0.1-0.1-0.1c-0.1,0-0.1,0-0.2,0.1
			c-0.9,1.3-2.3,1.9-4.3,1.9c-1.8,0-3.3-0.5-4.5-1.6c-1.2-1.1-1.8-2.7-1.8-4.7v-13.9c0-0.1,0-0.2,0.1-0.3c0.1-0.1,0.2-0.1,0.3-0.1
			h3.7c0.1,0,0.2,0,0.3,0.1c0.1,0.1,0.1,0.2,0.1,0.3v12.7c0,1.1,0.3,2,0.8,2.6c0.5,0.6,1.3,0.9,2.3,0.9c1,0,1.8-0.3,2.3-1
			c0.6-0.7,0.8-1.5,0.8-2.7v-12.6C1117.2,306.3,1117.2,306.2,1117.3,306.1z"/>
		<path d="M1127.4,325c-1.4-1-2.1-2.4-2.1-4.1v-0.3c0-0.1,0-0.2,0.1-0.3c0.1-0.1,0.2-0.1,0.3-0.1h3.5c0.1,0,0.2,0,0.3,0.1
			c0.1,0.1,0.1,0.2,0.1,0.3v0.1c0,0.6,0.3,1.2,0.9,1.7c0.6,0.5,1.4,0.7,2.3,0.7c0.9,0,1.6-0.2,2.1-0.6c0.5-0.4,0.8-1,0.8-1.6
			c0-0.6-0.3-1.1-0.8-1.5c-0.5-0.3-1.4-0.7-2.5-1.1l-1-0.4c-1.8-0.6-3.3-1.3-4.4-2.2c-1.1-0.9-1.6-2.2-1.6-4c0-1.9,0.7-3.3,2-4.4
			c1.3-1.1,3.1-1.6,5.3-1.6c2.3,0,4.1,0.6,5.4,1.7c1.3,1.1,2,2.6,2,4.4v0c0,0.1,0,0.2-0.1,0.3c-0.1,0.1-0.2,0.1-0.3,0.1h-3.4
			c-0.1,0-0.2,0-0.3-0.1c-0.1-0.1-0.1-0.2-0.1-0.3v-0.2c0-0.7-0.3-1.2-0.8-1.7c-0.6-0.4-1.3-0.7-2.2-0.7c-0.9,0-1.6,0.2-2.1,0.6
			c-0.5,0.4-0.8,0.9-0.8,1.6c0,0.5,0.2,0.9,0.6,1.3c0.4,0.3,0.8,0.6,1.3,0.8c0.5,0.2,1.3,0.5,2.5,0.9c1.3,0.4,2.3,0.9,3.2,1.3
			c0.9,0.5,1.6,1.1,2.2,1.9s0.9,1.8,0.9,3c0,1.8-0.7,3.3-2.1,4.3c-1.4,1.1-3.2,1.6-5.5,1.6C1130.7,326.6,1128.8,326.1,1127.4,325z"
			/>
		<path d="M1146.3,325c-1.4-1.1-2.2-2.6-2.5-4.5c-0.2-1.1-0.3-2.6-0.3-4.4c0-1.7,0.1-3.1,0.3-4.4c0.3-1.9,1.1-3.4,2.5-4.5
			c1.4-1.1,3.1-1.7,5.3-1.7c2.1,0,3.8,0.5,5.2,1.6c1.4,1.1,2.3,2.4,2.6,4.1c0,0.1,0.1,0.2,0.1,0.4c0,0.2,0,0.4,0,0.6v0.1
			c0,0.2-0.1,0.4-0.4,0.4l-3.6,0.4h-0.1c-0.2,0-0.4-0.1-0.4-0.4c0-0.2,0-0.4-0.1-0.6c-0.1-0.7-0.5-1.3-1.1-1.8
			c-0.6-0.5-1.3-0.7-2.2-0.7c-0.9,0-1.6,0.3-2.2,0.8c-0.6,0.5-0.9,1.2-1.1,2.1c-0.1,1-0.2,2.2-0.2,3.6c0,1.5,0.1,2.7,0.2,3.7
			c0.1,0.9,0.5,1.6,1,2.1c0.6,0.5,1.3,0.8,2.2,0.8c0.9,0,1.6-0.3,2.2-0.8c0.6-0.5,0.9-1.2,1-1.9l0-0.4c0-0.1,0.1-0.2,0.2-0.3
			s0.2-0.1,0.4-0.1l3.6,0.3c0.3,0.1,0.5,0.2,0.5,0.5l-0.1,0.7c-0.2,1.8-1.1,3.3-2.5,4.4c-1.4,1.1-3.2,1.6-5.3,1.6
			C1149.4,326.7,1147.7,326.1,1146.3,325z"/>
		<path d="M1173.8,306.1c0.1-0.1,0.2-0.1,0.3-0.1h3.7c0.1,0,0.2,0,0.3,0.1c0.1,0.1,0.1,0.2,0.1,0.3v19.5c0,0.1,0,0.2-0.1,0.3
			c-0.1,0.1-0.2,0.1-0.3,0.1h-3.7c-0.1,0-0.2,0-0.3-0.1c-0.1-0.1-0.1-0.2-0.1-0.3v-1.1c0-0.1,0-0.1-0.1-0.1c-0.1,0-0.1,0-0.2,0.1
			c-0.9,1.3-2.3,1.9-4.3,1.9c-1.8,0-3.3-0.5-4.5-1.6c-1.2-1.1-1.8-2.7-1.8-4.7v-13.9c0-0.1,0-0.2,0.1-0.3c0.1-0.1,0.2-0.1,0.3-0.1
			h3.7c0.1,0,0.2,0,0.3,0.1c0.1,0.1,0.1,0.2,0.1,0.3v12.7c0,1.1,0.3,2,0.8,2.6c0.5,0.6,1.3,0.9,2.3,0.9c1,0,1.8-0.3,2.3-1
			c0.6-0.7,0.8-1.5,0.8-2.7v-12.6C1173.6,306.3,1173.7,306.2,1173.8,306.1z"/>
		<path d="M1182.6,326.2c-0.1-0.1-0.1-0.2-0.1-0.3v-27c0-0.1,0-0.2,0.1-0.3c0.1-0.1,0.2-0.1,0.3-0.1h3.7c0.1,0,0.2,0,0.3,0.1
			c0.1,0.1,0.1,0.2,0.1,0.3v27c0,0.1,0,0.2-0.1,0.3c-0.1,0.1-0.2,0.1-0.3,0.1h-3.7C1182.8,326.4,1182.7,326.3,1182.6,326.2z"/>
		<path d="M1202.7,306.5c1.2,0.6,2.1,1.4,2.7,2.4s1,2.2,1,3.5v13.6c0,0.1,0,0.2-0.1,0.3c-0.1,0.1-0.2,0.1-0.3,0.1h-3.7
			c-0.1,0-0.2,0-0.3-0.1c-0.1-0.1-0.1-0.2-0.1-0.3v-1c0-0.1,0-0.1-0.1-0.2c-0.1,0-0.1,0-0.2,0c-1.1,1.3-2.7,1.9-4.8,1.9
			c-1.8,0-3.3-0.5-4.5-1.4c-1.2-0.9-1.8-2.5-1.8-4.6c0-2.2,0.7-3.9,2.1-5c1.4-1.1,3.4-1.6,5.9-1.6h3.2c0.1,0,0.2-0.1,0.2-0.2v-1
			c0-1-0.3-1.8-0.8-2.3c-0.5-0.6-1.3-0.9-2.3-0.9c-0.8,0-1.4,0.2-1.9,0.5c-0.5,0.4-0.8,0.8-0.9,1.5c-0.1,0.3-0.3,0.4-0.6,0.4
			l-3.9-0.2c-0.1,0-0.2,0-0.3-0.1c-0.1-0.1-0.1-0.2-0.1-0.3c0.2-1.7,1-3.1,2.4-4.2c1.4-1.1,3.2-1.6,5.3-1.6
			C1200.2,305.6,1201.5,305.9,1202.7,306.5z M1200.6,322c0.8-0.6,1.2-1.4,1.2-2.4v-2.1c0-0.1-0.1-0.2-0.2-0.2h-2.7
			c-1.2,0-2.1,0.3-2.8,0.8c-0.7,0.5-1,1.2-1,2.2c0,0.9,0.3,1.5,0.8,1.9c0.5,0.4,1.2,0.7,2,0.7C1199,322.9,1199.9,322.6,1200.6,322z"
			/>
		<path d="M1210.9,302.3c-0.5-0.5-0.8-1.2-0.8-2c0-0.8,0.3-1.5,0.8-2c0.5-0.5,1.2-0.8,2-0.8c0.9,0,1.5,0.3,2.1,0.8
			c0.5,0.5,0.8,1.2,0.8,2.1c0,0.8-0.3,1.5-0.8,2c-0.5,0.5-1.2,0.8-2,0.8C1212.1,303.1,1211.5,302.9,1210.9,302.3z M1210.8,326.2
			c-0.1-0.1-0.1-0.2-0.1-0.3v-19.5c0-0.1,0-0.2,0.1-0.3c0.1-0.1,0.2-0.1,0.3-0.1h3.7c0.1,0,0.2,0,0.3,0.1c0.1,0.1,0.1,0.2,0.1,0.3
			v19.5c0,0.1,0,0.2-0.1,0.3c-0.1,0.1-0.2,0.1-0.3,0.1h-3.7C1211,326.4,1210.9,326.3,1210.8,326.2z"/>
		<path d="M1230.6,306.2c0.2,0.1,0.3,0.3,0.2,0.6l-0.7,3.6c0,0.3-0.2,0.4-0.6,0.3c-0.3-0.1-0.7-0.2-1.2-0.2c-0.2,0-0.5,0-0.8,0.1
			c-0.9,0.1-1.7,0.5-2.3,1.2c-0.6,0.7-0.9,1.7-0.9,2.8v11.3c0,0.1,0,0.2-0.1,0.3c-0.1,0.1-0.2,0.1-0.3,0.1h-3.7
			c-0.1,0-0.2,0-0.3-0.1c-0.1-0.1-0.1-0.2-0.1-0.3v-19.5c0-0.1,0-0.2,0.1-0.3c0.1-0.1,0.2-0.1,0.3-0.1h3.7c0.1,0,0.2,0,0.3,0.1
			c0.1,0.1,0.1,0.2,0.1,0.3v1.7c0,0.1,0,0.2,0.1,0.2s0.1,0,0.1-0.1c1-1.7,2.3-2.5,4-2.5C1229.4,305.7,1230.1,305.8,1230.6,306.2z"/>
		<path d="M1248.9,315.8l0,1.7c0,0.3-0.2,0.5-0.5,0.5h-10.7c-0.1,0-0.2,0.1-0.2,0.2c0.1,0.7,0.1,1.3,0.2,1.6
			c0.1,0.9,0.5,1.6,1.1,2.1c0.6,0.5,1.4,0.8,2.3,0.8c0.8,0,1.5-0.2,2-0.6c0.5-0.4,1-0.9,1.3-1.6c0.1-0.3,0.3-0.4,0.6-0.3l3.3,0.7
			c0.3,0.1,0.4,0.3,0.3,0.6c-0.5,1.7-1.4,2.9-2.7,3.8c-1.3,0.9-2.9,1.3-4.7,1.3c-2.2,0-4-0.5-5.3-1.6c-1.3-1.1-2.2-2.5-2.6-4.4
			c-0.1-0.7-0.2-1.5-0.3-2.3s-0.1-1.9-0.1-3.2c0-1.4,0.1-2.4,0.2-3.2c0.3-1.9,1.1-3.5,2.5-4.7c1.4-1.2,3.1-1.7,5.3-1.7
			c2.3,0,4.2,0.7,5.6,2c1.4,1.3,2.2,3,2.4,5.2C1248.8,313.6,1248.9,314.6,1248.9,315.8z M1238.6,310.4c-0.6,0.5-0.9,1.2-1.1,2.1
			c-0.1,0.6-0.1,1.3-0.1,2c0,0.1,0.1,0.2,0.2,0.2h6.4c0.1,0,0.2-0.1,0.2-0.2c-0.1-0.9-0.1-1.6-0.2-2c-0.1-0.9-0.5-1.6-1-2.1
			c-0.6-0.5-1.3-0.8-2.2-0.8C1239.9,309.6,1239.2,309.9,1238.6,310.4z"/>
	</g>
	<g class="st16">
		<path d="M1361,314.1c-1.3-0.7-2.4-1.7-3.1-3c-0.7-1.3-1.1-2.8-1.1-4.4V295c0-1.7,0.4-3.2,1.1-4.4c0.7-1.3,1.8-2.2,3.1-2.9
			c1.3-0.7,2.9-1,4.6-1s3.3,0.3,4.6,1c1.3,0.7,2.4,1.6,3.1,2.9c0.7,1.2,1.1,2.7,1.1,4.3v0.2c0,0.1,0,0.3-0.1,0.4
			c-0.1,0.1-0.2,0.2-0.3,0.2l-3.7,0.2c-0.3,0-0.5-0.2-0.5-0.5v-0.5c0-1.3-0.4-2.3-1.1-3c-0.8-0.8-1.8-1.2-3-1.2
			c-1.3,0-2.3,0.4-3,1.2c-0.8,0.8-1.1,1.8-1.1,3V307c0,1.3,0.4,2.3,1.1,3c0.8,0.8,1.8,1.1,3,1.1c1.2,0,2.2-0.4,3-1.1
			c0.8-0.8,1.1-1.8,1.1-3v-0.5c0-0.3,0.2-0.4,0.5-0.4l3.7,0.2c0.1,0,0.2,0,0.3,0.1c0.1,0.1,0.1,0.2,0.1,0.3v0.2
			c0,1.7-0.4,3.1-1.1,4.4c-0.7,1.3-1.8,2.2-3.1,2.9c-1.3,0.7-2.9,1-4.6,1S1362.3,314.8,1361,314.1z"/>
		<path d="M1378.8,290.8c-0.5-0.5-0.8-1.2-0.8-2c0-0.8,0.3-1.5,0.8-2c0.5-0.5,1.2-0.8,2-0.8c0.9,0,1.5,0.3,2.1,0.8
			c0.5,0.5,0.8,1.2,0.8,2.1c0,0.8-0.3,1.5-0.8,2c-0.5,0.5-1.2,0.8-2,0.8C1380,291.6,1379.3,291.4,1378.8,290.8z M1378.6,314.7
			c-0.1-0.1-0.1-0.2-0.1-0.3v-19.5c0-0.1,0-0.2,0.1-0.3c0.1-0.1,0.2-0.1,0.3-0.1h3.7c0.1,0,0.2,0,0.3,0.1c0.1,0.1,0.1,0.2,0.1,0.3
			v19.5c0,0.1,0,0.2-0.1,0.3c-0.1,0.1-0.2,0.1-0.3,0.1h-3.7C1378.9,314.9,1378.7,314.8,1378.6,314.7z"/>
		<path d="M1401.5,296c1.1,1.2,1.6,2.9,1.6,5.1v13.4c0,0.1,0,0.2-0.1,0.3c-0.1,0.1-0.2,0.1-0.3,0.1h-3.7c-0.1,0-0.2,0-0.3-0.1
			c-0.1-0.1-0.1-0.2-0.1-0.3v-12.7c0-1.1-0.3-2-0.8-2.6c-0.5-0.6-1.3-1-2.2-1c-1,0-1.7,0.3-2.3,1c-0.6,0.7-0.9,1.5-0.9,2.6v12.7
			c0,0.1,0,0.2-0.1,0.3c-0.1,0.1-0.2,0.1-0.3,0.1h-3.7c-0.1,0-0.2,0-0.3-0.1c-0.1-0.1-0.1-0.2-0.1-0.3v-19.5c0-0.1,0-0.2,0.1-0.3
			c0.1-0.1,0.2-0.1,0.3-0.1h3.7c0.1,0,0.2,0,0.3,0.1c0.1,0.1,0.1,0.2,0.1,0.3v1c0,0.1,0,0.1,0.1,0.2c0.1,0,0.1,0,0.2-0.1
			c1.1-1.3,2.5-1.9,4.4-1.9C1398.9,294.1,1400.5,294.7,1401.5,296z"/>
		<path d="M1422.9,304.3l0,1.7c0,0.3-0.2,0.5-0.5,0.5h-10.7c-0.1,0-0.2,0.1-0.2,0.2c0.1,0.7,0.1,1.3,0.2,1.6
			c0.1,0.9,0.5,1.6,1.1,2.1c0.6,0.5,1.4,0.8,2.3,0.8c0.8,0,1.5-0.2,2-0.6c0.5-0.4,1-0.9,1.3-1.6c0.1-0.3,0.3-0.4,0.6-0.3l3.3,0.7
			c0.3,0.1,0.4,0.3,0.3,0.6c-0.5,1.7-1.4,2.9-2.7,3.8c-1.3,0.9-2.9,1.3-4.7,1.3c-2.2,0-4-0.5-5.3-1.6c-1.3-1.1-2.2-2.5-2.6-4.4
			c-0.1-0.7-0.2-1.5-0.3-2.3s-0.1-1.9-0.1-3.2c0-1.4,0.1-2.4,0.2-3.2c0.3-1.9,1.1-3.5,2.5-4.7c1.4-1.2,3.1-1.7,5.3-1.7
			c2.3,0,4.2,0.7,5.6,2c1.4,1.3,2.2,3,2.4,5.2C1422.9,302.1,1422.9,303.1,1422.9,304.3z M1412.7,298.9c-0.6,0.5-0.9,1.2-1.1,2.1
			c-0.1,0.6-0.1,1.3-0.1,2c0,0.1,0.1,0.2,0.2,0.2h6.4c0.1,0,0.2-0.1,0.2-0.2c-0.1-0.9-0.1-1.6-0.2-2c-0.1-0.9-0.5-1.6-1-2.1
			c-0.6-0.5-1.3-0.8-2.2-0.8C1414,298.1,1413.3,298.4,1412.7,298.9z M1412.5,291.7c-0.1-0.1,0-0.2,0-0.4l2.3-4.1
			c0.1-0.2,0.3-0.3,0.6-0.3h3c0.2,0,0.3,0.1,0.4,0.2c0.1,0.1,0,0.3-0.1,0.4l-2.8,4.1c-0.1,0.2-0.3,0.3-0.6,0.3h-2.5
			C1412.7,291.9,1412.6,291.8,1412.5,291.7z"/>
		<path d="M1435.8,297.8c-0.1,0.1-0.2,0.1-0.3,0.1h-3.2c-0.1,0-0.2,0.1-0.2,0.2v10c0,1,0.2,1.7,0.6,2.1c0.4,0.4,1,0.6,1.8,0.6h0.7
			c0.1,0,0.2,0,0.3,0.1c0.1,0.1,0.1,0.2,0.1,0.3v3c0,0.3-0.2,0.5-0.5,0.5h-1.7c-2,0-3.5-0.3-4.4-1c-1-0.7-1.5-2-1.5-3.9v-11.8
			c0-0.1-0.1-0.2-0.2-0.2h-1.8c-0.1,0-0.2,0-0.3-0.1c-0.1-0.1-0.1-0.2-0.1-0.3v-2.6c0-0.1,0-0.2,0.1-0.3c0.1-0.1,0.2-0.1,0.3-0.1
			h1.8c0.1,0,0.2-0.1,0.2-0.2v-4.6c0-0.1,0-0.2,0.1-0.3c0.1-0.1,0.2-0.1,0.3-0.1h3.5c0.1,0,0.2,0,0.3,0.1c0.1,0.1,0.1,0.2,0.1,0.3
			v4.6c0,0.1,0.1,0.2,0.2,0.2h3.2c0.1,0,0.2,0,0.3,0.1c0.1,0.1,0.1,0.2,0.1,0.3v2.6C1436,297.6,1435.9,297.7,1435.8,297.8z"/>
		<path d="M1439.9,290.8c-0.5-0.5-0.8-1.2-0.8-2c0-0.8,0.3-1.5,0.8-2c0.5-0.5,1.2-0.8,2-0.8c0.9,0,1.5,0.3,2.1,0.8
			c0.5,0.5,0.8,1.2,0.8,2.1c0,0.8-0.3,1.5-0.8,2c-0.5,0.5-1.2,0.8-2,0.8C1441.1,291.6,1440.4,291.4,1439.9,290.8z M1439.8,314.7
			c-0.1-0.1-0.1-0.2-0.1-0.3v-19.5c0-0.1,0-0.2,0.1-0.3c0.1-0.1,0.2-0.1,0.3-0.1h3.7c0.1,0,0.2,0,0.3,0.1c0.1,0.1,0.1,0.2,0.1,0.3
			v19.5c0,0.1,0,0.2-0.1,0.3c-0.1,0.1-0.2,0.1-0.3,0.1h-3.7C1440,314.9,1439.9,314.8,1439.8,314.7z"/>
		<path d="M1459.9,294.6c0.1-0.1,0.2-0.1,0.3-0.1h3.7c0.1,0,0.2,0,0.3,0.1c0.1,0.1,0.1,0.2,0.1,0.3v27c0,0.1,0,0.2-0.1,0.3
			c-0.1,0.1-0.2,0.1-0.3,0.1h-3.7c-0.1,0-0.2,0-0.3-0.1c-0.1-0.1-0.1-0.2-0.1-0.3v-8.5c0-0.1,0-0.1-0.1-0.2c-0.1,0-0.1,0-0.2,0.1
			c-0.9,1.2-2.3,1.8-4.2,1.8c-3.5,0-5.6-2-6.4-6.1c-0.2-1.2-0.4-2.6-0.4-4.4c0-1.8,0.1-3.3,0.4-4.5c0.9-4.1,3-6.1,6.2-6.1
			c1.9,0,3.3,0.6,4.4,1.9c0.1,0.1,0.1,0.1,0.2,0.1c0.1,0,0.1-0.1,0.1-0.2v-1C1459.7,294.8,1459.8,294.7,1459.9,294.6z M1459.7,304.7
			c0-1.8-0.1-3.1-0.4-4c-0.4-1.7-1.4-2.6-2.8-2.6c-1.5,0-2.5,0.9-3,2.6c-0.3,1-0.4,2.3-0.4,4c0,1.8,0.2,3.1,0.5,4.2
			c0.5,1.6,1.5,2.4,2.9,2.4c1.4,0,2.3-0.8,2.7-2.4C1459.6,307.8,1459.7,306.5,1459.7,304.7z"/>
		<path d="M1479.7,294.6c0.1-0.1,0.2-0.1,0.3-0.1h3.7c0.1,0,0.2,0,0.3,0.1c0.1,0.1,0.1,0.2,0.1,0.3v19.5c0,0.1,0,0.2-0.1,0.3
			c-0.1,0.1-0.2,0.1-0.3,0.1h-3.7c-0.1,0-0.2,0-0.3-0.1c-0.1-0.1-0.1-0.2-0.1-0.3v-1.1c0-0.1,0-0.1-0.1-0.1c-0.1,0-0.1,0-0.2,0.1
			c-0.9,1.3-2.3,1.9-4.3,1.9c-1.8,0-3.3-0.5-4.5-1.6c-1.2-1.1-1.8-2.7-1.8-4.7v-13.9c0-0.1,0-0.2,0.1-0.3c0.1-0.1,0.2-0.1,0.3-0.1
			h3.7c0.1,0,0.2,0,0.3,0.1c0.1,0.1,0.1,0.2,0.1,0.3v12.7c0,1.1,0.3,2,0.8,2.6c0.5,0.6,1.3,0.9,2.3,0.9c1,0,1.8-0.3,2.3-1
			c0.6-0.7,0.8-1.5,0.8-2.7v-12.6C1479.5,294.8,1479.6,294.7,1479.7,294.6z"/>
		<path d="M1504.1,304.3l0,1.7c0,0.3-0.2,0.5-0.5,0.5h-10.7c-0.1,0-0.2,0.1-0.2,0.2c0.1,0.7,0.1,1.3,0.2,1.6
			c0.1,0.9,0.5,1.6,1.1,2.1c0.6,0.5,1.4,0.8,2.3,0.8c0.8,0,1.5-0.2,2-0.6c0.5-0.4,1-0.9,1.3-1.6c0.1-0.3,0.3-0.4,0.6-0.3l3.3,0.7
			c0.3,0.1,0.4,0.3,0.3,0.6c-0.5,1.7-1.4,2.9-2.7,3.8c-1.3,0.9-2.9,1.3-4.7,1.3c-2.2,0-4-0.5-5.3-1.6c-1.3-1.1-2.2-2.5-2.6-4.4
			c-0.1-0.7-0.2-1.5-0.3-2.3s-0.1-1.9-0.1-3.2c0-1.4,0.1-2.4,0.2-3.2c0.3-1.9,1.1-3.5,2.5-4.7c1.4-1.2,3.1-1.7,5.3-1.7
			c2.3,0,4.2,0.7,5.6,2c1.4,1.3,2.2,3,2.4,5.2C1504.1,302.1,1504.1,303.1,1504.1,304.3z M1493.9,298.9c-0.6,0.5-0.9,1.2-1.1,2.1
			c-0.1,0.6-0.1,1.3-0.1,2c0,0.1,0.1,0.2,0.2,0.2h6.4c0.1,0,0.2-0.1,0.2-0.2c-0.1-0.9-0.1-1.6-0.2-2c-0.1-0.9-0.5-1.6-1-2.1
			c-0.6-0.5-1.3-0.8-2.2-0.8C1495.2,298.1,1494.5,298.4,1493.9,298.9z"/>
	</g>
	<g>
		<path class="st17" d="M1561.2,399c0.8,0.5,1.4,1.1,1.9,2c0.4,0.9,0.7,1.8,0.7,3c0,1.1-0.2,2.1-0.7,2.9c-0.4,0.8-1.1,1.5-1.9,1.9
			c-0.8,0.5-1.7,0.7-2.8,0.7h-3.4c-0.1,0-0.1,0-0.1,0.1v7.4c0,0.1,0,0.2-0.1,0.2c-0.1,0.1-0.1,0.1-0.2,0.1h-2.5
			c-0.1,0-0.2,0-0.2-0.1c-0.1-0.1-0.1-0.1-0.1-0.2v-18.4c0-0.1,0-0.2,0.1-0.2c0.1-0.1,0.1-0.1,0.2-0.1h6.3
			C1559.5,398.3,1560.4,398.5,1561.2,399z M1559.9,406.1c0.5-0.5,0.7-1.2,0.7-2.1c0-0.9-0.2-1.6-0.7-2.2s-1.1-0.8-1.9-0.8h-2.9
			c-0.1,0-0.1,0-0.1,0.1v5.7c0,0.1,0,0.1,0.1,0.1h2.9C1558.8,406.9,1559.4,406.7,1559.9,406.1z"/>
		<path class="st17" d="M1576.3,410.1l0,1.2c0,0.2-0.1,0.3-0.3,0.3h-7.3c-0.1,0-0.1,0-0.1,0.1c0,0.5,0.1,0.9,0.1,1.1
			c0.1,0.6,0.3,1.1,0.8,1.4c0.4,0.4,0.9,0.5,1.6,0.5c0.5,0,1-0.2,1.4-0.4s0.7-0.6,0.9-1.1c0.1-0.2,0.2-0.3,0.4-0.2l2.2,0.5
			c0.2,0.1,0.3,0.2,0.2,0.4c-0.4,1.1-1,2-1.9,2.6c-0.9,0.6-2,0.9-3.2,0.9c-1.5,0-2.7-0.4-3.6-1.1c-0.9-0.7-1.5-1.7-1.8-3
			c-0.1-0.5-0.1-1-0.2-1.6s0-1.3,0-2.2c0-0.9,0-1.7,0.1-2.2c0.2-1.3,0.7-2.4,1.7-3.2s2.1-1.2,3.6-1.2c1.6,0,2.9,0.4,3.8,1.3
			s1.5,2.1,1.6,3.5C1576.3,408.7,1576.3,409.4,1576.3,410.1z M1569.3,406.5c-0.4,0.4-0.6,0.8-0.7,1.4c-0.1,0.4-0.1,0.9-0.1,1.4
			c0,0.1,0,0.1,0.1,0.1h4.3c0.1,0,0.1,0,0.1-0.1c0-0.6-0.1-1.1-0.1-1.3c-0.1-0.6-0.3-1.1-0.7-1.4c-0.4-0.4-0.9-0.5-1.5-0.5
			S1569.7,406.1,1569.3,406.5z"/>
		<path class="st17" d="M1586.2,403.6c0.1,0.1,0.2,0.2,0.2,0.4l-0.5,2.5c0,0.2-0.1,0.3-0.4,0.2c-0.2-0.1-0.5-0.1-0.8-0.1
			c-0.1,0-0.3,0-0.6,0.1c-0.6,0.1-1.1,0.3-1.5,0.8c-0.4,0.5-0.6,1.1-0.6,1.9v7.7c0,0.1,0,0.2-0.1,0.2c-0.1,0.1-0.1,0.1-0.2,0.1h-2.5
			c-0.1,0-0.2,0-0.2-0.1c-0.1-0.1-0.1-0.1-0.1-0.2v-13.3c0-0.1,0-0.2,0.1-0.2s0.1-0.1,0.2-0.1h2.5c0.1,0,0.2,0,0.2,0.1
			s0.1,0.1,0.1,0.2v1.2c0,0.1,0,0.1,0,0.1c0,0,0.1,0,0.1-0.1c0.7-1.1,1.6-1.7,2.8-1.7C1585.4,403.3,1585.8,403.4,1586.2,403.6z"/>
		<path class="st17" d="M1594.8,405.7c-0.1,0.1-0.1,0.1-0.2,0.1h-2.2c-0.1,0-0.1,0-0.1,0.1v6.8c0,0.7,0.1,1.1,0.4,1.4
			c0.3,0.3,0.7,0.4,1.2,0.4h0.5c0.1,0,0.2,0,0.2,0.1s0.1,0.1,0.1,0.2v2.1c0,0.2-0.1,0.3-0.3,0.4h-1.1c-1.3,0-2.4-0.2-3-0.7
			c-0.7-0.5-1-1.4-1-2.7v-8c0-0.1,0-0.1-0.1-0.1h-1.3c-0.1,0-0.2,0-0.2-0.1c-0.1-0.1-0.1-0.1-0.1-0.2v-1.7c0-0.1,0-0.2,0.1-0.2
			s0.1-0.1,0.2-0.1h1.3c0.1,0,0.1,0,0.1-0.1v-3.1c0-0.1,0-0.2,0.1-0.2s0.1-0.1,0.2-0.1h2.4c0.1,0,0.2,0,0.2,0.1s0.1,0.1,0.1,0.2v3.1
			c0,0.1,0,0.1,0.1,0.1h2.2c0.1,0,0.2,0,0.2,0.1s0.1,0.1,0.1,0.2v1.7C1594.9,405.6,1594.8,405.7,1594.8,405.7z"/>
		<path class="st17" d="M1607.7,410.1l0,1.2c0,0.2-0.1,0.3-0.3,0.3h-7.3c-0.1,0-0.1,0-0.1,0.1c0,0.5,0.1,0.9,0.1,1.1
			c0.1,0.6,0.3,1.1,0.8,1.4c0.4,0.4,0.9,0.5,1.6,0.5c0.5,0,1-0.2,1.4-0.4s0.7-0.6,0.9-1.1c0.1-0.2,0.2-0.3,0.4-0.2l2.2,0.5
			c0.2,0.1,0.3,0.2,0.2,0.4c-0.4,1.1-1,2-1.9,2.6c-0.9,0.6-2,0.9-3.2,0.9c-1.5,0-2.7-0.4-3.6-1.1c-0.9-0.7-1.5-1.7-1.8-3
			c-0.1-0.5-0.2-1-0.2-1.6s0-1.3,0-2.2c0-0.9,0-1.7,0.1-2.2c0.2-1.3,0.7-2.4,1.7-3.2c0.9-0.8,2.1-1.2,3.6-1.2c1.6,0,2.9,0.4,3.8,1.3
			s1.5,2.1,1.6,3.5C1607.7,408.7,1607.7,409.4,1607.7,410.1z M1600.7,406.5c-0.4,0.4-0.6,0.8-0.7,1.4c-0.1,0.4-0.1,0.9-0.1,1.4
			c0,0.1,0,0.1,0.1,0.1h4.3c0.1,0,0.1,0,0.1-0.1c0-0.6-0.1-1.1-0.1-1.3c-0.1-0.6-0.3-1.1-0.7-1.4c-0.4-0.4-0.9-0.5-1.5-0.5
			S1601.1,406.1,1600.7,406.5z"/>
		<path class="st17" d="M1611.1,416.5c-0.9-0.7-1.4-1.6-1.4-2.8v-0.2c0-0.1,0-0.2,0.1-0.2c0.1-0.1,0.1-0.1,0.2-0.1h2.4
			c0.1,0,0.2,0,0.2,0.1c0.1,0.1,0.1,0.1,0.1,0.2v0.1c0,0.4,0.2,0.8,0.6,1.1c0.4,0.3,0.9,0.5,1.6,0.5c0.6,0,1.1-0.1,1.5-0.4
			c0.4-0.3,0.6-0.7,0.6-1.1s-0.2-0.8-0.6-1s-0.9-0.5-1.7-0.8l-0.7-0.2c-1.2-0.4-2.2-0.9-3-1.5c-0.7-0.6-1.1-1.5-1.1-2.7
			c0-1.3,0.5-2.3,1.4-3c0.9-0.7,2.1-1.1,3.6-1.1c1.5,0,2.8,0.4,3.7,1.1c0.9,0.8,1.4,1.8,1.4,3v0c0,0.1,0,0.2-0.1,0.2
			c-0.1,0.1-0.1,0.1-0.2,0.1h-2.3c-0.1,0-0.2,0-0.2-0.1c-0.1-0.1-0.1-0.1-0.1-0.2v-0.1c0-0.5-0.2-0.8-0.6-1.1
			c-0.4-0.3-0.9-0.5-1.5-0.5c-0.6,0-1.1,0.1-1.4,0.4c-0.4,0.3-0.5,0.6-0.5,1.1c0,0.3,0.1,0.6,0.4,0.9c0.3,0.2,0.5,0.4,0.9,0.5
			c0.3,0.1,0.9,0.3,1.7,0.6c0.9,0.3,1.6,0.6,2.2,0.9c0.6,0.3,1.1,0.7,1.5,1.3s0.6,1.2,0.6,2.1c0,1.3-0.5,2.2-1.4,3
			c-0.9,0.7-2.2,1.1-3.8,1.1S1612,417.2,1611.1,416.5z"/>
	</g>
	<g>
		<path class="st18" d="M1538.2,209.9c-0.1,0.1-0.1,0.1-0.2,0.1h-7.5c-0.1,0-0.1,0-0.1,0.1v5.1c0,0.1,0,0.1,0.1,0.1h4.8
			c0.1,0,0.2,0,0.2,0.1s0.1,0.1,0.1,0.2v2.1c0,0.1,0,0.2-0.1,0.2s-0.1,0.1-0.2,0.1h-4.8c-0.1,0-0.1,0-0.1,0.1v7.8
			c0,0.1,0,0.2-0.1,0.2c-0.1,0.1-0.1,0.1-0.2,0.1h-2.5c-0.1,0-0.2,0-0.2-0.1c-0.1-0.1-0.1-0.1-0.1-0.2v-18.4c0-0.1,0-0.2,0.1-0.2
			c0.1-0.1,0.1-0.1,0.2-0.1h10.5c0.1,0,0.2,0,0.2,0.1s0.1,0.1,0.1,0.2v2.1C1538.3,209.8,1538.3,209.9,1538.2,209.9z"/>
		<path class="st18" d="M1546.8,212.6c0.1,0.1,0.2,0.2,0.2,0.4l-0.5,2.5c0,0.2-0.1,0.3-0.4,0.2c-0.2-0.1-0.5-0.1-0.8-0.1
			c-0.1,0-0.3,0-0.6,0.1c-0.6,0.1-1.1,0.3-1.5,0.8c-0.4,0.5-0.6,1.1-0.6,1.9v7.7c0,0.1,0,0.2-0.1,0.2c-0.1,0.1-0.1,0.1-0.2,0.1h-2.5
			c-0.1,0-0.2,0-0.2-0.1c-0.1-0.1-0.1-0.1-0.1-0.2v-13.3c0-0.1,0-0.2,0.1-0.2c0.1-0.1,0.1-0.1,0.2-0.1h2.5c0.1,0,0.2,0,0.2,0.1
			s0.1,0.1,0.1,0.2v1.2c0,0.1,0,0.1,0,0.1c0,0,0.1,0,0.1-0.1c0.7-1.1,1.6-1.7,2.8-1.7C1546,212.3,1546.4,212.4,1546.8,212.6z"/>
		<path class="st18" d="M1559.2,219.2l0,1.2c0,0.2-0.1,0.3-0.3,0.3h-7.3c-0.1,0-0.1,0-0.1,0.1c0,0.5,0.1,0.9,0.1,1.1
			c0.1,0.6,0.3,1.1,0.8,1.4c0.4,0.4,0.9,0.5,1.6,0.5c0.5,0,1-0.2,1.4-0.4s0.7-0.6,0.9-1.1c0.1-0.2,0.2-0.3,0.4-0.2l2.2,0.5
			c0.2,0.1,0.3,0.2,0.2,0.4c-0.4,1.1-1,2-1.9,2.6c-0.9,0.6-2,0.9-3.2,0.9c-1.5,0-2.7-0.4-3.6-1.1c-0.9-0.7-1.5-1.7-1.8-3
			c-0.1-0.5-0.2-1-0.2-1.6s0-1.3,0-2.2c0-0.9,0-1.7,0.1-2.2c0.2-1.3,0.7-2.4,1.7-3.2c0.9-0.8,2.1-1.2,3.6-1.2c1.6,0,2.9,0.4,3.8,1.3
			s1.5,2.1,1.6,3.5C1559.2,217.7,1559.2,218.4,1559.2,219.2z M1552.3,215.5c-0.4,0.4-0.6,0.8-0.7,1.4c-0.1,0.4-0.1,0.9-0.1,1.4
			c0,0.1,0,0.1,0.1,0.1h4.3c0.1,0,0.1,0,0.1-0.1c0-0.6-0.1-1.1-0.1-1.3c-0.1-0.6-0.3-1.1-0.7-1.4c-0.4-0.4-0.9-0.5-1.5-0.5
			S1552.6,215.1,1552.3,215.5z"/>
		<path class="st18" d="M1562.1,210c-0.4-0.4-0.5-0.8-0.5-1.4c0-0.6,0.2-1,0.5-1.4c0.4-0.4,0.8-0.5,1.4-0.5c0.6,0,1,0.2,1.4,0.5
			c0.4,0.4,0.5,0.8,0.5,1.4c0,0.6-0.2,1-0.5,1.4s-0.8,0.5-1.4,0.5C1562.9,210.6,1562.4,210.4,1562.1,210z M1562,226.3
			c-0.1-0.1-0.1-0.1-0.1-0.2v-13.3c0-0.1,0-0.2,0.1-0.2c0.1-0.1,0.1-0.1,0.2-0.1h2.5c0.1,0,0.2,0,0.2,0.1c0.1,0.1,0.1,0.1,0.1,0.2
			v13.3c0,0.1,0,0.2-0.1,0.2c-0.1,0.1-0.1,0.1-0.2,0.1h-2.5C1562.1,226.4,1562,226.4,1562,226.3z"/>
		<path class="st18" d="M1577.6,213.5c0.7,0.8,1.1,2,1.1,3.5v9.1c0,0.1,0,0.2-0.1,0.2c-0.1,0.1-0.1,0.1-0.2,0.1h-2.5
			c-0.1,0-0.2,0-0.2-0.1c-0.1-0.1-0.1-0.1-0.1-0.2v-8.7c0-0.7-0.2-1.3-0.6-1.8c-0.4-0.4-0.9-0.7-1.5-0.7c-0.7,0-1.2,0.2-1.6,0.7
			c-0.4,0.4-0.6,1-0.6,1.8v8.6c0,0.1,0,0.2-0.1,0.2c-0.1,0.1-0.1,0.1-0.2,0.1h-2.5c-0.1,0-0.2,0-0.2-0.1c-0.1-0.1-0.1-0.1-0.1-0.2
			v-13.3c0-0.1,0-0.2,0.1-0.2s0.1-0.1,0.2-0.1h2.5c0.1,0,0.2,0,0.2,0.1s0.1,0.1,0.1,0.2v0.7c0,0.1,0,0.1,0.1,0.1c0,0,0.1,0,0.1-0.1
			c0.7-0.9,1.7-1.3,3-1.3C1575.8,212.2,1576.8,212.7,1577.6,213.5z"/>
		<path class="st18" d="M1589.3,212.8c0.8,0.4,1.4,0.9,1.9,1.6c0.4,0.7,0.7,1.5,0.7,2.4v9.2c0,0.1,0,0.2-0.1,0.2
			c-0.1,0.1-0.1,0.1-0.2,0.1h-2.5c-0.1,0-0.2,0-0.2-0.1c-0.1-0.1-0.1-0.1-0.1-0.2v-0.7c0-0.1,0-0.1-0.1-0.1c0,0-0.1,0-0.1,0
			c-0.8,0.9-1.9,1.3-3.3,1.3c-1.2,0-2.2-0.3-3.1-1c-0.8-0.6-1.3-1.7-1.3-3.1c0-1.5,0.5-2.7,1.5-3.4c1-0.7,2.3-1.1,4-1.1h2.2
			c0.1,0,0.1,0,0.1-0.1v-0.7c0-0.7-0.2-1.2-0.6-1.6c-0.4-0.4-0.9-0.6-1.5-0.6c-0.5,0-1,0.1-1.3,0.4c-0.3,0.2-0.5,0.6-0.6,1
			c-0.1,0.2-0.2,0.3-0.4,0.3l-2.6-0.2c-0.1,0-0.2,0-0.2-0.1c-0.1-0.1-0.1-0.1-0.1-0.2c0.1-1.2,0.6-2.1,1.6-2.8s2.2-1.1,3.6-1.1
			C1587.6,212.2,1588.5,212.4,1589.3,212.8z M1587.9,223.4c0.5-0.4,0.8-0.9,0.8-1.6v-1.4c0-0.1,0-0.1-0.1-0.1h-1.8
			c-0.8,0-1.4,0.2-1.9,0.5c-0.5,0.3-0.7,0.8-0.7,1.5c0,0.6,0.2,1,0.5,1.3c0.4,0.3,0.8,0.5,1.4,0.5
			C1586.7,224,1587.4,223.8,1587.9,223.4z"/>
		<path class="st18" d="M1602,212.6c0.1-0.1,0.1-0.1,0.2-0.1h2.5c0.1,0,0.2,0,0.2,0.1s0.1,0.1,0.1,0.2v12.9c0,2.1-0.6,3.7-1.7,4.7
			c-1.1,1-2.8,1.5-5,1.5c-0.3,0-0.7,0-1.2-0.1c-0.2,0-0.3-0.1-0.3-0.4l0.1-2.2c0-0.2,0.1-0.3,0.4-0.3c0.2,0,0.5,0,0.8,0
			c1.4,0,2.3-0.3,2.9-0.8c0.6-0.6,0.9-1.5,0.9-2.7v-0.2c0-0.1,0-0.1-0.1-0.1s-0.1,0-0.1,0.1c-0.7,0.8-1.6,1.2-2.9,1.2
			c-1.2,0-2.2-0.3-3-1s-1.3-1.7-1.5-3c-0.1-0.5-0.2-1.5-0.2-2.9c0-1.5,0.1-2.5,0.2-3.1c0.2-1.2,0.7-2.2,1.4-2.9
			c0.8-0.7,1.7-1.1,2.9-1.1c1.3,0,2.2,0.4,3,1.2c0,0,0.1,0.1,0.1,0c0,0,0.1,0,0.1-0.1v-0.6C1601.9,212.7,1602,212.6,1602,212.6z
			 M1601.9,219.4c0-1,0-1.9-0.1-2.5c-0.1-0.6-0.3-1.1-0.7-1.4c-0.4-0.4-0.9-0.5-1.4-0.5s-1.1,0.2-1.4,0.5c-0.4,0.4-0.6,0.8-0.7,1.4
			c-0.1,0.7-0.2,1.5-0.2,2.5c0,0.9,0,1.7,0.1,2.4c0.1,0.6,0.3,1.1,0.7,1.4c0.4,0.4,0.9,0.5,1.5,0.5c0.6,0,1.1-0.2,1.5-0.5
			c0.4-0.4,0.6-0.8,0.7-1.4C1601.9,221.1,1601.9,220.3,1601.9,219.4z"/>
		<path class="st18" d="M1618.6,219.2l0,1.2c0,0.2-0.1,0.3-0.3,0.3h-7.3c-0.1,0-0.1,0-0.1,0.1c0,0.5,0.1,0.9,0.1,1.1
			c0.1,0.6,0.3,1.1,0.8,1.4c0.4,0.4,0.9,0.5,1.6,0.5c0.5,0,1-0.2,1.4-0.4s0.7-0.6,0.9-1.1c0.1-0.2,0.2-0.3,0.4-0.2l2.2,0.5
			c0.2,0.1,0.3,0.2,0.2,0.4c-0.4,1.1-1,2-1.9,2.6c-0.9,0.6-2,0.9-3.2,0.9c-1.5,0-2.7-0.4-3.6-1.1c-0.9-0.7-1.5-1.7-1.8-3
			c-0.1-0.5-0.2-1-0.2-1.6s0-1.3,0-2.2c0-0.9,0-1.7,0.1-2.2c0.2-1.3,0.7-2.4,1.7-3.2c0.9-0.8,2.1-1.2,3.6-1.2c1.6,0,2.9,0.4,3.8,1.3
			s1.5,2.1,1.6,3.5C1618.6,217.7,1618.6,218.4,1618.6,219.2z M1611.6,215.5c-0.4,0.4-0.6,0.8-0.7,1.4c-0.1,0.4-0.1,0.9-0.1,1.4
			c0,0.1,0,0.1,0.1,0.1h4.3c0.1,0,0.1,0,0.1-0.1c0-0.6-0.1-1.1-0.1-1.3c-0.1-0.6-0.3-1.1-0.7-1.4c-0.4-0.4-0.9-0.5-1.5-0.5
			S1612,215.1,1611.6,215.5z"/>
	</g>
	<g>
		<path class="st17" d="M1330.2,418.9c0.8,0.5,1.4,1.1,1.9,2c0.4,0.9,0.7,1.8,0.7,3c0,1.1-0.2,2.1-0.7,2.9c-0.4,0.8-1.1,1.5-1.9,1.9
			c-0.8,0.5-1.7,0.7-2.8,0.7h-3.4c-0.1,0-0.1,0-0.1,0.1v7.4c0,0.1,0,0.2-0.1,0.2c-0.1,0.1-0.1,0.1-0.2,0.1h-2.5
			c-0.1,0-0.2,0-0.2-0.1c-0.1-0.1-0.1-0.1-0.1-0.2v-18.4c0-0.1,0-0.2,0.1-0.2c0.1-0.1,0.1-0.1,0.2-0.1h6.3
			C1328.4,418.2,1329.3,418.4,1330.2,418.9z M1328.8,426c0.5-0.5,0.7-1.2,0.7-2.1c0-0.9-0.2-1.6-0.7-2.2s-1.1-0.8-1.9-0.8h-2.9
			c-0.1,0-0.1,0-0.1,0.1v5.7c0,0.1,0,0.1,0.1,0.1h2.9C1327.7,426.8,1328.3,426.6,1328.8,426z"/>
		<path class="st17" d="M1345.2,430.1l0,1.2c0,0.2-0.1,0.3-0.3,0.3h-7.3c-0.1,0-0.1,0-0.1,0.1c0,0.5,0.1,0.9,0.1,1.1
			c0.1,0.6,0.3,1.1,0.8,1.4c0.4,0.4,0.9,0.5,1.6,0.5c0.5,0,1-0.2,1.4-0.4s0.7-0.6,0.9-1.1c0.1-0.2,0.2-0.3,0.4-0.2l2.2,0.5
			c0.2,0.1,0.3,0.2,0.2,0.4c-0.4,1.1-1,2-1.9,2.6c-0.9,0.6-2,0.9-3.2,0.9c-1.5,0-2.7-0.4-3.6-1.1c-0.9-0.7-1.5-1.7-1.8-3
			c-0.1-0.5-0.1-1-0.2-1.6s0-1.3,0-2.2c0-0.9,0-1.7,0.1-2.2c0.2-1.3,0.7-2.4,1.7-3.2s2.1-1.2,3.6-1.2c1.6,0,2.9,0.4,3.8,1.3
			s1.5,2.1,1.6,3.5C1345.2,428.6,1345.2,429.3,1345.2,430.1z M1338.2,426.4c-0.4,0.4-0.6,0.8-0.7,1.4c-0.1,0.4-0.1,0.9-0.1,1.4
			c0,0.1,0,0.1,0.1,0.1h4.3c0.1,0,0.1,0,0.1-0.1c0-0.6-0.1-1.1-0.1-1.3c-0.1-0.6-0.3-1.1-0.7-1.4c-0.4-0.4-0.9-0.5-1.5-0.5
			S1338.6,426,1338.2,426.4z"/>
		<path class="st17" d="M1355.1,423.5c0.1,0.1,0.2,0.2,0.2,0.4l-0.5,2.5c0,0.2-0.1,0.3-0.4,0.2c-0.2-0.1-0.5-0.1-0.8-0.1
			c-0.1,0-0.3,0-0.6,0.1c-0.6,0.1-1.1,0.3-1.5,0.8c-0.4,0.5-0.6,1.1-0.6,1.9v7.7c0,0.1,0,0.2-0.1,0.2c-0.1,0.1-0.1,0.1-0.2,0.1h-2.5
			c-0.1,0-0.2,0-0.2-0.1c-0.1-0.1-0.1-0.1-0.1-0.2v-13.3c0-0.1,0-0.2,0.1-0.2s0.1-0.1,0.2-0.1h2.5c0.1,0,0.2,0,0.2,0.1
			s0.1,0.1,0.1,0.2v1.2c0,0.1,0,0.1,0,0.1c0,0,0.1,0,0.1-0.1c0.7-1.1,1.6-1.7,2.8-1.7C1354.3,423.2,1354.7,423.3,1355.1,423.5z"/>
		<path class="st17" d="M1363.7,425.7c-0.1,0.1-0.1,0.1-0.2,0.1h-2.2c-0.1,0-0.1,0-0.1,0.1v6.8c0,0.7,0.1,1.1,0.4,1.4
			c0.3,0.3,0.7,0.4,1.2,0.4h0.5c0.1,0,0.2,0,0.2,0.1s0.1,0.1,0.1,0.2v2.1c0,0.2-0.1,0.3-0.3,0.4h-1.1c-1.3,0-2.4-0.2-3-0.7
			c-0.7-0.5-1-1.4-1-2.7v-8c0-0.1,0-0.1-0.1-0.1h-1.3c-0.1,0-0.2,0-0.2-0.1c-0.1-0.1-0.1-0.1-0.1-0.2v-1.7c0-0.1,0-0.2,0.1-0.2
			s0.1-0.1,0.2-0.1h1.3c0.1,0,0.1,0,0.1-0.1v-3.1c0-0.1,0-0.2,0.1-0.2s0.1-0.1,0.2-0.1h2.4c0.1,0,0.2,0,0.2,0.1s0.1,0.1,0.1,0.2v3.1
			c0,0.1,0,0.1,0.1,0.1h2.2c0.1,0,0.2,0,0.2,0.1s0.1,0.1,0.1,0.2v1.7C1363.8,425.5,1363.7,425.6,1363.7,425.7z"/>
		<path class="st17" d="M1376.6,430.1l0,1.2c0,0.2-0.1,0.3-0.3,0.3h-7.3c-0.1,0-0.1,0-0.1,0.1c0,0.5,0.1,0.9,0.1,1.1
			c0.1,0.6,0.3,1.1,0.8,1.4c0.4,0.4,0.9,0.5,1.6,0.5c0.5,0,1-0.2,1.4-0.4s0.7-0.6,0.9-1.1c0.1-0.2,0.2-0.3,0.4-0.2l2.2,0.5
			c0.2,0.1,0.3,0.2,0.2,0.4c-0.4,1.1-1,2-1.9,2.6c-0.9,0.6-2,0.9-3.2,0.9c-1.5,0-2.7-0.4-3.6-1.1c-0.9-0.7-1.5-1.7-1.8-3
			c-0.1-0.5-0.2-1-0.2-1.6s0-1.3,0-2.2c0-0.9,0-1.7,0.1-2.2c0.2-1.3,0.7-2.4,1.7-3.2c0.9-0.8,2.1-1.2,3.6-1.2c1.6,0,2.9,0.4,3.8,1.3
			s1.5,2.1,1.6,3.5C1376.6,428.6,1376.6,429.3,1376.6,430.1z M1369.7,426.4c-0.4,0.4-0.6,0.8-0.7,1.4c-0.1,0.4-0.1,0.9-0.1,1.4
			c0,0.1,0,0.1,0.1,0.1h4.3c0.1,0,0.1,0,0.1-0.1c0-0.6-0.1-1.1-0.1-1.3c-0.1-0.6-0.3-1.1-0.7-1.4c-0.4-0.4-0.9-0.5-1.5-0.5
			S1370,426,1369.7,426.4z"/>
		<path class="st17" d="M1380,436.4c-0.9-0.7-1.4-1.6-1.4-2.8v-0.2c0-0.1,0-0.2,0.1-0.2c0.1-0.1,0.1-0.1,0.2-0.1h2.4
			c0.1,0,0.2,0,0.2,0.1c0.1,0.1,0.1,0.1,0.1,0.2v0.1c0,0.4,0.2,0.8,0.6,1.1c0.4,0.3,0.9,0.5,1.6,0.5c0.6,0,1.1-0.1,1.5-0.4
			c0.4-0.3,0.6-0.7,0.6-1.1s-0.2-0.8-0.6-1s-0.9-0.5-1.7-0.8l-0.7-0.2c-1.2-0.4-2.2-0.9-3-1.5c-0.7-0.6-1.1-1.5-1.1-2.7
			c0-1.3,0.5-2.3,1.4-3c0.9-0.7,2.1-1.1,3.6-1.1c1.5,0,2.8,0.4,3.7,1.1c0.9,0.8,1.4,1.8,1.4,3v0c0,0.1,0,0.2-0.1,0.2
			c-0.1,0.1-0.1,0.1-0.2,0.1h-2.3c-0.1,0-0.2,0-0.2-0.1c-0.1-0.1-0.1-0.1-0.1-0.2v-0.1c0-0.5-0.2-0.8-0.6-1.1
			c-0.4-0.3-0.9-0.5-1.5-0.5c-0.6,0-1.1,0.1-1.4,0.4c-0.4,0.3-0.5,0.6-0.5,1.1c0,0.3,0.1,0.6,0.4,0.9c0.3,0.2,0.5,0.4,0.9,0.5
			c0.3,0.1,0.9,0.3,1.7,0.6c0.9,0.3,1.6,0.6,2.2,0.9c0.6,0.3,1.1,0.7,1.5,1.3s0.6,1.2,0.6,2.1c0,1.3-0.5,2.2-1.4,3
			c-0.9,0.7-2.2,1.1-3.8,1.1S1380.9,437.1,1380,436.4z"/>
	</g>
	<g class="st16">
		<path d="M1637.1,277.2c0.1,0.1,0.1,0.2,0.1,0.3v3.1c0,0.1,0,0.2-0.1,0.3c-0.1,0.1-0.2,0.1-0.3,0.1h-6.2c-0.1,0-0.2,0.1-0.2,0.2
			v23.3c0,0.1,0,0.2-0.1,0.3c-0.1,0.1-0.2,0.1-0.3,0.1h-3.7c-0.1,0-0.2,0-0.3-0.1c-0.1-0.1-0.1-0.2-0.1-0.3v-23.3
			c0-0.1-0.1-0.2-0.2-0.2h-6c-0.1,0-0.2,0-0.3-0.1c-0.1-0.1-0.1-0.2-0.1-0.3v-3.1c0-0.1,0-0.2,0.1-0.3c0.1-0.1,0.2-0.1,0.3-0.1h17.2
			C1636.9,277.1,1637,277.1,1637.1,277.2z"/>
		<path d="M1654.5,286.2c1.1,1.2,1.6,2.9,1.6,5.1v13.4c0,0.1,0,0.2-0.1,0.3c-0.1,0.1-0.2,0.1-0.3,0.1h-3.7c-0.1,0-0.2,0-0.3-0.1
			c-0.1-0.1-0.1-0.2-0.1-0.3v-12.7c0-1.1-0.3-2-0.8-2.6c-0.5-0.6-1.3-1-2.2-1c-1,0-1.7,0.3-2.3,1c-0.6,0.7-0.9,1.5-0.9,2.6v12.7
			c0,0.1,0,0.2-0.1,0.3c-0.1,0.1-0.2,0.1-0.3,0.1h-3.7c-0.1,0-0.2,0-0.3-0.1c-0.1-0.1-0.1-0.2-0.1-0.3v-27c0-0.1,0-0.2,0.1-0.3
			c0.1-0.1,0.2-0.1,0.3-0.1h3.7c0.1,0,0.2,0,0.3,0.1c0.1,0.1,0.1,0.2,0.1,0.3v8.6c0,0.1,0,0.1,0.1,0.2c0.1,0,0.1,0,0.2-0.1
			c1.1-1.3,2.5-1.9,4.4-1.9C1651.9,284.3,1653.4,284.9,1654.5,286.2z"/>
		<path d="M1675.9,294.5l0,1.7c0,0.3-0.2,0.5-0.5,0.5h-10.7c-0.1,0-0.2,0.1-0.2,0.2c0.1,0.7,0.1,1.3,0.2,1.6
			c0.1,0.9,0.5,1.6,1.1,2.1c0.6,0.5,1.4,0.8,2.3,0.8c0.8,0,1.5-0.2,2-0.6c0.5-0.4,1-0.9,1.3-1.6c0.1-0.3,0.3-0.4,0.6-0.3l3.3,0.7
			c0.3,0.1,0.4,0.3,0.3,0.6c-0.5,1.7-1.4,2.9-2.7,3.8c-1.3,0.9-2.9,1.3-4.7,1.3c-2.2,0-4-0.5-5.3-1.6c-1.3-1.1-2.2-2.5-2.6-4.4
			c-0.1-0.7-0.2-1.5-0.3-2.3s-0.1-1.9-0.1-3.2c0-1.4,0.1-2.4,0.2-3.2c0.3-1.9,1.1-3.5,2.5-4.7c1.4-1.2,3.1-1.7,5.3-1.7
			c2.3,0,4.2,0.7,5.6,2c1.4,1.3,2.2,3,2.4,5.2C1675.8,292.3,1675.9,293.3,1675.9,294.5z M1665.6,289.1c-0.6,0.5-0.9,1.2-1.1,2.1
			c-0.1,0.6-0.1,1.3-0.1,2c0,0.1,0.1,0.2,0.2,0.2h6.4c0.1,0,0.2-0.1,0.2-0.2c-0.1-0.9-0.1-1.6-0.2-2c-0.1-0.9-0.5-1.6-1-2.1
			c-0.6-0.5-1.3-0.8-2.2-0.8C1666.9,288.3,1666.2,288.6,1665.6,289.1z"/>
		<path d="M1690.4,284.9c0.2,0.1,0.3,0.3,0.2,0.6l-0.7,3.6c0,0.3-0.2,0.4-0.6,0.3c-0.3-0.1-0.7-0.2-1.2-0.2c-0.2,0-0.5,0-0.8,0.1
			c-0.9,0.1-1.7,0.5-2.3,1.2c-0.6,0.7-0.9,1.7-0.9,2.8v11.3c0,0.1,0,0.2-0.1,0.3c-0.1,0.1-0.2,0.1-0.3,0.1h-3.7
			c-0.1,0-0.2,0-0.3-0.1c-0.1-0.1-0.1-0.2-0.1-0.3v-19.5c0-0.1,0-0.2,0.1-0.3c0.1-0.1,0.2-0.1,0.3-0.1h3.7c0.1,0,0.2,0,0.3,0.1
			c0.1,0.1,0.1,0.2,0.1,0.3v1.7c0,0.1,0,0.2,0.1,0.2s0.1,0,0.1-0.1c1-1.7,2.3-2.5,4-2.5C1689.1,284.4,1689.8,284.6,1690.4,284.9z"/>
		<path d="M1717.5,286.2c1,1.2,1.5,2.9,1.5,5.1v13.3c0,0.1,0,0.2-0.1,0.3c-0.1,0.1-0.2,0.1-0.3,0.1h-3.6c-0.1,0-0.2,0-0.3-0.1
			c-0.1-0.1-0.1-0.2-0.1-0.3v-12.7c0-1.1-0.3-2-0.8-2.6c-0.5-0.6-1.2-1-2.1-1c-0.9,0-1.7,0.3-2.2,1c-0.5,0.6-0.8,1.5-0.8,2.6v12.7
			c0,0.1,0,0.2-0.1,0.3c-0.1,0.1-0.2,0.1-0.3,0.1h-3.7c-0.1,0-0.2,0-0.3-0.1c-0.1-0.1-0.1-0.2-0.1-0.3v-12.7c0-1.1-0.3-2-0.8-2.6
			c-0.5-0.6-1.2-1-2.1-1c-0.9,0-1.7,0.3-2.2,1c-0.5,0.6-0.8,1.5-0.8,2.6v12.7c0,0.1,0,0.2-0.1,0.3c-0.1,0.1-0.2,0.1-0.3,0.1h-3.6
			c-0.1,0-0.2,0-0.3-0.1c-0.1-0.1-0.1-0.2-0.1-0.3v-19.5c0-0.1,0-0.2,0.1-0.3c0.1-0.1,0.2-0.1,0.3-0.1h3.6c0.1,0,0.2,0,0.3,0.1
			c0.1,0.1,0.1,0.2,0.1,0.3v1c0,0.1,0,0.1,0.1,0.1c0.1,0,0.1,0,0.2-0.1c1.1-1.3,2.6-1.9,4.4-1.9c1.2,0,2.2,0.2,3,0.7
			c0.9,0.5,1.5,1.2,2,2.1c0.1,0.1,0.1,0.1,0.2,0.1c0.1,0,0.1-0.1,0.1-0.2c0.6-1,1.4-1.7,2.3-2.1c0.9-0.4,1.9-0.7,2.9-0.7
			C1715,284.3,1716.4,284.9,1717.5,286.2z"/>
		<path d="M1723.6,281.1c-0.5-0.5-0.8-1.2-0.8-2c0-0.8,0.3-1.5,0.8-2c0.5-0.5,1.2-0.8,2-0.8c0.9,0,1.5,0.3,2.1,0.8
			c0.5,0.5,0.8,1.2,0.8,2.1c0,0.8-0.3,1.5-0.8,2c-0.5,0.5-1.2,0.8-2,0.8C1724.8,281.9,1724.1,281.6,1723.6,281.1z M1723.5,305
			c-0.1-0.1-0.1-0.2-0.1-0.3v-19.5c0-0.1,0-0.2,0.1-0.3c0.1-0.1,0.2-0.1,0.3-0.1h3.7c0.1,0,0.2,0,0.3,0.1c0.1,0.1,0.1,0.2,0.1,0.3
			v19.5c0,0.1,0,0.2-0.1,0.3c-0.1,0.1-0.2,0.1-0.3,0.1h-3.7C1723.7,305.1,1723.6,305,1723.5,305z"/>
		<path d="M1743.6,284.8c0.1-0.1,0.2-0.1,0.3-0.1h3.7c0.1,0,0.2,0,0.3,0.1c0.1,0.1,0.1,0.2,0.1,0.3v27c0,0.1,0,0.2-0.1,0.3
			c-0.1,0.1-0.2,0.1-0.3,0.1h-3.7c-0.1,0-0.2,0-0.3-0.1c-0.1-0.1-0.1-0.2-0.1-0.3v-8.5c0-0.1,0-0.1-0.1-0.2c-0.1,0-0.1,0-0.2,0.1
			c-0.9,1.2-2.3,1.8-4.2,1.8c-3.5,0-5.6-2-6.4-6.1c-0.2-1.2-0.4-2.6-0.4-4.4c0-1.8,0.1-3.3,0.4-4.5c0.9-4.1,3-6.1,6.2-6.1
			c1.9,0,3.3,0.6,4.4,1.9c0.1,0.1,0.1,0.1,0.2,0.1c0.1,0,0.1-0.1,0.1-0.2v-1C1743.4,285,1743.5,284.9,1743.6,284.8z M1743.4,294.9
			c0-1.8-0.1-3.1-0.4-4c-0.4-1.7-1.4-2.6-2.8-2.6c-1.5,0-2.5,0.9-3,2.6c-0.3,1-0.4,2.3-0.4,4c0,1.8,0.2,3.1,0.5,4.2
			c0.5,1.6,1.5,2.4,2.9,2.4c1.4,0,2.3-0.8,2.7-2.4C1743.3,298,1743.4,296.7,1743.4,294.9z"/>
		<path d="M1763.4,284.8c0.1-0.1,0.2-0.1,0.3-0.1h3.7c0.1,0,0.2,0,0.3,0.1c0.1,0.1,0.1,0.2,0.1,0.3v19.5c0,0.1,0,0.2-0.1,0.3
			c-0.1,0.1-0.2,0.1-0.3,0.1h-3.7c-0.1,0-0.2,0-0.3-0.1c-0.1-0.1-0.1-0.2-0.1-0.3v-1.1c0-0.1,0-0.1-0.1-0.1c-0.1,0-0.1,0-0.2,0.1
			c-0.9,1.3-2.3,1.9-4.3,1.9c-1.8,0-3.3-0.5-4.5-1.6c-1.2-1.1-1.8-2.7-1.8-4.7v-13.9c0-0.1,0-0.2,0.1-0.3c0.1-0.1,0.2-0.1,0.3-0.1
			h3.7c0.1,0,0.2,0,0.3,0.1c0.1,0.1,0.1,0.2,0.1,0.3v12.7c0,1.1,0.3,2,0.8,2.6c0.5,0.6,1.3,0.9,2.3,0.9c1,0,1.8-0.3,2.3-1
			c0.6-0.7,0.8-1.5,0.8-2.7v-12.6C1763.2,285,1763.3,284.9,1763.4,284.8z"/>
		<path d="M1787.8,294.5l0,1.7c0,0.3-0.2,0.5-0.5,0.5h-10.7c-0.1,0-0.2,0.1-0.2,0.2c0.1,0.7,0.1,1.3,0.2,1.6
			c0.1,0.9,0.5,1.6,1.1,2.1c0.6,0.5,1.4,0.8,2.3,0.8c0.8,0,1.5-0.2,2-0.6c0.5-0.4,1-0.9,1.3-1.6c0.1-0.3,0.3-0.4,0.6-0.3l3.3,0.7
			c0.3,0.1,0.4,0.3,0.3,0.6c-0.5,1.7-1.4,2.9-2.7,3.8c-1.3,0.9-2.9,1.3-4.7,1.3c-2.2,0-4-0.5-5.3-1.6c-1.3-1.1-2.2-2.5-2.6-4.4
			c-0.1-0.7-0.2-1.5-0.3-2.3s-0.1-1.9-0.1-3.2c0-1.4,0.1-2.4,0.2-3.2c0.3-1.9,1.1-3.5,2.5-4.7c1.4-1.2,3.1-1.7,5.3-1.7
			c2.3,0,4.2,0.7,5.6,2c1.4,1.3,2.2,3,2.4,5.2C1787.8,292.3,1787.8,293.3,1787.8,294.5z M1777.6,289.1c-0.6,0.5-0.9,1.2-1.1,2.1
			c-0.1,0.6-0.1,1.3-0.1,2c0,0.1,0.1,0.2,0.2,0.2h6.4c0.1,0,0.2-0.1,0.2-0.2c-0.1-0.9-0.1-1.6-0.2-2c-0.1-0.9-0.5-1.6-1-2.1
			c-0.6-0.5-1.3-0.8-2.2-0.8C1778.9,288.3,1778.2,288.6,1777.6,289.1z"/>
	</g>
	<linearGradient id="SVGID_4_" gradientUnits="userSpaceOnUse" x1="277.1854" y1="516.919" x2="229.9242" y2="248.8875">
		<stop  offset="0.1243" style="stop-color:#AA529C"/>
		<stop  offset="0.1717" style="stop-color:#A3589A"/>
		<stop  offset="0.2404" style="stop-color:#906796"/>
		<stop  offset="0.322" style="stop-color:#70818E"/>
		<stop  offset="0.4128" style="stop-color:#45A483"/>
		<stop  offset="0.4274" style="stop-color:#3DAA81"/>
	</linearGradient>
	<path class="st19" d="M434,372.4l35.6-71.5L434,234.5H24.8v158.4h384.8c10.1,0,30.1,10.5,30.1,40.6H429l25.9,34.7l24.6-34.7
		c0,0-5,0-9.5,0c0-35.6-13-61-43.7-61.1L434,372.4z"/>
	<polygon class="st20" points="831.7,372.1 867,303.3 831.5,234.5 440,234.5 475.5,300.9 440,372.1 	"/>
	<g class="st16">
		<path d="M114.6,317.6c0,1.3-0.2,2.5-0.5,3.6c-0.4,1.7-1.3,3.1-2.6,4c-1.3,0.9-2.9,1.4-4.9,1.4c-1.8,0-3.4-0.4-4.6-1.3
			c-1.3-0.9-2.1-2.1-2.6-3.7l-0.1-0.2c-0.4-1-0.6-2.2-0.6-3.7l0-12.6c0-2.2,0.7-3.9,2.2-5.2c1.5-1.3,3.4-1.9,5.7-1.9
			c2.2,0,4.1,0.6,5.5,1.9c1.4,1.3,2.1,3,2.1,5.1v0.9c0,0.1,0,0.2-0.1,0.3c-0.1,0.1-0.2,0.1-0.3,0.1h-3.7c-0.1,0-0.2,0-0.3-0.1
			c-0.1-0.1-0.1-0.2-0.1-0.3v-0.5c0-1-0.3-1.8-0.8-2.4c-0.6-0.6-1.3-0.9-2.1-0.9c-0.9,0-1.7,0.3-2.3,0.9c-0.6,0.6-0.9,1.5-0.9,2.5
			v4.3c0,0.1,0,0.1,0.1,0.2c0.1,0,0.1,0,0.2,0c1-0.9,2.3-1.4,3.7-1.4c1.7,0,3.1,0.4,4.2,1.3c1.1,0.9,2,2.1,2.4,3.6
			C114.4,314.7,114.6,316.1,114.6,317.6z M109.9,317.5c0-1.1-0.2-2.1-0.5-3c-0.5-1.4-1.5-2.1-2.9-2.1c-1.4,0-2.4,0.7-2.9,2.2
			c-0.3,0.8-0.4,1.8-0.4,3c0,1,0.1,1.9,0.3,2.7c0.5,1.6,1.5,2.4,3,2.4c1.5,0,2.5-0.8,3-2.5C109.8,319.3,109.9,318.4,109.9,317.5z"/>
		<path d="M120.1,324.5c-1.5-1.5-2.3-3.5-2.3-6v-12.3c0-2.5,0.8-4.5,2.3-6c1.5-1.5,3.5-2.2,6-2.2c2.5,0,4.6,0.7,6.1,2.2
			c1.5,1.5,2.3,3.5,2.3,6v12.3c0,2.5-0.8,4.5-2.3,6c-1.5,1.5-3.5,2.3-6.1,2.3C123.6,326.8,121.6,326.1,120.1,324.5z M128.8,321.7
			c0.7-0.7,1-1.7,1-2.9V306c0-1.2-0.3-2.2-1-2.9c-0.7-0.7-1.6-1.1-2.7-1.1c-1.1,0-2,0.4-2.6,1.1c-0.7,0.7-1,1.7-1,2.9v12.8
			c0,1.2,0.3,2.2,1,2.9c0.7,0.7,1.5,1.1,2.6,1.1C127.2,322.8,128.1,322.4,128.8,321.7z"/>
		<path d="M151.4,321.9c0.6-0.5,1-1.3,1.1-2.2c0-0.3,0.2-0.5,0.5-0.4l3.6,0.6c0.2,0,0.3,0.1,0.3,0.2c0.1,0.1,0.1,0.2,0.1,0.4
			c-0.3,1.9-1.1,3.5-2.5,4.6c-1.4,1.1-3.2,1.7-5.3,1.7c-2.4,0-4.3-0.7-5.8-2.2c-1.5-1.5-2.2-3.4-2.2-5.9v-2.5c0-0.1-0.1-0.2-0.2-0.2
			h-2.3c-0.1,0-0.2,0-0.3-0.1c-0.1-0.1-0.1-0.2-0.1-0.3v-1.6c0-0.1,0-0.2,0.1-0.3c0.1-0.1,0.2-0.1,0.3-0.1h2.3
			c0.1,0,0.2-0.1,0.2-0.2v-1.6c0-0.1-0.1-0.2-0.2-0.2h-2.3c-0.1,0-0.2,0-0.3-0.1c-0.1-0.1-0.1-0.2-0.1-0.3v-1.6c0-0.1,0-0.2,0.1-0.3
			c0.1-0.1,0.2-0.1,0.3-0.1h2.3c0.1,0,0.2-0.1,0.2-0.2V306c0-2.4,0.7-4.4,2.2-5.8c1.5-1.5,3.4-2.2,5.8-2.2c2.2,0,4,0.6,5.4,1.7
			c1.4,1.1,2.2,2.7,2.5,4.7v0.1c0,0.2-0.1,0.4-0.4,0.4l-3.7,0.4h-0.1c-0.3,0-0.4-0.1-0.4-0.4c-0.1-0.9-0.5-1.6-1.1-2.2
			c-0.6-0.5-1.3-0.8-2.2-0.8c-1,0-1.8,0.3-2.4,1c-0.6,0.7-0.9,1.6-0.9,2.8v2.8c0,0.1,0.1,0.2,0.2,0.2h7.3c0.2,0,0.3,0.1,0.4,0.2
			c0.1,0.1,0.1,0.2,0,0.4l-0.5,1.6c-0.1,0.3-0.3,0.4-0.5,0.4h-6.7c-0.1,0-0.2,0.1-0.2,0.2v1.6c0,0.1,0.1,0.2,0.2,0.2h6
			c0.2,0,0.3,0,0.4,0.1c0.1,0.1,0.1,0.2,0,0.4l-0.5,1.6c-0.1,0.3-0.3,0.4-0.5,0.4h-5.4c-0.1,0-0.2,0.1-0.2,0.2v2.8
			c0,1.1,0.3,2,0.9,2.7c0.6,0.7,1.4,1,2.4,1C150.1,322.7,150.8,322.4,151.4,321.9z"/>
		<path d="M182.2,298.5c0.1-0.1,0.2-0.1,0.3-0.1h3.7c0.1,0,0.2,0,0.3,0.1c0.1,0.1,0.1,0.2,0.1,0.3v27c0,0.1,0,0.2-0.1,0.3
			c-0.1,0.1-0.2,0.1-0.3,0.1h-3.7c-0.1,0-0.2,0-0.3-0.1c-0.1-0.1-0.1-0.2-0.1-0.3v-11.4c0-0.1-0.1-0.2-0.2-0.2h-7.6
			c-0.1,0-0.2,0.1-0.2,0.2v11.4c0,0.1,0,0.2-0.1,0.3c-0.1,0.1-0.2,0.1-0.3,0.1h-3.7c-0.1,0-0.2,0-0.3-0.1c-0.1-0.1-0.1-0.2-0.1-0.3
			v-27c0-0.1,0-0.2,0.1-0.3c0.1-0.1,0.2-0.1,0.3-0.1h3.7c0.1,0,0.2,0,0.3,0.1c0.1,0.1,0.1,0.2,0.1,0.3v11.2c0,0.1,0.1,0.2,0.2,0.2
			h7.6c0.1,0,0.2-0.1,0.2-0.2v-11.2C182.1,298.7,182.1,298.6,182.2,298.5z"/>
		<path d="M208.4,298.5c0.1,0.1,0.1,0.2,0.1,0.3v3.1c0,0.1,0,0.2-0.1,0.3c-0.1,0.1-0.2,0.1-0.3,0.1h-6.2c-0.1,0-0.2,0.1-0.2,0.2
			v23.3c0,0.1,0,0.2-0.1,0.3c-0.1,0.1-0.2,0.1-0.3,0.1h-3.7c-0.1,0-0.2,0-0.3-0.1c-0.1-0.1-0.1-0.2-0.1-0.3v-23.3
			c0-0.1-0.1-0.2-0.2-0.2h-6c-0.1,0-0.2,0-0.3-0.1c-0.1-0.1-0.1-0.2-0.1-0.3v-3.1c0-0.1,0-0.2,0.1-0.3c0.1-0.1,0.2-0.1,0.3-0.1h17.2
			C208.2,298.4,208.3,298.4,208.4,298.5z"/>
		<path d="M231,298.5c0.1-0.1,0.2-0.1,0.3-0.1h3.7c0.1,0,0.2,0,0.3,0.1c0.1,0.1,0.1,0.2,0.1,0.3v27c0,0.1,0,0.2-0.1,0.3
			c-0.1,0.1-0.2,0.1-0.3,0.1h-3.7c-0.1,0-0.2,0-0.3-0.1c-0.1-0.1-0.1-0.2-0.1-0.3v-1c0-0.1,0-0.1-0.1-0.2c-0.1,0-0.1,0-0.2,0.1
			c-1,1.3-2.5,1.9-4.4,1.9c-3.3,0-5.3-2-6.2-6.1c-0.3-1.2-0.4-2.7-0.4-4.5c0-1.8,0.1-3.2,0.4-4.4c0.8-4.1,3-6.1,6.4-6.1
			c1.9,0,3.3,0.6,4.2,1.8c0.1,0.1,0.1,0.1,0.2,0.1c0.1,0,0.1-0.1,0.1-0.2v-8.5C230.9,298.7,230.9,298.6,231,298.5z M230.8,316.1
			c0-1.8-0.1-3.2-0.4-4.1c-0.4-1.6-1.3-2.4-2.7-2.4c-1.4,0-2.4,0.8-2.9,2.4c-0.3,1-0.5,2.4-0.5,4.2c0,1.6,0.1,3,0.4,4
			c0.5,1.7,1.5,2.6,3,2.6c1.4,0,2.3-0.8,2.8-2.5C230.7,319.2,230.8,317.9,230.8,316.1z"/>
		<path d="M255.6,315.8l0,1.7c0,0.3-0.2,0.5-0.5,0.5h-10.7c-0.1,0-0.2,0.1-0.2,0.2c0.1,0.7,0.1,1.3,0.2,1.6c0.1,0.9,0.5,1.6,1.1,2.1
			c0.6,0.5,1.4,0.8,2.3,0.8c0.8,0,1.5-0.2,2-0.6c0.5-0.4,1-0.9,1.3-1.6c0.1-0.3,0.3-0.4,0.6-0.3l3.3,0.7c0.3,0.1,0.4,0.3,0.3,0.6
			c-0.5,1.7-1.4,2.9-2.7,3.8c-1.3,0.9-2.9,1.3-4.7,1.3c-2.2,0-4-0.5-5.3-1.6c-1.3-1.1-2.2-2.5-2.6-4.4c-0.1-0.7-0.2-1.5-0.3-2.3
			s-0.1-1.9-0.1-3.2c0-1.4,0.1-2.4,0.2-3.2c0.3-1.9,1.1-3.5,2.5-4.7c1.4-1.2,3.1-1.7,5.3-1.7c2.3,0,4.2,0.7,5.6,2
			c1.4,1.3,2.2,3,2.4,5.2C255.5,313.6,255.6,314.6,255.6,315.8z M245.3,310.4c-0.6,0.5-0.9,1.2-1.1,2.1c-0.1,0.6-0.1,1.3-0.1,2
			c0,0.1,0.1,0.2,0.2,0.2h6.4c0.1,0,0.2-0.1,0.2-0.2c-0.1-0.9-0.1-1.6-0.2-2c-0.1-0.9-0.5-1.6-1-2.1c-0.6-0.5-1.3-0.8-2.2-0.8
			C246.6,309.6,245.9,309.9,245.3,310.4z"/>
		<path d="M276.8,309.3c-0.1,0.1-0.2,0.1-0.3,0.1h-3.2c-0.1,0-0.2,0.1-0.2,0.2v10c0,1,0.2,1.7,0.6,2.1c0.4,0.4,1,0.6,1.8,0.6h0.7
			c0.1,0,0.2,0,0.3,0.1c0.1,0.1,0.1,0.2,0.1,0.3v3c0,0.3-0.2,0.5-0.5,0.5h-1.7c-2,0-3.5-0.3-4.4-1c-1-0.7-1.5-2-1.5-3.9v-11.8
			c0-0.1-0.1-0.2-0.2-0.2h-1.8c-0.1,0-0.2,0-0.3-0.1c-0.1-0.1-0.1-0.2-0.1-0.3v-2.6c0-0.1,0-0.2,0.1-0.3c0.1-0.1,0.2-0.1,0.3-0.1
			h1.8c0.1,0,0.2-0.1,0.2-0.2v-4.6c0-0.1,0-0.2,0.1-0.3c0.1-0.1,0.2-0.1,0.3-0.1h3.5c0.1,0,0.2,0,0.3,0.1c0.1,0.1,0.1,0.2,0.1,0.3
			v4.6c0,0.1,0.1,0.2,0.2,0.2h3.2c0.1,0,0.2,0,0.3,0.1c0.1,0.1,0.1,0.2,0.1,0.3v2.6C276.9,309.1,276.9,309.2,276.8,309.3z"/>
		<path d="M282.5,324.9c-1.4-1.2-2.2-2.7-2.5-4.7c-0.2-1.3-0.3-2.7-0.3-4.1c0-1.5,0.1-2.9,0.3-4.2c0.3-1.9,1.1-3.5,2.6-4.6
			c1.4-1.1,3.2-1.7,5.3-1.7c2.1,0,3.9,0.6,5.2,1.7c1.4,1.1,2.2,2.7,2.5,4.6c0.2,1.3,0.3,2.7,0.3,4.2c0,1.6-0.1,3-0.3,4.1
			c-0.3,2-1.1,3.6-2.5,4.7c-1.4,1.2-3.2,1.7-5.3,1.7C285.6,326.7,283.9,326.1,282.5,324.9z M290,321.8c0.6-0.6,1-1.4,1.1-2.3
			c0.1-1.4,0.2-2.5,0.2-3.4c0-0.9-0.1-2-0.2-3.4c-0.1-1-0.5-1.7-1.1-2.3c-0.6-0.6-1.3-0.8-2.2-0.8c-0.9,0-1.7,0.3-2.2,0.8
			c-0.6,0.6-0.9,1.3-1.1,2.3c-0.1,0.9-0.2,2.1-0.2,3.4c0,1.4,0.1,2.5,0.2,3.4c0.1,1,0.5,1.7,1.1,2.3c0.6,0.6,1.3,0.9,2.2,0.9
			C288.7,322.7,289.4,322.4,290,321.8z"/>
		<path d="M324,307.4c1,1.2,1.5,2.9,1.5,5.1v13.3c0,0.1,0,0.2-0.1,0.3c-0.1,0.1-0.2,0.1-0.3,0.1h-3.6c-0.1,0-0.2,0-0.3-0.1
			c-0.1-0.1-0.1-0.2-0.1-0.3v-12.7c0-1.1-0.3-2-0.8-2.6c-0.5-0.6-1.2-1-2.1-1c-0.9,0-1.7,0.3-2.2,1c-0.5,0.6-0.8,1.5-0.8,2.6v12.7
			c0,0.1,0,0.2-0.1,0.3c-0.1,0.1-0.2,0.1-0.3,0.1h-3.7c-0.1,0-0.2,0-0.3-0.1c-0.1-0.1-0.1-0.2-0.1-0.3v-12.7c0-1.1-0.3-2-0.8-2.6
			c-0.5-0.6-1.2-1-2.1-1c-0.9,0-1.7,0.3-2.2,1c-0.5,0.6-0.8,1.5-0.8,2.6v12.7c0,0.1,0,0.2-0.1,0.3c-0.1,0.1-0.2,0.1-0.3,0.1h-3.6
			c-0.1,0-0.2,0-0.3-0.1c-0.1-0.1-0.1-0.2-0.1-0.3v-19.5c0-0.1,0-0.2,0.1-0.3c0.1-0.1,0.2-0.1,0.3-0.1h3.6c0.1,0,0.2,0,0.3,0.1
			c0.1,0.1,0.1,0.2,0.1,0.3v1c0,0.1,0,0.1,0.1,0.1c0.1,0,0.1,0,0.2-0.1c1.1-1.3,2.6-1.9,4.4-1.9c1.2,0,2.2,0.2,3,0.7
			c0.9,0.5,1.5,1.2,2,2.1c0.1,0.1,0.1,0.1,0.2,0.1c0.1,0,0.1-0.1,0.1-0.2c0.6-1,1.4-1.7,2.3-2.1c0.9-0.4,1.9-0.7,2.9-0.7
			C321.5,305.6,323,306.2,324,307.4z"/>
		<path d="M341,306.5c1.2,0.6,2.1,1.4,2.7,2.4s1,2.2,1,3.5v13.6c0,0.1,0,0.2-0.1,0.3c-0.1,0.1-0.2,0.1-0.3,0.1h-3.7
			c-0.1,0-0.2,0-0.3-0.1c-0.1-0.1-0.1-0.2-0.1-0.3v-1c0-0.1,0-0.1-0.1-0.2c-0.1,0-0.1,0-0.2,0c-1.1,1.3-2.7,1.9-4.8,1.9
			c-1.8,0-3.3-0.5-4.5-1.4c-1.2-0.9-1.8-2.5-1.8-4.6c0-2.2,0.7-3.9,2.1-5c1.4-1.1,3.4-1.6,5.9-1.6h3.2c0.1,0,0.2-0.1,0.2-0.2v-1
			c0-1-0.3-1.8-0.8-2.3c-0.5-0.6-1.3-0.9-2.3-0.9c-0.8,0-1.4,0.2-1.9,0.5c-0.5,0.4-0.8,0.8-0.9,1.5c-0.1,0.3-0.3,0.4-0.6,0.4
			l-3.9-0.2c-0.1,0-0.2,0-0.3-0.1c-0.1-0.1-0.1-0.2-0.1-0.3c0.2-1.7,1-3.1,2.4-4.2c1.4-1.1,3.2-1.6,5.3-1.6
			C338.5,305.6,339.9,305.9,341,306.5z M339,322c0.8-0.6,1.2-1.4,1.2-2.4v-2.1c0-0.1-0.1-0.2-0.2-0.2h-2.7c-1.2,0-2.1,0.3-2.8,0.8
			c-0.7,0.5-1,1.2-1,2.2c0,0.9,0.3,1.5,0.8,1.9c0.5,0.4,1.2,0.7,2,0.7C337.3,322.9,338.2,322.6,339,322z"/>
		<path d="M358.1,309.3c-0.1,0.1-0.2,0.1-0.3,0.1h-3.2c-0.1,0-0.2,0.1-0.2,0.2v10c0,1,0.2,1.7,0.6,2.1c0.4,0.4,1,0.6,1.8,0.6h0.7
			c0.1,0,0.2,0,0.3,0.1c0.1,0.1,0.1,0.2,0.1,0.3v3c0,0.3-0.2,0.5-0.5,0.5h-1.7c-2,0-3.5-0.3-4.4-1c-1-0.7-1.5-2-1.5-3.9v-11.8
			c0-0.1-0.1-0.2-0.2-0.2h-1.8c-0.1,0-0.2,0-0.3-0.1c-0.1-0.1-0.1-0.2-0.1-0.3v-2.6c0-0.1,0-0.2,0.1-0.3c0.1-0.1,0.2-0.1,0.3-0.1
			h1.8c0.1,0,0.2-0.1,0.2-0.2v-4.6c0-0.1,0-0.2,0.1-0.3c0.1-0.1,0.2-0.1,0.3-0.1h3.5c0.1,0,0.2,0,0.3,0.1c0.1,0.1,0.1,0.2,0.1,0.3
			v4.6c0,0.1,0.1,0.2,0.2,0.2h3.2c0.1,0,0.2,0,0.3,0.1c0.1,0.1,0.1,0.2,0.1,0.3v2.6C358.3,309.1,358.2,309.2,358.1,309.3z"/>
		<path d="M377.2,315.8l0,1.7c0,0.3-0.2,0.5-0.5,0.5H366c-0.1,0-0.2,0.1-0.2,0.2c0.1,0.7,0.1,1.3,0.2,1.6c0.1,0.9,0.5,1.6,1.1,2.1
			c0.6,0.5,1.4,0.8,2.3,0.8c0.8,0,1.5-0.2,2-0.6c0.5-0.4,1-0.9,1.3-1.6c0.1-0.3,0.3-0.4,0.6-0.3l3.3,0.7c0.3,0.1,0.4,0.3,0.3,0.6
			c-0.5,1.7-1.4,2.9-2.7,3.8c-1.3,0.9-2.9,1.3-4.7,1.3c-2.2,0-4-0.5-5.3-1.6c-1.3-1.1-2.2-2.5-2.6-4.4c-0.1-0.7-0.2-1.5-0.3-2.3
			s-0.1-1.9-0.1-3.2c0-1.4,0.1-2.4,0.2-3.2c0.3-1.9,1.1-3.5,2.5-4.7c1.4-1.2,3.1-1.7,5.3-1.7c2.3,0,4.2,0.7,5.6,2
			c1.4,1.3,2.2,3,2.4,5.2C377.2,313.6,377.2,314.6,377.2,315.8z M366.9,310.4c-0.6,0.5-0.9,1.2-1.1,2.1c-0.1,0.6-0.1,1.3-0.1,2
			c0,0.1,0.1,0.2,0.2,0.2h6.4c0.1,0,0.2-0.1,0.2-0.2c-0.1-0.9-0.1-1.6-0.2-2c-0.1-0.9-0.5-1.6-1-2.1c-0.6-0.5-1.3-0.8-2.2-0.8
			C368.2,309.6,367.5,309.9,366.9,310.4z"/>
		<path d="M382.1,325c-1.4-1-2.1-2.4-2.1-4.1v-0.3c0-0.1,0-0.2,0.1-0.3c0.1-0.1,0.2-0.1,0.3-0.1h3.5c0.1,0,0.2,0,0.3,0.1
			c0.1,0.1,0.1,0.2,0.1,0.3v0.1c0,0.6,0.3,1.2,0.9,1.7c0.6,0.5,1.4,0.7,2.3,0.7c0.9,0,1.6-0.2,2.1-0.6c0.5-0.4,0.8-1,0.8-1.6
			c0-0.6-0.3-1.1-0.8-1.5c-0.5-0.3-1.4-0.7-2.5-1.1l-1-0.4c-1.8-0.6-3.3-1.3-4.4-2.2c-1.1-0.9-1.6-2.2-1.6-4c0-1.9,0.7-3.3,2-4.4
			c1.3-1.1,3.1-1.6,5.3-1.6c2.3,0,4.1,0.6,5.4,1.7c1.3,1.1,2,2.6,2,4.4v0c0,0.1,0,0.2-0.1,0.3c-0.1,0.1-0.2,0.1-0.3,0.1h-3.4
			c-0.1,0-0.2,0-0.3-0.1c-0.1-0.1-0.1-0.2-0.1-0.3v-0.2c0-0.7-0.3-1.2-0.8-1.7c-0.6-0.4-1.3-0.7-2.2-0.7c-0.9,0-1.6,0.2-2.1,0.6
			c-0.5,0.4-0.8,0.9-0.8,1.6c0,0.5,0.2,0.9,0.6,1.3c0.4,0.3,0.8,0.6,1.3,0.8c0.5,0.2,1.3,0.5,2.5,0.9c1.3,0.4,2.3,0.9,3.2,1.3
			c0.9,0.5,1.6,1.1,2.2,1.9s0.9,1.8,0.9,3c0,1.8-0.7,3.3-2.1,4.3c-1.4,1.1-3.2,1.6-5.5,1.6C385.3,326.6,383.5,326.1,382.1,325z"/>
	</g>
	<g class="st16">
		<path d="M579.1,316.7c-1.6,1.3-3.6,2-6.1,2h-8.5c-0.1,0-0.2,0-0.3-0.1c-0.1-0.1-0.1-0.2-0.1-0.3v-27c0-0.1,0-0.2,0.1-0.3
			c0.1-0.1,0.2-0.1,0.3-0.1h8c2.7,0,4.8,0.6,6.3,1.9c1.5,1.3,2.3,3.2,2.3,5.7c0,2.7-1.1,4.7-3.2,5.8c-0.1,0.1-0.1,0.2,0,0.2
			c2.4,1.3,3.6,3.5,3.6,6.7C581.5,313.5,580.7,315.4,579.1,316.7z M568.7,294.9v7.4c0,0.1,0.1,0.2,0.2,0.2h3.7c1.3,0,2.2-0.3,2.9-1
			c0.7-0.7,1.1-1.6,1.1-2.9c0-1.3-0.4-2.2-1.1-2.9c-0.7-0.7-1.7-1-2.9-1h-3.7C568.7,294.7,568.7,294.8,568.7,294.9z M575.8,313.5
			c0.7-0.7,1.1-1.8,1.1-3.1c0-1.3-0.4-2.4-1.1-3.1c-0.7-0.8-1.7-1.1-2.9-1.1h-4c-0.1,0-0.2,0.1-0.2,0.2v8.1c0,0.1,0.1,0.2,0.2,0.2h4
			C574.1,314.7,575.1,314.3,575.8,313.5z"/>
		<path d="M587.6,317.3c-1.4-1.2-2.2-2.7-2.5-4.7c-0.2-1.3-0.3-2.7-0.3-4.1c0-1.5,0.1-2.9,0.3-4.2c0.3-1.9,1.1-3.5,2.6-4.6
			c1.4-1.1,3.2-1.7,5.3-1.7c2.1,0,3.9,0.6,5.2,1.7c1.4,1.1,2.2,2.7,2.5,4.6c0.2,1.3,0.3,2.7,0.3,4.2c0,1.6-0.1,3-0.3,4.1
			c-0.3,2-1.1,3.6-2.5,4.7c-1.4,1.2-3.2,1.7-5.3,1.7C590.8,319,589,318.4,587.6,317.3z M595.2,314.1c0.6-0.6,1-1.4,1.1-2.3
			c0.1-1.4,0.2-2.5,0.2-3.4c0-0.9-0.1-2-0.2-3.4c-0.1-1-0.5-1.7-1.1-2.3c-0.6-0.6-1.3-0.8-2.2-0.8c-0.9,0-1.7,0.3-2.2,0.8
			c-0.6,0.6-0.9,1.3-1.1,2.3c-0.1,0.9-0.2,2.1-0.2,3.4c0,1.4,0.1,2.5,0.2,3.4c0.1,1,0.5,1.7,1.1,2.3c0.6,0.6,1.3,0.9,2.2,0.9
			C593.8,315,594.6,314.7,595.2,314.1z"/>
		<path d="M614.2,301.6c-0.1,0.1-0.2,0.1-0.3,0.1h-3.2c-0.1,0-0.2,0.1-0.2,0.2v10c0,1,0.2,1.7,0.6,2.1c0.4,0.4,1,0.6,1.8,0.6h0.7
			c0.1,0,0.2,0,0.3,0.1c0.1,0.1,0.1,0.2,0.1,0.3v3c0,0.3-0.2,0.5-0.5,0.5h-1.7c-2,0-3.5-0.3-4.4-1c-1-0.7-1.5-2-1.5-3.9V302
			c0-0.1-0.1-0.2-0.2-0.2h-1.8c-0.1,0-0.2,0-0.3-0.1c-0.1-0.1-0.1-0.2-0.1-0.3v-2.6c0-0.1,0-0.2,0.1-0.3c0.1-0.1,0.2-0.1,0.3-0.1
			h1.8c0.1,0,0.2-0.1,0.2-0.2v-4.6c0-0.1,0-0.2,0.1-0.3c0.1-0.1,0.2-0.1,0.3-0.1h3.5c0.1,0,0.2,0,0.3,0.1c0.1,0.1,0.1,0.2,0.1,0.3
			v4.6c0,0.1,0.1,0.2,0.2,0.2h3.2c0.1,0,0.2,0,0.3,0.1c0.1,0.1,0.1,0.2,0.1,0.3v2.6C614.3,301.4,614.3,301.6,614.2,301.6z"/>
		<path d="M627.3,301.6c-0.1,0.1-0.2,0.1-0.3,0.1h-3.2c-0.1,0-0.2,0.1-0.2,0.2v10c0,1,0.2,1.7,0.6,2.1c0.4,0.4,1,0.6,1.8,0.6h0.7
			c0.1,0,0.2,0,0.3,0.1c0.1,0.1,0.1,0.2,0.1,0.3v3c0,0.3-0.2,0.5-0.5,0.5H625c-2,0-3.5-0.3-4.4-1c-1-0.7-1.5-2-1.5-3.9V302
			c0-0.1-0.1-0.2-0.2-0.2H617c-0.1,0-0.2,0-0.3-0.1c-0.1-0.1-0.1-0.2-0.1-0.3v-2.6c0-0.1,0-0.2,0.1-0.3c0.1-0.1,0.2-0.1,0.3-0.1h1.8
			c0.1,0,0.2-0.1,0.2-0.2v-4.6c0-0.1,0-0.2,0.1-0.3c0.1-0.1,0.2-0.1,0.3-0.1h3.5c0.1,0,0.2,0,0.3,0.1c0.1,0.1,0.1,0.2,0.1,0.3v4.6
			c0,0.1,0.1,0.2,0.2,0.2h3.2c0.1,0,0.2,0,0.3,0.1c0.1,0.1,0.1,0.2,0.1,0.3v2.6C627.5,301.4,627.4,301.6,627.3,301.6z"/>
		<path d="M646.4,308.1l0,1.7c0,0.3-0.2,0.5-0.5,0.5h-10.7c-0.1,0-0.2,0.1-0.2,0.2c0.1,0.7,0.1,1.3,0.2,1.6c0.1,0.9,0.5,1.6,1.1,2.1
			c0.6,0.5,1.4,0.8,2.3,0.8c0.8,0,1.5-0.2,2-0.6c0.5-0.4,1-0.9,1.3-1.6c0.1-0.3,0.3-0.4,0.6-0.3l3.3,0.7c0.3,0.1,0.4,0.3,0.3,0.6
			c-0.5,1.7-1.4,2.9-2.7,3.8c-1.3,0.9-2.9,1.3-4.7,1.3c-2.2,0-4-0.5-5.3-1.6c-1.3-1.1-2.2-2.5-2.6-4.4c-0.1-0.7-0.2-1.5-0.3-2.3
			s-0.1-1.9-0.1-3.2c0-1.4,0.1-2.4,0.2-3.2c0.3-1.9,1.1-3.5,2.5-4.7c1.4-1.2,3.1-1.7,5.3-1.7c2.3,0,4.2,0.7,5.6,2
			c1.4,1.3,2.2,3,2.4,5.2C646.3,305.9,646.4,307,646.4,308.1z M636.1,302.7c-0.6,0.5-0.9,1.2-1.1,2.1c-0.1,0.6-0.1,1.3-0.1,2
			c0,0.1,0.1,0.2,0.2,0.2h6.4c0.1,0,0.2-0.1,0.2-0.2c-0.1-0.9-0.1-1.6-0.2-2c-0.1-0.9-0.5-1.6-1-2.1c-0.6-0.5-1.3-0.8-2.2-0.8
			C637.4,301.9,636.7,302.2,636.1,302.7z"/>
		<path d="M651.3,317.4c-1.4-1-2.1-2.4-2.1-4.1V313c0-0.1,0-0.2,0.1-0.3c0.1-0.1,0.2-0.1,0.3-0.1h3.5c0.1,0,0.2,0,0.3,0.1
			c0.1,0.1,0.1,0.2,0.1,0.3v0.1c0,0.6,0.3,1.2,0.9,1.7c0.6,0.5,1.4,0.7,2.3,0.7c0.9,0,1.6-0.2,2.1-0.6c0.5-0.4,0.8-1,0.8-1.6
			c0-0.6-0.3-1.1-0.8-1.5c-0.5-0.3-1.4-0.7-2.5-1.1l-1-0.4c-1.8-0.6-3.3-1.3-4.4-2.2c-1.1-0.9-1.6-2.2-1.6-4c0-1.9,0.7-3.3,2-4.4
			c1.3-1.1,3.1-1.6,5.3-1.6c2.3,0,4.1,0.6,5.4,1.7c1.3,1.1,2,2.6,2,4.4v0c0,0.1,0,0.2-0.1,0.3c-0.1,0.1-0.2,0.1-0.3,0.1h-3.4
			c-0.1,0-0.2,0-0.3-0.1c-0.1-0.1-0.1-0.2-0.1-0.3V304c0-0.7-0.3-1.2-0.8-1.7c-0.6-0.4-1.3-0.7-2.2-0.7c-0.9,0-1.6,0.2-2.1,0.6
			c-0.5,0.4-0.8,0.9-0.8,1.6c0,0.5,0.2,0.9,0.6,1.3c0.4,0.3,0.8,0.6,1.3,0.8c0.5,0.2,1.3,0.5,2.5,0.9c1.3,0.4,2.3,0.9,3.2,1.3
			c0.9,0.5,1.6,1.1,2.2,1.9s0.9,1.8,0.9,3c0,1.8-0.7,3.3-2.1,4.3c-1.4,1.1-3.2,1.6-5.5,1.6C654.5,318.9,652.6,318.4,651.3,317.4z"/>
		<path d="M687.1,298.8c1.2,0.6,2.1,1.4,2.7,2.4s1,2.2,1,3.5v13.6c0,0.1,0,0.2-0.1,0.3c-0.1,0.1-0.2,0.1-0.3,0.1h-3.7
			c-0.1,0-0.2,0-0.3-0.1c-0.1-0.1-0.1-0.2-0.1-0.3v-1c0-0.1,0-0.1-0.1-0.2c-0.1,0-0.1,0-0.2,0c-1.1,1.3-2.7,1.9-4.8,1.9
			c-1.8,0-3.3-0.5-4.5-1.4c-1.2-0.9-1.8-2.5-1.8-4.6c0-2.2,0.7-3.9,2.1-5c1.4-1.1,3.4-1.6,5.9-1.6h3.2c0.1,0,0.2-0.1,0.2-0.2v-1
			c0-1-0.3-1.8-0.8-2.3c-0.5-0.6-1.3-0.9-2.3-0.9c-0.8,0-1.4,0.2-1.9,0.5c-0.5,0.4-0.8,0.8-0.9,1.5c-0.1,0.3-0.3,0.4-0.6,0.4
			l-3.9-0.2c-0.1,0-0.2,0-0.3-0.1c-0.1-0.1-0.1-0.2-0.1-0.3c0.2-1.7,1-3.1,2.4-4.2c1.4-1.1,3.2-1.6,5.3-1.6
			C684.6,297.9,686,298.2,687.1,298.8z M684.7,295.4c0,0.2-0.1,0.3-0.4,0.3h-2.5c-0.2,0-0.4-0.1-0.6-0.3l-2.9-4.1
			c-0.1-0.1-0.1-0.2-0.1-0.3c0-0.2,0.1-0.3,0.4-0.3h3c0.3,0,0.5,0.1,0.6,0.3l2.3,4.1C684.7,295.3,684.7,295.3,684.7,295.4z
			 M685.1,314.4c0.8-0.6,1.2-1.4,1.2-2.4v-2.1c0-0.1-0.1-0.2-0.2-0.2h-2.7c-1.2,0-2.1,0.3-2.8,0.8c-0.7,0.5-1,1.2-1,2.2
			c0,0.9,0.3,1.5,0.8,1.9c0.5,0.4,1.2,0.7,2,0.7C683.4,315.3,684.3,315,685.1,314.4z"/>
		<path d="M718.5,309.9c0,1.3-0.2,2.5-0.5,3.6c-0.4,1.7-1.3,3.1-2.6,4c-1.3,0.9-2.9,1.4-4.9,1.4c-1.8,0-3.4-0.4-4.6-1.3
			c-1.3-0.9-2.1-2.1-2.6-3.7l-0.1-0.2c-0.4-1-0.6-2.2-0.6-3.7l0-12.6c0-2.2,0.7-3.9,2.2-5.2c1.5-1.3,3.4-1.9,5.7-1.9
			c2.2,0,4.1,0.6,5.5,1.9c1.4,1.3,2.1,3,2.1,5.1v0.9c0,0.1,0,0.2-0.1,0.3c-0.1,0.1-0.2,0.1-0.3,0.1h-3.7c-0.1,0-0.2,0-0.3-0.1
			c-0.1-0.1-0.1-0.2-0.1-0.3v-0.5c0-1-0.3-1.8-0.8-2.4c-0.6-0.6-1.3-0.9-2.1-0.9c-0.9,0-1.7,0.3-2.3,0.9c-0.6,0.6-0.9,1.5-0.9,2.5
			v4.3c0,0.1,0,0.1,0.1,0.2c0.1,0,0.1,0,0.2,0c1-0.9,2.3-1.4,3.7-1.4c1.7,0,3.1,0.4,4.2,1.3c1.1,0.9,2,2.1,2.4,3.6
			C718.2,307,718.5,308.4,718.5,309.9z M713.8,309.8c0-1.1-0.2-2.1-0.5-3c-0.5-1.4-1.5-2.1-2.9-2.1c-1.4,0-2.4,0.7-2.9,2.2
			c-0.3,0.8-0.4,1.8-0.4,3c0,1,0.1,1.9,0.3,2.7c0.5,1.6,1.5,2.4,3,2.4c1.5,0,2.5-0.8,3-2.5C713.7,311.7,713.8,310.8,713.8,309.8z"/>
		<path d="M724,316.9c-1.5-1.5-2.3-3.5-2.3-6v-12.3c0-2.5,0.8-4.5,2.3-6c1.5-1.5,3.5-2.2,6-2.2c2.5,0,4.6,0.7,6.1,2.2
			c1.5,1.5,2.3,3.5,2.3,6v12.3c0,2.5-0.8,4.5-2.3,6c-1.5,1.5-3.5,2.3-6.1,2.3C727.5,319.1,725.5,318.4,724,316.9z M732.7,314
			c0.7-0.7,1-1.7,1-2.9v-12.8c0-1.2-0.3-2.2-1-2.9c-0.7-0.7-1.6-1.1-2.7-1.1c-1.1,0-2,0.4-2.6,1.1c-0.7,0.7-1,1.7-1,2.9v12.8
			c0,1.2,0.3,2.2,1,2.9c0.7,0.7,1.5,1.1,2.6,1.1C731.1,315.1,732,314.7,732.7,314z"/>
		<path d="M763.3,314.2c0.6-0.5,1-1.3,1.1-2.2c0-0.3,0.2-0.5,0.5-0.4l3.6,0.6c0.2,0,0.3,0.1,0.3,0.2c0.1,0.1,0.1,0.2,0.1,0.4
			c-0.3,1.9-1.1,3.5-2.5,4.6c-1.4,1.1-3.2,1.7-5.3,1.7c-2.4,0-4.3-0.7-5.8-2.2c-1.5-1.5-2.2-3.4-2.2-5.9v-2.5c0-0.1-0.1-0.2-0.2-0.2
			h-2.3c-0.1,0-0.2,0-0.3-0.1c-0.1-0.1-0.1-0.2-0.1-0.3v-1.6c0-0.1,0-0.2,0.1-0.3c0.1-0.1,0.2-0.1,0.3-0.1h2.3
			c0.1,0,0.2-0.1,0.2-0.2v-1.6c0-0.1-0.1-0.2-0.2-0.2h-2.3c-0.1,0-0.2,0-0.3-0.1c-0.1-0.1-0.1-0.2-0.1-0.3v-1.6c0-0.1,0-0.2,0.1-0.3
			c0.1-0.1,0.2-0.1,0.3-0.1h2.3c0.1,0,0.2-0.1,0.2-0.2v-2.6c0-2.4,0.7-4.4,2.2-5.8c1.5-1.5,3.4-2.2,5.8-2.2c2.2,0,4,0.6,5.4,1.7
			c1.4,1.1,2.2,2.7,2.5,4.7v0.1c0,0.2-0.1,0.4-0.4,0.4l-3.7,0.4h-0.1c-0.3,0-0.4-0.1-0.4-0.4c-0.1-0.9-0.5-1.6-1.1-2.2
			c-0.6-0.5-1.3-0.8-2.2-0.8c-1,0-1.8,0.3-2.4,1c-0.6,0.7-0.9,1.6-0.9,2.8v2.8c0,0.1,0.1,0.2,0.2,0.2h7.3c0.2,0,0.3,0.1,0.4,0.2
			c0.1,0.1,0.1,0.2,0,0.4l-0.5,1.6c-0.1,0.3-0.3,0.4-0.5,0.4h-6.7c-0.1,0-0.2,0.1-0.2,0.2v1.6c0,0.1,0.1,0.2,0.2,0.2h6
			c0.2,0,0.3,0,0.4,0.1c0.1,0.1,0.1,0.2,0,0.4l-0.5,1.6c-0.1,0.3-0.3,0.4-0.5,0.4h-5.4c-0.1,0-0.2,0.1-0.2,0.2v2.8
			c0,1.1,0.3,2,0.9,2.7c0.6,0.7,1.4,1,2.4,1C761.9,315,762.7,314.8,763.3,314.2z"/>
	</g>
	<g>
		<path class="st21" d="M500.9,418.3c0.1,0.1,0.1,0.1,0.1,0.2v2.1c0,0.1,0,0.2-0.1,0.2c-0.1,0.1-0.1,0.1-0.2,0.1h-4.2
			c-0.1,0-0.1,0-0.1,0.1V437c0,0.1,0,0.2-0.1,0.2c-0.1,0.1-0.1,0.1-0.2,0.1h-2.5c-0.1,0-0.2,0-0.2-0.1c-0.1-0.1-0.1-0.1-0.1-0.2
			v-15.9c0-0.1,0-0.1-0.1-0.1h-4.1c-0.1,0-0.2,0-0.2-0.1c-0.1-0.1-0.1-0.1-0.1-0.2v-2.1c0-0.1,0-0.2,0.1-0.2
			c0.1-0.1,0.1-0.1,0.2-0.1h11.7C500.7,418.2,500.8,418.2,500.9,418.3z"/>
		<path class="st21" d="M510.1,423.7c0.8,0.4,1.4,0.9,1.9,1.6c0.4,0.7,0.7,1.5,0.7,2.4v9.2c0,0.1,0,0.2-0.1,0.2
			c-0.1,0.1-0.1,0.1-0.2,0.1h-2.5c-0.1,0-0.2,0-0.2-0.1c-0.1-0.1-0.1-0.1-0.1-0.2v-0.7c0-0.1,0-0.1-0.1-0.1c0,0-0.1,0-0.1,0
			c-0.8,0.9-1.9,1.3-3.3,1.3c-1.2,0-2.2-0.3-3.1-1c-0.8-0.6-1.3-1.7-1.3-3.1c0-1.5,0.5-2.7,1.5-3.4c1-0.7,2.3-1.1,4-1.1h2.2
			c0.1,0,0.1,0,0.1-0.1V428c0-0.7-0.2-1.2-0.6-1.6c-0.4-0.4-0.9-0.6-1.5-0.6c-0.5,0-1,0.1-1.3,0.4c-0.3,0.2-0.5,0.6-0.6,1
			c-0.1,0.2-0.2,0.3-0.4,0.3l-2.6-0.2c-0.1,0-0.2,0-0.2-0.1c-0.1-0.1-0.1-0.1-0.1-0.2c0.1-1.2,0.6-2.1,1.6-2.8
			c1-0.7,2.2-1.1,3.6-1.1C508.4,423.1,509.3,423.3,510.1,423.7z M508.7,434.3c0.5-0.4,0.8-0.9,0.8-1.6v-1.4c0-0.1,0-0.1-0.1-0.1
			h-1.8c-0.8,0-1.4,0.2-1.9,0.5c-0.5,0.3-0.7,0.8-0.7,1.5c0,0.6,0.2,1,0.5,1.3c0.4,0.3,0.8,0.5,1.4,0.5
			C507.6,434.9,508.2,434.7,508.7,434.3z"/>
		<path class="st21" d="M514.5,437.2c-0.1-0.1,0-0.2,0-0.3l3.8-6.5c0-0.1,0-0.1,0-0.2l-3.8-6.5l-0.1-0.2c0-0.1,0.1-0.2,0.3-0.2h2.7
			c0.2,0,0.3,0.1,0.4,0.2l2.3,4c0.1,0.1,0.1,0.1,0.2,0l2.2-4c0.1-0.1,0.2-0.2,0.4-0.2h2.8c0.1,0,0.2,0,0.3,0.1c0.1,0.1,0,0.2,0,0.3
			l-3.8,6.5c0,0.1,0,0.1,0,0.2l3.8,6.5l0.1,0.2c0,0.1-0.1,0.2-0.3,0.2h-2.7c-0.2,0-0.3-0.1-0.4-0.2l-2.3-4c-0.1-0.1-0.1-0.1-0.2,0
			l-2.3,4c-0.1,0.1-0.2,0.2-0.4,0.2h-2.8C514.6,437.3,514.6,437.2,514.5,437.2z"/>
		<path class="st21" d="M538.1,430.1l0,1.2c0,0.2-0.1,0.3-0.3,0.3h-7.3c-0.1,0-0.1,0-0.1,0.1c0,0.5,0.1,0.9,0.1,1.1
			c0.1,0.6,0.3,1.1,0.8,1.4c0.4,0.4,0.9,0.5,1.6,0.5c0.5,0,1-0.2,1.4-0.4s0.7-0.6,0.9-1.1c0.1-0.2,0.2-0.3,0.4-0.2l2.2,0.5
			c0.2,0.1,0.3,0.2,0.2,0.4c-0.4,1.1-1,2-1.9,2.6c-0.9,0.6-2,0.9-3.2,0.9c-1.5,0-2.7-0.4-3.6-1.1c-0.9-0.7-1.5-1.7-1.8-3
			c-0.1-0.5-0.2-1-0.2-1.6s0-1.3,0-2.2c0-0.9,0-1.7,0.1-2.2c0.2-1.3,0.7-2.4,1.7-3.2c0.9-0.8,2.1-1.2,3.6-1.2c1.6,0,2.9,0.4,3.8,1.3
			s1.5,2.1,1.6,3.5C538.1,428.6,538.1,429.3,538.1,430.1z M531.1,426.4c-0.4,0.4-0.6,0.8-0.7,1.4c-0.1,0.4-0.1,0.9-0.1,1.4
			c0,0.1,0,0.1,0.1,0.1h4.3c0.1,0,0.1,0,0.1-0.1c0-0.6-0.1-1.1-0.1-1.3c-0.1-0.6-0.3-1.1-0.7-1.4c-0.4-0.4-0.9-0.5-1.5-0.5
			S531.5,426,531.1,426.4z"/>
		<path class="st21" d="M541.4,436.4c-0.9-0.7-1.4-1.6-1.4-2.8v-0.2c0-0.1,0-0.2,0.1-0.2c0.1-0.1,0.1-0.1,0.2-0.1h2.4
			c0.1,0,0.2,0,0.2,0.1c0.1,0.1,0.1,0.1,0.1,0.2v0.1c0,0.4,0.2,0.8,0.6,1.1c0.4,0.3,0.9,0.5,1.6,0.5c0.6,0,1.1-0.1,1.5-0.4
			c0.4-0.3,0.6-0.7,0.6-1.1s-0.2-0.8-0.6-1s-0.9-0.5-1.7-0.8l-0.7-0.2c-1.2-0.4-2.2-0.9-3-1.5c-0.7-0.6-1.1-1.5-1.1-2.7
			c0-1.3,0.5-2.3,1.4-3c0.9-0.7,2.1-1.1,3.6-1.1c1.5,0,2.8,0.4,3.7,1.1c0.9,0.8,1.4,1.8,1.4,3v0c0,0.1,0,0.2-0.1,0.2
			c-0.1,0.1-0.1,0.1-0.2,0.1h-2.3c-0.1,0-0.2,0-0.2-0.1c-0.1-0.1-0.1-0.1-0.1-0.2v-0.1c0-0.5-0.2-0.8-0.6-1.1
			c-0.4-0.3-0.9-0.5-1.5-0.5c-0.6,0-1.1,0.1-1.4,0.4c-0.4,0.3-0.5,0.6-0.5,1.1c0,0.3,0.1,0.6,0.4,0.9c0.3,0.2,0.5,0.4,0.9,0.5
			c0.3,0.1,0.9,0.3,1.7,0.6c0.9,0.3,1.6,0.6,2.2,0.9c0.6,0.3,1.1,0.7,1.5,1.3s0.6,1.2,0.6,2.1c0,1.3-0.5,2.2-1.4,3
			c-0.9,0.7-2.2,1.1-3.8,1.1S542.4,437.1,541.4,436.4z"/>
	</g>
</g>
</svg>
