<?xml version="1.0" encoding="utf-8"?>
<!-- Generator: Adobe Illustrator 23.0.3, SVG Export Plug-In . SVG Version: 6.00 Build 0)  -->
<svg version="1.1" id="Layer_1" xmlns="http://www.w3.org/2000/svg" xmlns:xlink="http://www.w3.org/1999/xlink" x="0px" y="0px"
	 viewBox="0 0 600 400" style="enable-background:new 0 0 600 400;" xml:space="preserve">
<style type="text/css">
	.st0{fill:#F63900;}
	.st1{fill:#4C4645;}
	.st2{fill:#4C54E5;}
	.st3{fill:#E5E5E5;}
	.st4{fill:#DDDDDD;}
	.st5{fill:#EFEFEF;}
	.st6{fill:#DAFF46;enable-background:new    ;}
	.st7{fill:#4C4645;enable-background:new    ;}
	.st8{fill:#E5E5E5;enable-background:new    ;}
</style>
<g>
	<g>
		
			<rect x="341.2" y="260.5" transform="matrix(0.9197 0.3925 -0.3925 0.9197 130.2496 -113.5346)" class="st0" width="3" height="2.4"/>
		
			<rect x="344" y="261.7" transform="matrix(0.9197 0.3925 -0.3925 0.9197 130.9395 -114.5322)" class="st1" width="3" height="2.4"/>
		
			<rect x="342.6" y="257.3" transform="matrix(0.9197 0.3925 -0.3925 0.9197 129.0814 -114.3426)" class="st0" width="3" height="2.4"/>
		
			<rect x="345.4" y="258.5" transform="matrix(0.9197 0.3925 -0.3925 0.9197 129.7713 -115.3401)" class="st1" width="3" height="2.4"/>
		
			<rect x="372.1" y="269.9" transform="matrix(-0.9197 -0.3925 0.3925 -0.9197 610.8322 666.9997)" class="st0" width="3" height="2.4"/>
		
			<rect x="369.3" y="268.7" transform="matrix(-0.9197 -0.3925 0.3925 -0.9197 605.9533 663.6255)" class="st1" width="3" height="2.4"/>
		
			<rect x="370.7" y="273.1" transform="matrix(-0.9197 -0.3925 0.3925 -0.9197 606.8807 672.7134)" class="st0" width="3" height="2.4"/>
		
			<rect x="367.9" y="271.9" transform="matrix(-0.9197 -0.3925 0.3925 -0.9197 602.0018 669.3392)" class="st1" width="3" height="2.4"/>
		<circle class="st0" cx="332.7" cy="255.5" r="11.8"/>
		<circle class="st0" cx="383.4" cy="277.8" r="11.8"/>
		<circle class="st1" cx="358.2" cy="266.4" r="13.2"/>
	</g>
	<g>
		
			<rect x="237.8" y="280.9" transform="matrix(0.9197 0.3925 -0.3925 0.9197 129.8015 -71.1939)" class="st0" width="2.4" height="1.9"/>
		
			<rect x="240" y="281.8" transform="matrix(0.9197 0.3925 -0.3925 0.9197 130.3411 -71.9741)" class="st1" width="2.4" height="1.9"/>
		
			<rect x="238.9" y="278.3" transform="matrix(0.9197 0.3925 -0.3925 0.9197 128.8878 -71.8258)" class="st0" width="2.4" height="1.9"/>
		
			<rect x="241.1" y="279.3" transform="matrix(0.9197 0.3925 -0.3925 0.9197 129.4274 -72.606)" class="st1" width="2.4" height="1.9"/>
		
			<rect x="261.9" y="288.2" transform="matrix(-0.9197 -0.3925 0.3925 -0.9197 391.6472 658.2759)" class="st0" width="2.4" height="1.9"/>
		
			<rect x="259.8" y="287.2" transform="matrix(-0.9197 -0.3925 0.3925 -0.9197 387.8315 655.637)" class="st1" width="2.4" height="1.9"/>
		
			<rect x="260.8" y="290.7" transform="matrix(-0.9197 -0.3925 0.3925 -0.9197 388.5568 662.7446)" class="st0" width="2.4" height="1.9"/>
		
			<rect x="258.7" y="289.8" transform="matrix(-0.9197 -0.3925 0.3925 -0.9197 384.7409 660.1057)" class="st1" width="2.4" height="1.9"/>
		<circle class="st0" cx="231.1" cy="276.9" r="9.2"/>
		<circle class="st0" cx="270.8" cy="294.3" r="9.2"/>
		<circle class="st1" cx="251.1" cy="285.5" r="10.3"/>
	</g>
	<g>
		
			<rect x="388.3" y="205.8" transform="matrix(0.9265 -0.3763 0.3763 0.9265 -49.2546 161.8821)" class="st0" width="3" height="2.4"/>
		
			<rect x="391.1" y="204.7" transform="matrix(0.9265 -0.3763 0.3763 0.9265 -48.6199 162.8538)" class="st1" width="3" height="2.4"/>
		
			<rect x="386.9" y="202.6" transform="matrix(0.9265 -0.3763 0.3763 0.9265 -48.1166 161.1388)" class="st0" width="3" height="2.4"/>
		
			<rect x="389.8" y="201.4" transform="matrix(0.9265 -0.3763 0.3763 0.9265 -47.4819 162.1104)" class="st1" width="3" height="2.4"/>
		
			<rect x="416.6" y="190.5" transform="matrix(-0.9265 0.3763 -0.3763 -0.9265 877.681 211.9881)" class="st0" width="3" height="2.4"/>
		
			<rect x="413.8" y="191.6" transform="matrix(-0.9265 0.3763 -0.3763 -0.9265 872.7059 215.2379)" class="st1" width="3" height="2.4"/>
		
			<rect x="418" y="193.8" transform="matrix(-0.9265 0.3763 -0.3763 -0.9265 881.4869 217.8144)" class="st0" width="3" height="2.4"/>
		
			<rect x="415.2" y="194.9" transform="matrix(-0.9265 0.3763 -0.3763 -0.9265 876.5118 221.0642)" class="st1" width="3" height="2.4"/>
		<circle class="st0" cx="378.3" cy="209.8" r="11.8"/>
		<circle class="st0" cx="429.8" cy="189.5" r="11.8"/>
		<circle class="st1" cx="404" cy="199.3" r="13.2"/>
	</g>
	<g>
		<rect x="231" y="361.2" transform="matrix(0.9783 -0.207 0.207 0.9783 -69.9513 55.9232)" class="st0" width="2.4" height="1.9"/>
		
			<rect x="233.4" y="360.7" transform="matrix(0.9783 -0.207 0.207 0.9783 -69.7984 56.3957)" class="st1" width="2.4" height="1.9"/>
		
			<rect x="230.4" y="358.5" transform="matrix(0.9783 -0.207 0.207 0.9783 -69.3979 55.7442)" class="st0" width="2.4" height="1.9"/>
		<rect x="232.8" y="358" transform="matrix(0.9783 -0.207 0.207 0.9783 -69.245 56.2167)" class="st1" width="2.4" height="1.9"/>
		
			<rect x="255.1" y="353.3" transform="matrix(-0.9783 0.207 -0.207 -0.9783 580.4173 647.672)" class="st0" width="2.4" height="1.9"/>
		
			<rect x="252.8" y="353.8" transform="matrix(-0.9783 0.207 -0.207 -0.9783 575.902 649.1324)" class="st1" width="2.4" height="1.9"/>
		
			<rect x="255.7" y="356" transform="matrix(-0.9783 0.207 -0.207 -0.9783 582.1276 652.9599)" class="st0" width="2.4" height="1.9"/>
		
			<rect x="253.4" y="356.5" transform="matrix(-0.9783 0.207 -0.207 -0.9783 577.6124 654.4203)" class="st1" width="2.4" height="1.9"/>
		<circle class="st0" cx="222.9" cy="362.7" r="9.3"/>
		<circle class="st0" cx="265.7" cy="354.1" r="9.3"/>
		<circle class="st1" cx="244.3" cy="358.2" r="10.4"/>
	</g>
	<g>
		
			<rect x="207.4" y="211.7" transform="matrix(0.9997 -2.344294e-02 2.344294e-02 0.9997 -4.9281 4.9489)" class="st0" width="2.5" height="2"/>
		
			<rect x="209.9" y="211.6" transform="matrix(0.9997 -2.344294e-02 2.344294e-02 0.9997 -4.926 5.0076)" class="st1" width="2.5" height="2"/>
		
			<rect x="207.3" y="208.7" transform="matrix(0.9997 -2.344294e-02 2.344294e-02 0.9997 -4.8594 4.9465)" class="st0" width="2.5" height="2"/>
		
			<rect x="209.8" y="208.7" transform="matrix(0.9997 -2.344294e-02 2.344294e-02 0.9997 -4.8573 5.0051)" class="st1" width="2.5" height="2"/>
		
			<rect x="233.7" y="208.1" transform="matrix(-0.9997 2.344294e-02 -2.344294e-02 -0.9997 474.8474 412.6545)" class="st0" width="2.5" height="2"/>
		
			<rect x="231.3" y="208.2" transform="matrix(-0.9997 2.344294e-02 -2.344294e-02 -0.9997 469.8464 412.8305)" class="st1" width="2.5" height="2"/>
		
			<rect x="233.8" y="211.1" transform="matrix(-0.9997 2.344294e-02 -2.344294e-02 -0.9997 475.0535 418.5113)" class="st0" width="2.5" height="2"/>
		
			<rect x="231.3" y="211.1" transform="matrix(-0.9997 2.344294e-02 -2.344294e-02 -0.9997 470.0525 418.6872)" class="st1" width="2.5" height="2"/>
		<circle class="st0" cx="198.9" cy="211.4" r="9.7"/>
		<circle class="st0" cx="244.7" cy="210.8" r="9.7"/>
		<circle class="st1" cx="221.9" cy="210.9" r="10.9"/>
	</g>
	<g>
		
			<rect x="147.2" y="93.6" transform="matrix(0.9912 0.1324 -0.1324 0.9912 13.8278 -18.8244)" class="st0" width="2.5" height="2"/>
		
			<rect x="149.7" y="93.9" transform="matrix(0.9912 0.1324 -0.1324 0.9912 13.8935 -19.1498)" class="st1" width="2.5" height="2"/>
		
			<rect x="147.6" y="90.7" transform="matrix(0.9912 0.1324 -0.1324 0.9912 13.4468 -18.9014)" class="st0" width="2.5" height="2"/>
		<rect x="150.1" y="91" transform="matrix(0.9912 0.1324 -0.1324 0.9912 13.5124 -19.2267)" class="st1" width="2.5" height="2"/>
		
			<rect x="173.9" y="94.2" transform="matrix(-0.9912 -0.1324 0.1324 -0.9912 336.0984 212.721)" class="st0" width="2.5" height="2"/>
		
			<rect x="171.4" y="93.9" transform="matrix(-0.9912 -0.1324 0.1324 -0.9912 331.2036 211.7331)" class="st1" width="2.5" height="2"/>
		
			<rect x="173.5" y="97.1" transform="matrix(-0.9912 -0.1324 0.1324 -0.9912 334.9415 218.4532)" class="st0" width="2.5" height="2"/>
		
			<rect x="171" y="96.8" transform="matrix(-0.9912 -0.1324 0.1324 -0.9912 330.0468 217.4654)" class="st1" width="2.5" height="2"/>
		<circle class="st0" cx="139.1" cy="91.9" r="9.7"/>
		<circle class="st0" cx="184.4" cy="98.4" r="9.7"/>
		<circle class="st1" cx="161.9" cy="94.9" r="10.9"/>
	</g>
	<g>
		
			<rect x="208.2" y="39.6" transform="matrix(0.9997 -2.344294e-02 2.344294e-02 0.9997 -0.899 4.9276)" class="st0" width="3.1" height="2.4"/>
		
			<rect x="211.3" y="39.5" transform="matrix(0.9997 -2.344294e-02 2.344294e-02 0.9997 -0.8965 4.9996)" class="st1" width="3.1" height="2.4"/>
		
			<rect x="208.1" y="36" transform="matrix(0.9997 -2.344294e-02 2.344294e-02 0.9997 -0.8146 4.9246)" class="st0" width="3.1" height="2.4"/>
		
			<rect x="211.2" y="35.9" transform="matrix(0.9997 -2.344294e-02 2.344294e-02 0.9997 -0.8121 4.9966)" class="st1" width="3.1" height="2.4"/>
		
			<rect x="240.6" y="35.2" transform="matrix(-0.9997 2.344294e-02 -2.344294e-02 -0.9997 485.0886 67.2011)" class="st0" width="3.1" height="2.4"/>
		
			<rect x="237.5" y="35.3" transform="matrix(-0.9997 2.344294e-02 -2.344294e-02 -0.9997 478.9426 67.4174)" class="st1" width="3.1" height="2.4"/>
		
			<rect x="240.7" y="38.8" transform="matrix(-0.9997 2.344294e-02 -2.344294e-02 -0.9997 485.3418 74.3988)" class="st0" width="3.1" height="2.4"/>
		
			<rect x="237.6" y="38.9" transform="matrix(-0.9997 2.344294e-02 -2.344294e-02 -0.9997 479.1958 74.615)" class="st1" width="3.1" height="2.4"/>
		<circle class="st0" cx="197.8" cy="39.3" r="12"/>
		<circle class="st0" cx="254" cy="38.5" r="12"/>
		<circle class="st1" cx="226" cy="38.6" r="13.4"/>
	</g>
	<g>
		<polygon class="st0" points="556.3,299.5 553.9,299.3 554.1,297.2 556.5,297.5 		"/>
		<polygon class="st1" points="556.3,299.5 558.7,299.8 558.9,297.7 556.5,297.5 		"/>
		<polygon class="st0" points="556.6,296.5 554.1,296.3 554.3,294.2 556.8,294.5 		"/>
		<polygon class="st1" points="556.6,296.5 559,296.8 559.2,294.8 556.8,294.5 		"/>
		<polygon class="st0" points="580.1,296.9 582.6,297.2 582.4,299.2 579.9,298.9 		"/>
		<polygon class="st1" points="580.1,296.9 577.7,296.7 577.5,298.7 579.9,298.9 		"/>
		<polygon class="st0" points="579.9,299.9 582.3,300.2 582.1,302.2 579.7,301.9 		"/>
		<polygon class="st1" points="579.9,299.9 577.4,299.7 577.2,301.7 579.7,301.9 		"/>
		<ellipse class="st0" cx="545.9" cy="295.9" rx="9.5" ry="10"/>
		<ellipse class="st0" cx="590.5" cy="301" rx="9.5" ry="10"/>
		<ellipse class="st1" cx="568.3" cy="298.2" rx="10.7" ry="11.2"/>
	</g>
	<g>
		
			<rect x="488" y="218.5" transform="matrix(-0.4476 0.8942 -0.8942 -0.4476 904.8315 -119.6176)" class="st0" width="2.8" height="2.2"/>
		
			<rect x="486.7" y="221" transform="matrix(-0.4476 0.8942 -0.8942 -0.4476 905.2571 -114.8586)" class="st1" width="2.8" height="2.2"/>
		
			<rect x="490.9" y="220" transform="matrix(-0.4476 0.8942 -0.8942 -0.4476 910.4047 -120.116)" class="st0" width="2.8" height="2.2"/>
		
			<rect x="489.6" y="222.5" transform="matrix(-0.4476 0.8942 -0.8942 -0.4476 910.8303 -115.357)" class="st1" width="2.8" height="2.2"/>
		
			<rect x="477.6" y="246.6" transform="matrix(0.4476 -0.8942 0.8942 0.4476 43.1004 565.136)" class="st0" width="2.8" height="2.2"/>
		
			<rect x="478.9" y="244.1" transform="matrix(0.4476 -0.8942 0.8942 0.4476 46.04 564.8731)" class="st1" width="2.8" height="2.2"/>
		
			<rect x="474.7" y="245.1" transform="matrix(0.4476 -0.8942 0.8942 0.4476 42.7925 561.6935)" class="st0" width="2.8" height="2.2"/>
		
			<rect x="475.9" y="242.6" transform="matrix(0.4476 -0.8942 0.8942 0.4476 45.7321 561.4305)" class="st1" width="2.8" height="2.2"/>
		<circle class="st0" cx="495.7" cy="210.7" r="10.9"/>
		<circle class="st0" cx="472.2" cy="256.4" r="10.9"/>
		<circle class="st1" cx="484.2" cy="233.7" r="12.2"/>
	</g>
	<g>
		<polygon class="st0" points="507.9,98.4 509.5,96 511.4,97.3 509.7,99.7 		"/>
		<polygon class="st1" points="507.9,98.4 506.2,100.7 508.1,102.1 509.7,99.7 		"/>
		<polygon class="st0" points="510.7,100.4 512.3,98 514.2,99.3 512.6,101.7 		"/>
		<polygon class="st1" points="510.7,100.4 509,102.7 510.9,104.1 512.6,101.7 		"/>
		<polygon class="st0" points="496.8,124.5 495.1,126.9 493.2,125.6 494.9,123.2 		"/>
		<polygon class="st1" points="496.8,124.5 498.4,122.2 496.5,120.8 494.9,123.2 		"/>
		<polygon class="st0" points="494,122.5 492.3,124.9 490.4,123.6 492.1,121.2 		"/>
		<polygon class="st1" points="494,122.5 495.6,120.2 493.7,118.8 492.1,121.2 		"/>
		
			<ellipse transform="matrix(0.831 -0.5562 0.5562 0.831 37.5859 302.9435)" class="st0" cx="517.4" cy="89.6" rx="11.3" ry="11.5"/>
		
			<ellipse transform="matrix(0.831 -0.5562 0.5562 0.831 8.3279 293.2498)" class="st0" cx="486.8" cy="132.9" rx="11.3" ry="11.5"/>
		
			<ellipse transform="matrix(0.831 -0.5562 0.5562 0.831 22.8527 298.2268)" class="st1" cx="502.3" cy="111.5" rx="12.6" ry="12.8"/>
	</g>
	<g>
		<polygon class="st0" points="468.4,381.7 465.5,381.9 465.4,379.6 468.3,379.4 		"/>
		<polygon class="st1" points="468.4,381.7 471.3,381.6 471.2,379.2 468.3,379.4 		"/>
		<polygon class="st0" points="468.3,378.3 465.3,378.5 465.2,376.2 468.1,376 		"/>
		<polygon class="st1" points="468.3,378.3 471.1,378.1 471,375.8 468.1,376 		"/>
		<polygon class="st0" points="495.8,374.2 498.7,374.1 498.9,376.4 496,376.6 		"/>
		<polygon class="st1" points="495.8,374.2 493,374.4 493.1,376.7 496,376.6 		"/>
		<polygon class="st0" points="496,377.7 498.9,377.5 499,379.8 496.1,380 		"/>
		<polygon class="st1" points="496,377.7 493.1,377.9 493.2,380.2 496.1,380 		"/>
		
			<ellipse transform="matrix(0.3084 -0.9513 0.9513 0.3084 -46.0375 695.9893)" class="st0" cx="455.6" cy="379.7" rx="11.5" ry="11.3"/>
		
			<ellipse transform="matrix(0.3084 -0.9513 0.9513 0.3084 -6.7726 744.4279)" class="st0" cx="508.6" cy="376.9" rx="11.5" ry="11.3"/>
		
			<ellipse transform="matrix(0.3084 -0.9513 0.9513 0.3084 -26.0854 720.1004)" class="st1" cx="482.2" cy="378" rx="12.8" ry="12.6"/>
	</g>
	<g>
		<polygon class="st0" points="443.4,323.3 440.6,324 440,321.8 442.8,321.1 		"/>
		<polygon class="st1" points="443.4,323.3 446.2,322.6 445.6,320.3 442.8,321.1 		"/>
		<polygon class="st0" points="442.5,320 439.7,320.7 439.2,318.4 442,317.7 		"/>
		<polygon class="st1" points="442.5,320 445.3,319.2 444.8,317 442,317.7 		"/>
		<polygon class="st0" points="468.8,310.7 471.6,309.9 472.2,312.2 469.4,312.9 		"/>
		<polygon class="st1" points="468.8,310.7 466,311.4 466.6,313.7 469.4,312.9 		"/>
		<polygon class="st0" points="469.7,314 472.5,313.3 473,315.5 470.2,316.3 		"/>
		<polygon class="st1" points="469.7,314 466.9,314.8 467.4,317 470.2,316.3 		"/>
		
			<ellipse transform="matrix(0.1198 -0.9928 0.9928 0.1198 57.4601 712.2454)" class="st0" cx="430.4" cy="323.7" rx="11.5" ry="11.3"/>
		
			<ellipse transform="matrix(0.1198 -0.9928 0.9928 0.1198 115.5374 751.9355)" class="st0" cx="481.8" cy="310.8" rx="11.5" ry="11.3"/>
		
			<ellipse transform="matrix(0.1198 -0.9928 0.9928 0.1198 86.8093 731.8704)" class="st1" cx="456.2" cy="317" rx="12.8" ry="12.6"/>
	</g>
	<g>
		<polygon class="st0" points="126.7,25.4 127.7,23.8 128.9,24.7 127.9,26.2 		"/>
		<polygon class="st1" points="126.7,25.4 125.6,26.9 126.8,27.7 127.9,26.2 		"/>
		<polygon class="st0" points="128.4,26.6 129.5,25.1 130.7,26 129.6,27.5 		"/>
		<polygon class="st1" points="128.4,26.6 127.4,28.1 128.6,29 129.6,27.5 		"/>
		<polygon class="st0" points="119.6,42.1 118.5,43.6 117.3,42.7 118.4,41.2 		"/>
		<polygon class="st1" points="119.6,42.1 120.6,40.5 119.4,39.7 118.4,41.2 		"/>
		<polygon class="st0" points="117.8,40.8 116.7,42.3 115.5,41.5 116.6,39.9 		"/>
		<polygon class="st1" points="117.8,40.8 118.8,39.3 117.6,38.4 116.6,39.9 		"/>
		<ellipse transform="matrix(0.831 -0.5562 0.5562 0.831 11.427 77.1794)" class="st0" cx="132.7" cy="19.8" rx="7.2" ry="7.3"/>
		<ellipse transform="matrix(0.831 -0.5562 0.5562 0.831 -7.2318 70.9974)" class="st0" cx="113.2" cy="47.4" rx="7.2" ry="7.3"/>
		<ellipse transform="matrix(0.831 -0.5562 0.5562 0.831 2.0312 74.1714)" class="st1" cx="123.1" cy="33.7" rx="8" ry="8.2"/>
	</g>
	<g>
		<polygon class="st0" points="64.9,137.4 66.9,137.3 66.9,138.9 64.9,139.1 		"/>
		<polygon class="st1" points="64.9,137.4 62.9,137.6 62.9,139.2 64.9,139.1 		"/>
		<polygon class="st0" points="65,139.8 67,139.7 67.1,141.3 65.1,141.4 		"/>
		<polygon class="st1" points="65,139.8 63,139.9 63.1,141.5 65.1,141.4 		"/>
		<polygon class="st0" points="45.9,142.6 43.9,142.7 43.8,141.1 45.8,141 		"/>
		<polygon class="st1" points="45.9,142.6 47.9,142.5 47.8,140.9 45.8,141 		"/>
		<polygon class="st0" points="45.8,140.2 43.8,140.3 43.7,138.7 45.7,138.6 		"/>
		<polygon class="st1" points="45.8,140.2 47.8,140.1 47.7,138.5 45.7,138.6 		"/>
		
			<ellipse transform="matrix(0.3098 -0.9508 0.9508 0.3098 -81.206 165.9307)" class="st0" cx="73.7" cy="138.9" rx="7.9" ry="7.8"/>
		
			<ellipse transform="matrix(0.3098 -0.9508 0.9508 0.3098 -108.229 132.4406)" class="st0" cx="37.1" cy="140.8" rx="7.9" ry="7.8"/>
		<ellipse transform="matrix(0.3098 -0.9508 0.9508 0.3098 -94.9383 149.2598)" class="st1" cx="55.3" cy="140" rx="8.8" ry="8.7"/>
	</g>
	<g>
		
			<rect x="490" y="15.4" transform="matrix(0.9731 0.2303 -0.2303 0.9731 17.0116 -112.7448)" class="st0" width="2.9" height="2.3"/>
		
			<rect x="492.8" y="16" transform="matrix(0.9731 0.2303 -0.2303 0.9731 17.2379 -113.3676)" class="st1" width="2.8" height="2.3"/>
		
			<rect x="490.8" y="12.1" transform="matrix(0.9731 0.2303 -0.2303 0.9731 16.2823 -113.0099)" class="st0" width="2.9" height="2.3"/>
		
			<rect x="493.6" y="12.8" transform="matrix(0.9731 0.2303 -0.2303 0.9731 16.5086 -113.6326)" class="st1" width="2.8" height="2.3"/>
		
			<rect x="520.2" y="19.1" transform="matrix(-0.9731 -0.2303 0.2303 -0.9731 1024.6442 160.0083)" class="st0" width="2.9" height="2.3"/>
		
			<rect x="517.5" y="18.4" transform="matrix(-0.9731 -0.2303 0.2303 -0.9731 1019.3088 158.0693)" class="st1" width="2.8" height="2.3"/>
		
			<rect x="519.5" y="22.3" transform="matrix(-0.9731 -0.2303 0.2303 -0.9731 1022.3734 166.2564)" class="st0" width="2.9" height="2.3"/>
		
			<rect x="516.7" y="21.7" transform="matrix(-0.9731 -0.2303 0.2303 -0.9731 1017.0381 164.3175)" class="st1" width="2.8" height="2.3"/>
		<circle class="st0" cx="481.1" cy="12.3" r="11.1"/>
		<circle class="st0" cx="531.8" cy="24.9" r="11.1"/>
		<circle class="st1" cx="506.6" cy="18.4" r="12.4"/>
	</g>
	<g>
		
			<rect x="99.6" y="364.3" transform="matrix(0.9921 0.1255 -0.1255 0.9921 46.6094 -9.7853)" class="st2" width="2.7" height="1.4"/>
		
			<rect x="102.3" y="364.6" transform="matrix(0.9921 0.1255 -0.1255 0.9921 46.6723 -10.1145)" class="st2" width="2.7" height="1.4"/>
		
			<rect x="99.4" y="366.3" transform="matrix(0.9921 0.1255 -0.1255 0.9921 46.8623 -9.7369)" class="st2" width="2.7" height="1.4"/>
		
			<rect x="102" y="366.7" transform="matrix(0.9921 0.1255 -0.1255 0.9921 46.9252 -10.0662)" class="st2" width="2.7" height="1.4"/>
		
			<rect x="99.9" y="362.3" transform="matrix(0.9921 0.1255 -0.1255 0.9921 46.3598 -9.8329)" class="st2" width="2.7" height="1.4"/>
		
			<rect x="102.5" y="362.6" transform="matrix(0.9921 0.1255 -0.1255 0.9921 46.4227 -10.1622)" class="st2" width="2.7" height="1.4"/>
		
			<rect x="125.9" y="366.7" transform="matrix(-0.9921 -0.1255 0.1255 -0.9921 207.2462 749.7051)" class="st0" width="2.7" height="3.2"/>
		
			<rect x="123.3" y="366.4" transform="matrix(-0.9921 -0.1255 0.1255 -0.9921 202.0199 748.7066)" class="st2" width="2.7" height="3.2"/>
		<circle class="st2" cx="90.8" cy="363.2" r="10.4"/>
		<circle class="st2" cx="113.9" cy="366.6" r="10.4"/>
		<circle class="st0" cx="139.4" cy="369.9" r="11.6"/>
	</g>
	<g>
		
			<rect x="27.7" y="276.5" transform="matrix(-0.3746 -0.9272 0.9272 -0.3746 -216.8584 408.2054)" class="st2" width="3" height="1.5"/>
		
			<rect x="26.6" y="273.7" transform="matrix(-0.3746 -0.9272 0.9272 -0.3746 -215.825 403.3444)" class="st2" width="3" height="1.5"/>
		
			<rect x="29.9" y="275.6" transform="matrix(-0.3746 -0.9272 0.9272 -0.3746 -213.1253 408.9991)" class="st2" width="3" height="1.5"/>
		
			<rect x="28.8" y="272.8" transform="matrix(-0.3746 -0.9272 0.9272 -0.3746 -212.0919 404.138)" class="st2" width="3" height="1.5"/>
		
			<rect x="25.6" y="277.3" transform="matrix(-0.3746 -0.9272 0.9272 -0.3746 -220.5436 407.422)" class="st2" width="3" height="1.5"/>
		
			<rect x="24.5" y="274.5" transform="matrix(-0.3746 -0.9272 0.9272 -0.3746 -219.5102 402.5609)" class="st2" width="3" height="1.5"/>
		
			<rect x="16.6" y="247.8" transform="matrix(0.3746 0.9272 -0.9272 0.3746 242.7581 139.3318)" class="st0" width="3" height="3.6"/>
		
			<rect x="17.7" y="250.6" transform="matrix(0.3746 0.9272 -0.9272 0.3746 246.037 140.0288)" class="st2" width="3" height="3.6"/>
		<circle class="st2" cx="33.1" cy="288.2" r="11.7"/>
		<circle class="st2" cx="23.8" cy="263.6" r="11.7"/>
		<circle class="st0" cx="12.9" cy="236.9" r="13"/>
	</g>
	<g>
		<polygon class="st2" points="351.9,24.9 349.5,23.7 350,22.4 352.4,23.6 		"/>
		<polygon class="st2" points="351.9,24.9 354.2,26 354.8,24.8 352.4,23.6 		"/>
		<polygon class="st2" points="351,26.8 348.6,25.6 349.2,24.3 351.6,25.5 		"/>
		<polygon class="st2" points="351,26.8 353.4,27.9 354,26.7 351.6,25.5 		"/>
		<polygon class="st2" points="352.7,23 350.3,21.8 350.9,20.6 353.3,21.7 		"/>
		<polygon class="st2" points="352.7,23 355.1,24.1 355.7,22.9 353.3,21.7 		"/>
		<polygon class="st0" points="374.1,33.1 376.5,34.3 375.1,37.3 372.8,36.1 		"/>
		<polygon class="st2" points="374.1,33.1 371.7,31.9 370.4,35 372.8,36.1 		"/>
		<ellipse class="st2" cx="341.9" cy="18.7" rx="10.2" ry="10.7"/>
		<ellipse class="st2" cx="362.6" cy="29.3" rx="10.2" ry="10.7"/>
		<ellipse class="st0" cx="385.6" cy="40.5" rx="11.4" ry="11.9"/>
	</g>
	<g>
		<circle class="st3" cx="37.1" cy="49.8" r="8.8"/>
		<circle class="st4" cx="48" cy="75.3" r="8"/>
		<circle class="st1" cx="46.3" cy="64.1" r="9.8"/>
		<circle class="st5" cx="35.2" cy="75.2" r="8.8"/>
		<circle class="st5" cx="63.8" cy="60.6" r="8.8"/>
	</g>
	<g>
		<circle class="st3" cx="163.2" cy="164.8" r="8.2"/>
		<circle class="st4" cx="182.8" cy="147.9" r="7.5"/>
		<circle class="st1" cx="173.3" cy="152.6" r="9.2"/>
		<circle class="st5" cx="186.3" cy="159.4" r="8.2"/>
		<circle class="st5" cx="165.4" cy="138" r="8.2"/>
	</g>
	<g>
		<circle class="st3" cx="161.8" cy="309.8" r="8.2"/>
		<circle class="st4" cx="148.6" cy="287.6" r="7.5"/>
		<circle class="st1" cx="151.5" cy="297.7" r="9.2"/>
		<circle class="st5" cx="160.5" cy="286.2" r="8.2"/>
		<circle class="st5" cx="135.8" cy="303" r="8.2"/>
	</g>
	<g>
		<circle class="st3" cx="549.3" cy="184.6" r="9.5"/>
		<circle class="st4" cx="579.1" cy="188.4" r="8.7"/>
		<circle class="st1" cx="567.7" cy="183.8" r="10.6"/>
		<circle class="st5" cx="571.9" cy="200.2" r="9.5"/>
		<circle class="st5" cx="574.1" cy="165.7" r="9.5"/>
	</g>
	<g>
		<circle class="st6" cx="267.1" cy="122.3" r="10.7"/>
		<circle class="st6" cx="254.8" cy="100.4" r="10.7"/>
		<circle class="st7" cx="260.8" cy="113" r="12.6"/>
		<circle class="st8" cx="270.9" cy="108" r="8.1"/>
		<circle class="st8" cx="248.5" cy="117.2" r="8.1"/>
	</g>
	<g>
		<circle class="st3" cx="339.2" cy="390.8" r="8.2"/>
		<circle class="st4" cx="358.8" cy="373.9" r="7.5"/>
		<circle class="st1" cx="349.3" cy="378.6" r="9.2"/>
		<circle class="st5" cx="362.3" cy="385.4" r="8.2"/>
		<circle class="st5" cx="341.4" cy="364" r="8.2"/>
	</g>
	<g>
		<circle class="st3" cx="86.1" cy="214.7" r="8.2"/>
		<circle class="st4" cx="111.8" cy="211.6" r="7.5"/>
		<circle class="st1" cx="101.3" cy="210.2" r="9.2"/>
		<circle class="st5" cx="108.3" cy="223" r="8.2"/>
		<circle class="st5" cx="102.8" cy="193.7" r="8.2"/>
	</g>
	<g>
		<circle class="st3" cx="329.6" cy="160.9" r="8.6"/>
		<circle class="st4" cx="356.7" cy="158.8" r="7.9"/>
		<circle class="st1" cx="345.7" cy="156.9" r="9.6"/>
		<circle class="st5" cx="352.5" cy="170.7" r="8.6"/>
		<circle class="st5" cx="348" cy="139.6" r="8.6"/>
	</g>
	<g>
		<circle class="st3" cx="401.4" cy="105" r="8.6"/>
		<circle class="st4" cx="425.4" cy="92.2" r="7.9"/>
		<circle class="st1" cx="414.6" cy="94.8" r="9.6"/>
		<circle class="st5" cx="426.3" cy="104.7" r="8.6"/>
		<circle class="st5" cx="409.8" cy="78" r="8.6"/>
	</g>
</g>
<g>
</g>
<g>
</g>
<g>
</g>
<g>
</g>
<g>
</g>
<g>
</g>
<g>
</g>
<g>
</g>
<g>
</g>
<g>
</g>
<g>
</g>
<g>
</g>
<g>
</g>
<g>
</g>
<g>
</g>
</svg>
