<?xml version="1.0" encoding="utf-8"?>
<!-- Generator: Adobe Illustrator 23.0.3, SVG Export Plug-In . SVG Version: 6.00 Build 0)  -->
<svg version="1.1" id="Layer_1" xmlns="http://www.w3.org/2000/svg" xmlns:xlink="http://www.w3.org/1999/xlink" x="0px" y="0px"
	 viewBox="0 0 1000 1056" style="enable-background:new 0 0 1000 1056;" xml:space="preserve">
<style type="text/css">
	.st0{fill:none;stroke:#898989;stroke-width:0.75;}
	.st1{fill:#898989;}
	.st2{opacity:0.17;fill-rule:evenodd;clip-rule:evenodd;fill:#939393;stroke:#A3A3A3;enable-background:new    ;}
	.st3{fill:none;stroke:#FFCD29;stroke-width:1.628;stroke-linecap:round;}
	.st4{fill:none;stroke:#A0A0A0;stroke-width:1.628;stroke-linecap:round;}
	.st5{fill:none;stroke:#FFCD29;stroke-width:2.442;stroke-linecap:round;}
	.st6{fill:none;stroke:#000000;stroke-width:1.628;stroke-linecap:round;stroke-opacity:0;}
	.st7{fill:none;stroke:#A0A0A0;stroke-width:2.442;stroke-linecap:round;}
	.st8{fill:none;stroke:#FFCD29;stroke-width:3.2561;stroke-linecap:round;}
	.st9{fill:none;stroke:#FFCD29;stroke-width:3.256;stroke-linecap:round;}
	.st10{fill:none;stroke:#FFCD29;stroke-width:2.442;stroke-linecap:round;stroke-dasharray:2.442,2.442;}
	.st11{fill:none;stroke:#A0A0A0;stroke-width:0.814;stroke-linecap:round;}
	.st12{fill:none;stroke:#FFCD29;stroke-width:2.442;stroke-linecap:round;stroke-opacity:0.9412;}
	.st13{fill:none;stroke:#FFCD29;stroke-width:2;stroke-linecap:round;}
	.st14{fill:none;stroke:#FF5183;stroke-width:2.442;stroke-linecap:round;}
</style>
<g>
	<path id="path18352_1_" class="st0" d="M550.1,1016.4l5.5,4.2l6.8,4.7l-0.3,4l-2.5,4.4l-4.4,5.9l-1.9,16H0.4l0.2-160h5.2l13.7,2.2
		l8.7-0.9l14-3.4l10.9-5.3l5.3-0.9l6.8,2.8l2.2,6.2l4.4,3.1l7.2,0.3l7.2,1.2l1.9,4.7l4,3.1l4.7-0.3l3.4-3.4l4-5.3l5-1.2l10.9,1.6
		l6.5,5.9l8.7,5.3l6.2,5.6l5,4.4h5.3l3.1-4.4l9.3-0.3h6.8l6.5-0.3l5.3-2.6"/>
	<path id="path13979_3_" class="st0" d="M850.1,479.2l9.2-1.1h3.5l3.5,3.3l3.9,3.1l1.4,1.6h5.3l5.9-2.8l2.8-2.8l3.5-2.4l4.3-0.4
		l4.5,2l3.1,1.2l5.1,0.6l2.6-0.8l0.8-3.5h5.1l2.4-3.1l-3.1-3.1l-5.3,1.2h-6.1l0.6-4.5l3.7-4.1l4.3-2.4l4.7-2.2h5.1l2.2,4.1l3.3,3.9
		l4.7,1.4l1.8-2.8h1.8l0.6,4.9l2,0.6l2.6-4.7h5.5h6.1l2.2-2.6l-0.2-5.5l2.8-0.6l4.5,3.7l3.9,1.8l6.5,1.4l3.7,1.2l4.1,2.2l2.6,3.9
		v2.4l8.9,0.8l9.2,8V0.4H775.2"/>
	<path id="path13979_1_" class="st0" d="M737.8,226.8l0.7,5.6l1.2,11.6l4.1,6.9l6.1,5.3l6.5,3.3l6.3,3.3l2,4.5l-2.8,5.9l-2.6,5.1
		l-1.6,6.9l-1.6,6.5l-2.6,2.6"/>
	<path id="path15729_2_" class="st0" d="M866.3,868.6l4.2,1.9l8.1-0.6l6.7-2.4l6.5-3.5l5.7-2.2l8.7-6.3l7.3-6.1l1.8-12l4.3-7.9
		l5.1-4.7l5.3-4.5l2.2-7.7l6.1-7.1l9.2-5.3l6.5-4.9l9.4,4.3l8.7-0.6l9.4,2l5.3,2.2l12.8,2.8V608.6v-0.9L987,596.8c0,0-1.6-6.3-2-7.3
		s-6.3-4.9-6.3-4.9h-5.1l-4.5,0.2l-0.8,5.7l3.9,5.7l0.6,6.3L970,609l-3.1,8.1l-3.3,5.9l-2.8,3.9l-1.2,5.9l-2,3.3l-1.8,3.5l2.6,4.5
		l2,7.7l-3.1,2.4l-6.3-5.1l-4.3-8.9l-1.6-6.3L940,629l-1.2,4.5l-2,6.5l-3.9,5.5l-3.7,3.7l-4.5-1.8l2-4.9l3.1-2.6l4.9-5.3l-3.9-7.1
		l-5.5-5.1l-8.3-7.5l-1.8-2.8l0.2-5.9l2.2-2.2v-7.1l-4.1-3.7l-3.5-0.6l-3.5,5.3l-4.9,3.5l-3.5,6.3l-2.6,7.3l1.8,5.5l-1,4.5l-4.1,5.1
		l-3.1,1.6l-1.8,5.5l-3.9,5.1l-6.5,0.8l-1.2,4.5l-4.3,2l-4.5-2.6l-4.1-2l-6.5,1.8l-4.3,3.1l-6.7,2.2l-5.5,1.4l-5.5,2.8l-6.5-0.8
		l-5.7,2l-4.5,0.3"/>
	<path id="path12231_1_" class="st0" d="M613,110.1c-1-2.2-1.4-3.4-1.4-3.4l-4.5-1.6l-4.5-1.6l-4.3-1.6l-2.8-0.8l-3.5,0.2l-2.8,3.7
		l-2,1.8l-6.1-1.8l-5.7-2l-5.1-2.6l-4.5-1.4l-5.9-1.4l-1.4-1.6l0.6-4.1l5.1-4.1l3.7-4.5l2.4-3.3l3.5-1.2l0.6,2.4l1.4,2.8l1.6,0.6
		h5.5l3.3,1l3.1,2.6l-3.5,3.5l-5.1-0.2l-1.2,1.6l1.6,0.6l3.5,0.4l2.8-0.2l2.6,0.4l4.9,1.6l2.8,0.4l3.5,2l3.1,2.2l4.5,1.4l5.1-0.8
		l0.4-3.5l-2-2l-5.1-0.8l-4.9-1.6l-3.7-1.6l-1.2-3.5l2.4-2l2-3.1l0.2-2l3.5-1.2l3.9,1.2l2.8-0.2l4.3-0.6l3.1-2l2.2-2.6l-1.4-1.4
		l-2.6,1.4l-2.2,2.6l-5.1,0.8l-4.9-2.2l-2-1l-4.1,0.2l-1.2,2l-1.4,3.1l-1.8,2.6l-2.4,0.6l-2.6-2.2l-2.4-3.5l-3.7-0.2l-5.7-0.4
		l-1.4-2.8l1.4-2.6l1.8-2h5.1l7.3,0.4l3.1-1l2.2-1.2l-1.4-2.4l-3.9,0.4l-2.6,1.2l-1.8-0.8l-0.2-2.4l2.2-3.7l3.7-1.4L598,60h3.1
		l-2-5.9l-0.8-5.5l5.3-4.1l4.7-5.5l5.7-5.5l3.1-5.7L624,15l6.3-14.6h23.1l8,6.3l2.2,3.1l5.5,2.8l5.9,2.2l8.3,2l2.8-0.6l-7.5-3.5
		l-4.5-2.6l-6.3-2.2L663,0.4h83.3h35.4h4.8L786,4.8l-0.8,4.1l-2.2,4.9l-1.4,3.5l-1.4,3.9l-3.5,3.5l-7.1,3.1l-2.4,2.2l1.6,5.5
		l2.2,4.7l-0.6,6.1l-4.7,2.4h-4.5H754l-6.3,1.4l-5.7,1.6h-5.1l-6.3,0.2l-4.5,2.4l-6.7,3.1l-1.6,3.7l3.5,3.9l4.5,3.3l3.9,8.7l4.9,8.3
		l4.5,9.6l0.4,7.1l-0.2,7.1l-2.6,5.1l-3.7,4.9l-0.4,1.8l2.4,3.5l-1,3.7l-5.5,2.6l-3.9,3.5l-4.3,2.6l0.6,4.5l7.3,3.7l2.8,3.9l-1,7.5
		l-4.1,2l-4.7,2.8"/>
	<path id="path11356_3_" class="st0" d="M500.6,138.4l5-0.6l6.5-3.5l7.9-5.1l5.1-4.3l6.9-2.6l4.1-3.5l5.5-3.7l4.3-2.8l7.1-1.2
		l3.1,0.8l0.2-3.7l4.9-2.4l5.1-1.6l5.1,1l7.1,3.9l4.5,2l4.3,0.4l5.5-4.1l1.8-2.6l6.1,1.2l3.1,3.1l2.2,2.6l4.9-0.4l4.5-2.6l3.9-0.4
		l2.6-2l0.4-3.7l1.4-3.9l3.1-1l5.3,2.4l3.7,3.3l3.5-0.8l3.1-5.1l3.5-2.8l1.8,2l-0.2,3.5l1.4,2.8l2,1.6h4.3l3.3-0.8l2.2-3.5l3.5-1h2
		l1.2,3.9l-0.6,1.8l1,2.4l0.6,2.4l2.2,1.2l4.1,0.4l2.6,1.2l4.3,4.7l10.8-0.2l2.4-1.2l5.3,0.2l3.9,1.8l4.3-1l6.9-1l0.4,3.9l-1.2,7.1
		l-1,5.7l-1,8.7l-2,6.1l-3.1,7.3l-2.2,4.7l3.7,3.3h3.5l5.3-0.8l4.3-1.4l4.1,1.2l1.8,2.8l1.4,4.5l4.3,4.7l5.9,4.3l2.2,3.3l-0.4,4.5
		v4.9l1.8,3.1l4.5,1l2.6,1.6l1.8,5.9l3.3,4.5v2.8l-2.2,1h-4.9l-0.8,2l2,1.6l-0.8,2l-4.9,2.2l-2.6,3.5l-1,4.5l-3.7,0.6h-6.1l-4.3,3.5
		l-3.5,4.7l-2,5.5l-0.2,5.1l-1.6,4.5l-3.3,3.1l-0.8,3.9l1.4,4.3l2.4,6.1l1.6,4.9l0.8,4.7l1.8,2.6l2.4,0.6l1.8,1.2l-0.4,3.1l-1.6,3.3
		l-2.6,1l-2.6,1.4"/>
	<g id="path3294">
		<path class="st1" d="M86.1,0.9l369.8,0.4L452,11.7l0,0l0,0l-1.3,4.6l-1.7,5v0.1v0.1l-0.6,5.4l-1.3,4.8l-1,3.8l-3.7,4l-6.3,5.1
			l-0.1,0.1V45l-1.8,2.8l-3.2,2.5l-2,1.1l-0.2,0.1l-0.1,0.3l-0.3,0.9l-0.4-0.2l-0.6-1.3l-0.1-0.2l-0.1-0.1l-1.3-1l-0.6-1.4l-0.2-0.4
			h-0.4l-1.4-0.1l-0.6-0.1l-0.2,0.5l-0.6,1.4l-0.2,0.4l0.3,0.3l1.3,1.7l0.1,0.1l0.1,0.1l1.5,1.2v2.2l-1.8,3.7l-2.8,4.5l-2.9,4.2l0,0
			l0,0l-2.1,3.6L413,72h-0.1h-0.1l-1.3,0.4l-0.9-0.5v-2v-0.1v-0.1l-0.6-2.4l-0.1-0.5l-0.5-0.1l-2.4-0.3l-2.1-0.7h-0.1h-0.1h-1.3
			h-0.7l-0.1,0.6l-0.3,2v0.3l0.2,0.2l1.7,2.6l1.2,2.1v4.1l-1,6v0.1v0.1l0.1,1.4h-3.8H400l-0.1,0.7l-0.3,2.9l-0.9,3l-1.4,1.8
			l-4.5,0.1h-4h-0.1h-0.1l-3.2,0.4l-1.9,0.3l-0.5,0.1l-0.1,0.5l-0.3,1.4l-0.1,0.5l0.4,0.3l2,1.4h0.1h0.1l1.9,0.8l2.5,2l1.3,2.4
			l-0.4,0.3l-2.8,0.7l-0.6,0.1v0.6v1.4v0.6l0.6,0.1l2,0.4l2.2,1.3l1.9,2.2l0.3,0.3l0.4-0.1l1.5-0.4l3.1,1.3h0.1h0.1l3.5,0.6h0.2
			l0.2-0.1l2.3-0.7h0.1l0.1-0.1l1.9-1.2l3.3-1.1l1.3-0.3h5.2h3.6h3.2h0.2l0.1-0.1l1.9-0.8l2.8-0.3h0.4l0.2-0.3l0.7-1.1l3.5-0.9
			l1.8,0.8l0.3,6l-2,2.6l-2.7,1.1l-0.4,0.2l-0.1,0.4l-0.4,2.4l-0.1,0.3l0.2,0.3l1.7,2.3l1.3,1.9l-0.3,3.6l-0.4,2.4l-2.4,3.8
			l-3.1,2.5H425h-0.2l-0.2,0.1l-2.4,1.6l-3.3,1.8l-3.3,0.5l-3.4,0.3H412l-0.1,0.1l-1.7,1h-0.1l-0.1,0.1l-3.6,3.6l-2.1,1.9l-0.2,0.2
			v0.3l-0.1,3.9l-0.1,3.4l-0.7,0.6h-3l-2.2-1l-0.6-1.2l-0.2-0.4h-0.4l-3.2-0.3h-0.5l-0.2,0.4l-1.4,2.3l-2.6,2.3l-3.2,2.7h-3H382
			l-0.2,0.4l-1.1,1.8l-4.5,0.4l-7.2,0.6h-0.3l-0.2,0.2l-3.9,3.6l0,0l0,0l-3.1,3.6l-4.1,0.9l-4-0.3l-3.7-0.7l-5.2-3l0,0l0,0l-4.9-2.2
			h-0.1h-0.1l-6.9-1.7h-0.1h-0.1l-5.9,0.1l-8.1,0.1l0,0l0,0l-8.1,0.9l0,0l0,0l-8.5,1.9l0,0l0,0l-2.4,0.7l-4.1,1l-2.8,0.3l-3.3-0.1
			l-1.9-0.5l-0.5-1.7l-0.1-0.2l-0.1-0.1l-1.6-1.6l-0.2-0.2h-0.3l-2.4-0.3l0,0l0,0h-2.9H279h-0.1l-1.6,0.3l-0.4,0.1l-0.2,0.4
			l-0.6,1.5l-1.7-0.5l-2.2-1.6l0,0h-0.1l-1.8-1l-0.4-3.2v-0.1v-0.1l-0.7-1.9l-0.1-0.2l-0.2-0.1l-2.2-1.3l-0.1-0.1h-0.1l-2.2-0.6
			h-0.1h-0.1h-3.3l0,0l0,0l-1.6,0.1l-0.6,0.1l-0.1,0.6l-0.3,2.9l-0.1,0.6l0.5,0.2l0.9,0.4l-0.1,1.1l-0.7,1L256,164h-0.1h-0.1
			l-3.5,1.5l-3.8,1.8l-3.2,0.7l-0.4,0.1l-0.1,0.4l-0.9,2.6l-1.7,0.2H242l-0.1,0.1l-3.1-0.2l-2.6-1.2l-0.2-0.1h-0.2h-4.1l-4.6-0.1
			h-3.9h-0.1H223l-2.9,0.7l-0.2,0.1l-0.2,0.2l-2,2.3l-0.3,0.3l0.1,0.4l0.9,3.2v0.1l0.1,0.1l1.8,2.4l0.8,1.6l-0.4,0.4l-3.2-0.8
			l-1.4-0.4H216h-0.1l-5.3-0.4l-3.4-0.1l-3.8-0.3l-3.5-0.7l-3.5-1.1l-3.6-1.6l-0.3-0.1l-0.3,0.2l-2.9,1.4l-0.1,0.1l-0.1,0.1
			l-2.2,2.6l-0.1,0.1v0.2l-0.7,3h-1.9l-3.5-2.4l-3.2-2.9l-2.2-3.8l-0.1-0.1l-0.1-0.1l-3.9-3.6l0,0l0,0l-3.4-2.5l-1.1-2.3l-0.1-0.3
			l-0.3-0.1l-2.3-1l-0.2-0.1h-0.2L161,165h-4.2h-0.1h-0.1l-3.6,0.7h-0.1l-0.1,0.1l-2.1,1.3l-2.1,0.1l0,0l0,0l-2,0.3l-0.5,0.1
			l-0.1,0.5l-0.3,1.4l-0.6,0.1l-0.9-0.5l-1.7-0.9l-0.2-0.1H142h-1.7l0,0l0,0l-1.7,0.1h-0.1h-0.1l-2.3,0.6l0,0l0,0l-1.5,0.6l-2.2,1
			l-0.2,0.1l-0.1,0.2l-1.2,1.6l-2,1H127l-1.9-0.5l-0.3-0.1l-0.3,0.1l-1.6,0.9l-0.1,0.1l-0.1,0.1l-1.2,1.6l-0.1,0.1v0.1l-0.8,2
			l-1.6,1.5l-0.2,0.2v0.3l-0.3,4.2l-0.6,2.6l-0.9,0.7l-1.1,0.7l-0.2,0.1l-0.1,0.2l-0.6,1.4v0.1v0.1l-0.3,1.7l-0.1,0.5l0.4,0.3
			l1.4,0.9l0.2,0.1h0.2h1.4l0.6,2.5l-0.6,1.2l-4.3,1.9l-3,1.6l-2.7,1.6l-0.1,0.1l-0.1,0.1l-1.9,2.6l-0.1,0.2v0.2v2.7l-1.1,2.7
			l-1.7,0.5h-4.3l-3.3-0.3l-1.6-0.8l-0.6-2.1l0.3-2l0.1-0.7l-0.7-0.2l-1.4-0.3l-1.3-2.8l-0.9-2.3l-0.1-0.3l-0.3-0.1l-1.7-0.9l0,0
			l0,0l-2.8-1l-2.1-0.8l-2.5-1.8l-2.7-2.1l-1.4-1.4l-0.7-2.4l-0.1-0.5l-0.5-0.1l-1.2-0.1l-0.8-0.1v0.8v2.6v2.2v0.3l0.1,0.2l0.8,1.1
			l0.3,1h-0.1l-1.2,0.2l-1.5-1.3l-1.5-2l-0.1-0.1l-0.1-0.1l-2-1.5l-1.7-2l0,0l0,0l-2.2-2l-0.9-0.8l-0.3,1.2l-0.6,2.1l-0.2,0.9
			l-1.6,0.5h-0.1h-0.1l-1.3,0.7h-0.1h-0.1l-1.6,1.3l-0.1,0.1l-0.1,0.1l-0.9,1.2l-2,1.5l-2.2,1.2l-1.9-0.1l-2.7-0.4l-2.9-0.3
			l-0.8-0.8l-0.2-0.2h-0.3h-2.2h-0.4l-0.2,0.4l-0.7,1.3l-0.1,0.1v0.1l-0.3,2.2l-1.1,3h-1.2h-0.1H36l-1,0.3l-0.2,0.1l-0.1,0.2
			l-1.5,1.6h-0.8l-0.9-0.8l-0.2-0.2H31h-3h-0.1h-0.1l-2.6,0.7l-0.3,0.1l-0.2,0.3l-1.3,2.3l-1.4,0.2h-0.3l-0.2,0.2l-1.3,1.5l-1.2,0.2
			l-1.6-1.1l-1.2-1.2l-0.4-0.4l-0.5,0.3l-0.9,0.6l-0.5,0.3l0.2,0.5l1,2.9v2.1l-0.5,0.8l-0.1,0.2v0.2l-0.1,2.9v0.4l0.3,0.2l0.7,0.5
			v1.7l-0.6,0.1h-0.2l-0.1,0.1l-1.4,0.9l-0.2,0.1l-0.1,0.2l-1.1,2.1l-2.8,0.3H8.8l-0.1,0.1l-1.2,0.6L7.2,225l-0.1,0.3l-0.8,2.2
			l-1.5,0.2H4l1.1-32.5l3.4-2.1h0.1h0.1l2.9-2.6l0.1-0.1l0.1-0.1l0.9-1.7l0,0l0,0l1-2.4l1-1.7L17,183l3-1.4l0.2-0.1l0.1-0.2l1.4-2.9
			l0.1-0.2V178v-4l1-2.3l1.8-0.9l4.1-0.1h0.1h0.1l2.3-0.7l0.3-0.1l0.1-0.2l1.1-1.8l2.9-2.5l3-2.7l5.3-3.4l0,0l0,0l3.3-2.7h0.1v-0.1
			l2.9-3.5l0.1-0.1v-0.1l3.6-7.6L54,145v-0.2V141l1.1-3.8l0,0l0,0l0.4-2.2l1.2-1l0.2-0.1l0.1-0.2l1.9-5.4l0.5-1.1l1.4-0.3l2.2,0.9
			l3.5,2.1l0.2,0.1h0.2l3.3-0.1h0.2l0.2-0.1l3.6-2h0.1l0,0l3-2.4l0.2-0.2l0.1-0.2l0.6-2.2l0.1-0.2l-0.1-0.2l-0.7-1.8l-0.1-4.2
			l-0.1-3l0.7-2.5l2.1-1.1l4.1-1.2h6.4h6.6l4.8,0.1l4.2,0.6l4,1.1l3.7,1.2l0.2,0.1h0.2l3.2-0.6l0,0l0,0l2-0.5l3.6,1.1l3.2,2l0,0l0,0
			l6.3,3l0,0l0,0l4.2,1.6l0.2,0.1h0.2l4.5-0.7h5h0.2l0.1-0.1l3.2-1.4l4.5-0.6l0.6-0.1l0.1-0.6l0.6-3.5v-0.1v-0.1l-0.1-3.3l1-3.1
			l1.1-2.4l1.4-2.9l0,0l0,0l0.9-2.1l1.5-0.5l0.3-0.1l0.1-0.3l0.8-1.4l2-1.2h0.1l0.1-0.1l2.4-2.3l0,0l0,0l1.6-1.8l1.4-1.4l2.1-0.3
			h1.8h0.4l0.2-0.4l2.4-4v-0.1v-0.1l0.4-1.2l1.5-2.2l0.1-0.1v-0.1l0.7-2l0.9-2.6L179,77l-0.8,0.7l-3.7,1.8l-3.3,0.7l-5.5,0.3l-5,0.1
			h-0.2l-0.2,0.1l-4.7,2.8l-4.8,1.7l-5.3,2h-0.1l0,0l-6.5,3.7l-6.3,1l-6.5-0.3l-3.5-1.5l-3.7-4.2l-2-5.2l-1.4-4.1l-0.9-3.7v-0.2
			l-0.1-0.1l-2.2-2.9l-0.2-0.3h-0.4h-3.6H108h-0.1l-5.8,1H102l-0.1,0.1l-4.1,2.1l-5,0.7H88l0,0l0,0l-2.5,0.3l-3.6-0.1l-2.4-2.2
			l-0.7-1.7v-1.4l1.1-1L82,66l2.2-1.2l0.4-0.2v-0.4l0.1-1.6l0.1-0.6L84,61.8l-1.6-0.4l-3.9-1.2l-1.8-2.8L75,53.9l-0.8-3l-0.1-0.3
			l-0.3-0.1l-2-1l-0.6-0.3l-0.4,0.6l-1.2,2.1L67.8,52L64,51.9h-3.6h-0.1h-0.1L56.7,53l-0.2,0.1l-0.1,0.1l-2.6,2.9l-0.1,0.1v0.1
			l-1.9,3.5l-2.3,1.9l-2.4,0.1l-1.8-1.3l-0.2-0.1h-0.2h-2l0,0l0,0l-2.4,0.3h-0.4L39.7,61l-1.4,2.3l-2.2,0.3l-3.9-2L30,58.1l-0.1-3.3
			v-0.3l-0.2-0.2l-2.6-3.2H27L26.7,51l-2-0.4h-0.1h-0.1h-1.9l-0.2-0.4l2-1.8l3.1-0.8l0.2-0.1l0.1-0.1l2-2l0.2-0.2v-0.3v-3v-0.1v-0.1
			l-1.4-3.9l-0.1-0.2l-0.2-0.1L26,35.8l-0.4-2.4l0.4-1.8l1.2-1.2l1.8-1.1l0.1-0.1l0.1-0.1l1.2-1.7l0.1-0.1v-0.1l1-3.5l0.7-1l4.6-0.3
			h6H43h0.1l3.2-0.6h0.2l0.2-0.2l1.5-1.7l2.5-1.8l3-1.9l5.1-0.4h0.1H59l4.3-1.1l5.7-1h0.1l0.1-0.1l3.6-2.2h0.1l0,0l3.3-2.9l3.3-2.8
			L86.1,0.9 M258.3,167.7l2.4,0.3l1.7,1.1l0,0l0,0l3.1,1.6l2.4,1.1l2.7,1.1l0.8,0.3l1.2,1.5l0.2,1.9l-1.2,1.2l-2.6,1l-0.2,0.1
			l-0.1,0.2l-0.9,1.1l0,0l0,0l-1.4,2.2l-0.1,0.2v0.2l-0.1,1.4l-1.4,0.1h-0.2l-0.2,0.2l-0.9,0.8l-0.1,0.1l-0.1,0.2l-0.1,0.3h-2.7
			l-3.6-0.1l-1.4-2l-1.4-2.2l-0.1-0.2l-0.2-0.1l-3.2-1.8l-2.3-1.3l-2.5-1.5l-0.5-0.3l-0.2,0.2l-1.5-0.8l0.1-1l0.6-0.6l0.9-0.2
			l1.8,0.1h0.1h0.1l2.6-0.8l0.2-0.1l0.1-0.1l1.4-1.4l1.7-1.5l0,0l0,0l1.6-1.7l1.2-0.9L258.3,167.7 M85.9,0.2L79,4.7l-3.3,2.9
			l-3.3,2.9l-3.6,2.2l-5.8,1l-4.3,1.2l-5.3,0.4l-3.2,2l-2.6,1.9L46,20.9l-3,0.5h-6l-5,0.3l-1,1.4l-1,3.6l-1.2,1.7l-1.9,1.2L25.4,31
			L25,33.2l0.4,2.9L28,38l1.4,3.9v3l-2,2l-3.3,0.9L21.5,50l0.7,1.3h2.3l2,0.4l2.6,3.2l0.1,3.5l2.4,3.9l4.3,2.2l2.7-0.4l1.6-2.6
			l2.4-0.3h2l2,1.4l2.9-0.1l2.6-2.2l2-3.6l2.6-2.9l3.5-1.2H64l3.9,0.1l2.2-0.1l1.4-2.4l2,1l0.9,3l1.7,3.6l2,3l4.2,1.3l1.6,0.4
			l-0.1,1.6l-2.2,1.2l-2.2,1.3L78,67.9v1.9l0.9,2l2.7,2.4l3.9,0.1L88,74h5.2l5.2-0.7l4.2-2.2l5.8-1h3.6l2,2.9l0.9,3.7l1.4,4.2l2,5.3
			l3.9,4.5l3.7,1.6l6.8,0.3l6.5-1l6.6-3.7l5.3-2l4.9-1.7l4.7-2.9l5-0.1l5.6-0.3l3.5-0.7l3.9-1.9l0.9-0.7l-0.7,2l-1.6,2.3l-0.4,1.3
			l-2.4,4h-1.9l-2.4,0.3l-1.6,1.6L167,91l-2.4,2.3l-2.2,1.3l-0.9,1.6l-1.9,0.6l-1,2.4l-1.4,2.9l-1.2,2.4l-1,3.3l0.1,3.5l-0.6,3.5
			l-4.6,0.6l-3.3,1.4h-5l-4.6,0.7l-4.2-1.6l-6.3-3l-3.3-2l-3.9-1.2l-2.2,0.6l-3.2,0.6l-3.7-1.2l-4-1.2l-4.3-0.6l-4.9-0.1h-6.6h-6.5
			l-4.3,1.3l-2.4,1.3l-0.9,2.9l0.1,3.2l0.1,4.3l0.7,1.9l-0.6,2.2l-3,2.4l-3.6,2l-3.3,0.1l-3.6-2.2l-2.4-1l-2,0.4L58,128l-1.9,5.5
			l-1.4,1.2l-0.4,2.4l-1.2,3.9v3.7l-3.6,7.6l-2.9,3.5l-3.3,2.7L38,162l-3,2.7l-3,2.6l-1.2,1.9l-2.3,0.7l-4.3,0.1l-2.2,1.2l-1.2,2.7
			v4l-1.4,2.9l-3,1.4l-2.4,1.6l-1.2,1.9l-1,2.4l-0.9,1.7L8,192.4l-3.7,2.3l-1.2,33.6H5l2-0.3l1-2.6l1.2-0.6l3.2-0.3l1.3-2.4l1.4-0.9
			l1.3-0.1v-2.7l-1-0.7l0.1-2.9l0.6-1v-2.4l-1-3l0.9-0.6l1.3,1.3l1.9,1.3l1.7-0.3l1.4-1.7L24,208l1.4-2.6l2.6-0.7h3.2l1.2,1h1.4
			l1.7-1.9l1-0.3h1.7l1.3-3.6l0.3-2.3l0.7-1.3h2.2l1,1l3.2,0.3l2.7,0.4l2.2,0.1l2.4-1.3l2.2-1.6l1-1.3l1.6-1.3l1.3-0.7l2-0.6
			l0.3-1.3l0.6-2l2.2,2l1.7,2l2,1.6l1.6,2l1.9,1.6l1.7-0.3l0.7-0.4l-0.6-1.7l-0.9-1.2v-2.2v-2.6l1.2,0.1l0.7,2.6l1.6,1.6l2.7,2.2
			l2.6,1.9l2.2,0.9l2.9,1l1.7,0.9l0.9,2.3l1.4,3.2L93,206l-0.3,2.2l0.7,2.6l2,1l3.5,0.3h4.5l2.2-0.6l1.3-3.2v-2.9l1.9-2.6l2.7-1.6
			l3-1.6l4.5-2l0.9-1.7l-0.9-3.3h-2l-1.4-0.9l0.3-1.7l0.6-1.4l1.2-0.7l1.2-0.9l0.7-2.9l0.3-4.3l1.7-1.6l0.9-2.2l1.2-1.6l1.6-0.9
			l2,0.6h2.2l2.3-1.2l1.3-1.7l2.2-1l1.4-0.6l2.3-0.6l1.7-0.1h1.7l1.7,0.9l1.2,0.6l1.3-0.3l0.4-1.9l2-0.3l2.3-0.1l2.3-1.4l3.6-0.7
			h4.2l2.9-0.1l2.3,1l1.2,2.4l3.6,2.6l3.9,3.6l2.3,3.9l3.3,3l3.7,2.6h2.7l0.9-3.6l2.2-2.6l2.9-1.4l3.6,1.6l3.6,1.2l3.6,0.7l3.9,0.3
			l3.5,0.1l5.3,0.4l1.4,0.4l3.6,0.9l1.2-1l-1.2-2.2l-1.9-2.4l-0.9-3.2l2-2.3l2.9-0.7h3.9l4.6,0.1h4.2l2.7,1.3l3.5,0.2l0.1-0.1
			l2.1-0.3l1-3l3.3-0.7l3.9-1.9l3.5-1.4l3-0.6l1-1.4l0.1-1.9l-1.4-0.6l0.3-2.9l1.6-0.1h3.3l2.2,0.6l2.2,1.3l0.7,1.9l0.4,3.6l2.2,1.2
			l2.3,1.7l2.4,0.7l0.9-2.2l1.6-0.3h2.9l2.4,0.3l1.6,1.6l0.6,2.2l2.4,0.6l3.5,0.1l2.9-0.3l4.2-1l2.4-0.7l8.5-1.9l8.1-0.9l8.1-0.1
			l5.9-0.1l6.9,1.7l4.9,2.2l5.3,3l3.9,0.7l4.2,0.3l4.5-1l3.3-3.7l3.9-3.6l7.2-0.6l4.9-0.4l1.3-2.2h3.3l3.5-2.9l2.7-2.4l1.4-2.4
			l3.2,0.3l0.7,1.4l2.6,1.2h3.5l1.2-1l0.1-3.7l0.1-3.9l2.2-1.9l3.6-3.6l1.7-1l3.5-0.3l3.5-0.6l3.5-1.9l2.4-1.6h2.6l3.5-2.7l2.6-4
			l0.4-2.6l0.3-3.9l-1.4-2.2l-1.7-2.3l0.4-2.4l2.9-1.2l2.3-3l-0.3-6.8l-2.4-1.2l-4,1l-0.9,1.3l-2.9,0.3l-2,0.9h-3.2h-3.6h-5.3
			l-1.4,0.3l-3.5,1.2l-2,1.3l-2.3,0.7l-3.5-0.6l-3.3-1.4l-1.7,0.4l-2-2.3l-2.4-1.4L389,107v-1.4l3-0.7l1-0.9l-1.7-3l-2.7-2.2l-2-0.9
			l-2-1.4l0.3-1.4l1.9-0.3l3.2-0.4h4l4.9-0.1l1.7-2.2l1-3.2l0.3-3h4.6l-0.1-2.2l1-6v-4.3l-1.3-2.3l-1.7-2.6l0.3-2h1.3l2.2,0.7
			l2.4,0.3l0.6,2.4v2.4l1.6,0.9l1.6-0.4l2.6-0.3l2.3-3.9l2.9-4.2l2.9-4.6l1.9-3.9v-2.7l-1.7-1.4l-1.3-1.7l0.6-1.4l1.4,0.1l0.7,1.6
			l1.4,1.2l0.7,1.6l1.4,0.6l0.6-1.6l2-1.2l3.3-2.6l1.9-2.9l6.3-5.2l3.9-4.2l1-4l1.3-4.9l0.6-5.5l1.7-5l1.3-4.6L457,0.6L85.9,0.2
			L85.9,0.2z M258.3,166.9l-2.5,0.2l-1.4,1l-1.6,1.7l-1.7,1.5l-1.4,1.4l-2.6,0.8l-1.9-0.1l-1.2,0.2l-0.9,0.9l-0.1,1.7l0,0l2.5,1.2
			l0.1-0.1l2.5,1.5l2.3,1.3l3.2,1.8l1.4,2.2l1.6,2.3l4,0.1h3.3l0.3-0.8l0.9-0.8l2-0.2l0.2-2l1.4-2.2l0.9-1.1l2.7-1l1.5-1.6l-0.3-2.4
			l-1.4-1.8l-1-0.4l-2.7-1.1l-2.3-1.1l-3.1-1.6l-1.8-1.2L258.3,166.9L258.3,166.9z M244.6,172.2L244.6,172.2L244.6,172.2
			L244.6,172.2L244.6,172.2z"/>
	</g>
	<path id="path1419" class="st2" d="M8.1,384.6l1.4,6.8l7.1,2.4h7.5l3.2-3.2l6.4,0.4l2.8,4.4l3.6,0.4v4.8l-11.9-0.8l-5.6-2.4v6.4
		l5.2,2.4l11.5,1.6v8.5l-28.6,4.4l0.4,4l16.3,5.2l7,19.8l12.3,0.4l4.4-4l8.7,1.2l5.6,4.4l18.7,8.5l6.2,0.6l8.3,8.5l4-2.4l4.4,0.8
		l8.1,18.4l11.1-5.5l8.3-4l4.8,0.4l3.6,2l0.8,4.4l-10.3,1.2l1.2,6l4.8-0.4l4.8-2.8l10.7,0.4l4,16.8l-6.8,3.2l2.8,10.1l8.7,3.6h9.5
		l4.4-4.4l11.1-0.4l3.6,4.4l-12.3,1.2l-4.8,12.1l6,4.4l6.4,1.2v8.1l-10.4,11.7l0.4,5l7.1,5.6l11.5,18.5l1.2,9.7l38.5,20.6l9.1-0.4
		v8.7l-6.8,2.4l0.8,7.7l6,6l-0.4,17.7l-1.1,2l-0.4,4.8h-7.1l-0.4,11.5l7.5,4.6l10.3,10.6l13.5,13.3l4.4,21.4l4,19.3l-6.5-9.7l-1.4-8
		l-6-13.3L248,696l-4.8-1l-5,7.9l-8.1,67V781l6-9.1l3.2,1.2l4,4l-0.4,5.6l-7.1-1.2l-5.2,2.8l-3.4,24.8l-13.5,56.8l-3.6,21.4L201,901
		l-9.9,8.5l-8.7,2.8l2,6l20.3,6.9l7.9,2.8l-3.2,8.9l-3.6,6v3.6l7.5,2.8l2.8-5.2l4,1.2l21.8,14.5l15.9,0.4l1.2,7.7l7.5,5.6l1.2,6
		l5.6-0.4l4-5.6h9.1l2.8-2.8l4.4,0.4l15.1,14.9l9.9,0.8l4-4.4h4.8l2.4,4.4l34.2,0.4l1.2-15.3l23.8,6.9l10.3,4l2,4.4l10.7,1.2l2-3.2
		l2.4,1.2l4.8,7.3l2.4,0.4l3.2-2.8l3.2,0.8l3.6,3.6l7.5,0.4l3.2,4l0.8,8.1l9.5,3.2l6,5.6v5.6l7.1,0.4l7.1-7.3l6.4,1.2l1.6-3.6
		l13.9,6l2.8,3.2l13.5,0.4l2.4-6l9.1-1.2l4.8-4l2.4-2.4l6.3,1.6l5.4,6.5l6.4-0.4l1.6-7.3l-2.8-3.6l-6,0.4l-2.2-41.4l10.8-23.5
		l14.7-12.5l12.3-0.4l1.2-4l9.1-6l18.7-15.3l7.1-1.2l0.4-2.8h5.6l2.4,5.6l11.1,1.2l3.2,3.6l5.6,0.8l1.6-2l4.8-0.4l5.2,8.1l2,1.2
		h10.3l3.6,5.2l6-0.8l1.6-2.4v-4l-4-0.4l-1.4-4.3l10.3,0.4l7.1,10.1l4.4,0.4l3.6-3.6l8.7,0.4l5.6,4l1.2,5.6l5.2,3.2h11.5l2.4,3.6
		l6,0.8l7.9,8.5h6l2.4-6.9l7.9,0.4l3.2,3.6h6.8l2.4-5.6h5.6l0.4,1.6l7.1,0.8l0.8-4.8l9.1-0.4l9.9-5.2l2.8-6.4l-4.8-0.8l0.4-4l6.4-4
		v-6.4l10.3,0.8l12.3-17.3l5.2-0.8l15.1-16.5l9.5-2.8l3.2-4.4l-0.4-11.7l11.9-12.9l-1.2-11.3l-2.4-4.8l-9.1-1.2l-6,5.2l-10.7-0.4
		l-5.6-3.6h-9.1l-8.3-8.9l-7.5-8.9l1.2-6.4l-4-4.4v-5.2l4.8-6v-6.9l7.9-3.2v-4h-3.2l-2.8-8.9l-9.5-3.2l-7.5-6.4l-1.2-6l-4.8-3.2
		l-3.6-3.2l0.8-7.3l6-0.4l2-2l22.6-9.3l2-4l-2-2.8v-4l4.8-2.4l-0.8-5.6l-11.5-9.7l-5.2-12.5l-2.4-5.2l-6.8-2.4l-0.4-9.3l5.2-4l6-0.8
		v-5.6l2.8-2.8l-0.8-4l-10.7-9.7l-0.4-4l-6.4-2.4l-0.4-8.9l3.2-2.8l-1.6-5.2l-3.5-7.6l-15.5,0.4l-4.9,0.8l-2.4,2.8l-11.5,0.8
		l-2.8,2.8l-0.8,12.1l-11.5,6.4h-6v-6.4l4.4-3.2l4,0.4l0.8-6.4l2-4.8l-5.6-5.6l1.6-6.9l2.4-0.8v-5.2l-3.6-2.4l2.4-4l6-1.6l13.9-12.9
		l1.2-22.2l6.4-0.8l5.2-5.2h2.4l1.6-5.2l11.1-9.3l-0.8-5.2l5.2,0.8v-8.9l4.4-2.4l-0.4-6l-5.2-0.4l1.2-6.9l4-6.9h7.5l4.4,8.1
		l13.9-0.8l3.2-4l-0.4-4.8l3.6-0.8l4.8-3.6l2.5-8.4l-4.8-10.1l0.8-8.5l-2.8-2l-0.4-6l2.8-1.6v-14.9l-2.8-2v-4.8l2-2l1.2-4.8l5.2-4.4
		l-1.2-10.9l2.8-10.1l2.4-3.6l3.1-7.3l0.9-8.5l5.9-7.9l16.4-23.2l1.6-4l-0.8-5.2l-44.5-4.8l-5.6-7.3l-5.6-4l-4,0.4l-7.1,6.9h-8.3
		l-12.3-9.7h-6l-0.8,3.6l-2,3.2l-3.6-0.4l-7.5-10.5v-3.6l-5.2-3.2l-2.4-2.4l-3.2-7.7l-11.5-1.2h-8.5l-9.3,2.4l-5.6,0.8l-13.9-12.5
		h-5.2l-4,5.2H695l-5.6-8.5l-5.2-0.4l-2.4-7.7l-8.7,0.8l-4-6.4l-14.7-2.8L654,251l-0.1-7.2l2.9-5.5l0.4-7.3l-7.1-0.8l-4,3.6l-3.4,5
		l0.4,8.9l-11.4,4.2l-22.5-2.2l1.2-6.8l2-1.2v-5.6l-7-5.3l2-5.6l-0.8-7.3l-9.5-6.4l-5.2-1.2l-1.6,2.4l-5.2-2l-3.6-2.4l-4,2.8
		l-2.8-0.8l-1.6-8.9L564,195l-4-0.4l-3.2,2l-0.8,1.6l-4-1.6l-2.4-1.6l0.4-10.9l-3.6-7.7l-6-6.4l-12.7,0.4l-2.8,3.6l-3.6-0.4
		l-15.9-16.1v-8.1l-5.6-10.1l-3.2-0.4l-20.4,6.3l-10.5,1.4l-10.3,2.8l-6.8,6.7l-3.9,1.4l-5.2,4.8V174l0.7,4.2v28.5v6.5l-1.6,0.4
		l-1.2,14.9l-8.2,9.1l-6.8,7.3l-7.5,4l-9.1,8.1l-7.1,3.2l-4.4,1.6l-8.7,1.2l-10.3,1.6l-4.8,4l-10.3,3.2l-7.1,5.6l-7.1,3.2l-3.6,5.6
		l-2.4,8.1v6.4l14.9,3.4l-7.4,1.6l-10.7,9.5l-12.3,4.8l-5.6-2.3l-12.3-5.2l-15.5-2l-10.3-2l-4-0.6l-13.9-2.9l-1.6,1.2l-3.2,1.2
		l-4-10.1l-4.8-8.5l0.4-4c0,0,1.2-1.2,2.8-0.8c1.6,0.4,4.8-2.4,4.8-2.4l-1.6-6l-4.8-4h-9.1l-4,5.2l-13.1-1.2l-2.8-2.4h-3.6l-3.2-3.2
		l-4-0.4l-1.6,4.4l3.6,4.8l-0.4,7.3l-0.8,8.1l2.8,12.9l10.2,11.9l1.7,15.1l2,12.5l-1.6,18.5l-2,3.2l2.4,5.6l6,10.5h-20l-0.2-6.3
		l1.2-2.4v-2l-11.4-1.2l-5.6,9.3l-3.6-1.2l-0.8-2.8h-6l-0.4,3.6h-3.2l-1.6-4.4l-2.8,0.4l-1.4-2.6l-0.6-1l-5.2,0.4l-3.6,2l-10.1,10.7
		l-9.7-4.3l-5.2-1.2l-0.8-8.5l-12.5-18.8l-5.8-1.8h-7.9l-0.8,2.4h-13.9l-1.6-3.6l-4,1.2l-1.6,4l-0.4,8.1l-5.2,2.4l-3.6,0.4l-4-4.4
		l-6.8,0.8v2.8l-6.4,1.6l-1.2-5.2L52,363.2l-5.6,6.9l-3.2-0.4l0.4-6.4h-3.2l-6.8,4l-5.2,0.8l-0.8,3.6h-6.8l-2.4,3.6l-4.4,0.4
		l-4.4,0.8l0.4,5.6L8.1,384.6L8.1,384.6z"/>
	<line class="st0" x1="999.6" y1="607.6" x2="999.6" y2="483"/>
</g>
<g id="svg2" xmlns:cc="http://creativecommons.org/ns#" xmlns:dc="http://purl.org/dc/elements/1.1/" xmlns:inkscape="http://www.inkscape.org/namespaces/inkscape" xmlns:rdf="http://www.w3.org/1999/02/22-rdf-syntax-ns#" xmlns:sodipodi="http://sodipodi.sourceforge.net/DTD/sodipodi-0.dtd" xmlns:svg="http://www.w3.org/2000/svg">
	<path id="path18649" inkscape:connector-curvature="0" class="st3" d="M452,404.5l4.9-3.5l4.2-2.3l3.9-2.3l4.8-2.3l4.5-1.8l3.5-1.2
		l2.8-0.9l2.2-1l2.4-0.3l3.6-0.9l2.7-1.6"/>
	<path class="st4" d="M464.4,451.9c0,0,8.1,0.6,10-0.6c1.9-1.3,0.1-9.1,2-9.7s7.7-0.2,8.3-1c0.6-0.8,4.2-11.1,4-12"/>
	<line class="st4" x1="460" y1="439.7" x2="464.1" y2="440.3"/>
	<path class="st4" d="M529.1,977.6h-13c0,0-6.8-6-8.4-5.9c-1.7,0.1-12.4,0.5-12.4,0.5"/>
	<path class="st4" d="M533.8,924.2c0,0,1.8,3.7,2.2,5.9s1.1,6.5,1.1,6.5"/>
	<g id="layer2" inkscape:groupmode="layer" inkscape:label="stuff">
		<path id="path10767" inkscape:connector-curvature="0" sodipodi:nodetypes="ccccccccc" class="st5" d="M487.1,352.9l-4.4-2.6
			l-2.6-2l-2.8-1.6l-2.5-1.1l-2.1-0.3h-2.9H467h-2.1"/>
		<path id="path35073" inkscape:connector-curvature="0" class="st3" d="M527.2,191.9l-4.1,11l12.4-3.5"/>
		<path id="path27637" inkscape:connector-curvature="0" sodipodi:nodetypes="cccccccccccccccccccccccccccc" class="st5" d="
			M520.6,215.5l1.1-2.4l1.4-3.4l0.6-3.3l0.1-2.7l-1.8-3l-2.8-1.8l-2.7-1.9l-2.8-1.7l-2.6-1.8l-3.2-1.6l-3.3-0.9l-4.2-3.4l-1.2-3.8
			l0.4-2.7l1.4-1.7l1.4-2.4l-0.8-3.2l-0.3-1.9l-0.6-4.6l-1.9-2.9l-2.6-2.4l-1.2-2.8l0.6-2.8l0.8-4.7l0.6-3.5v-3.6l-0.7-4"/>
		<path id="path13016" inkscape:connector-curvature="0" class="st4" d="M505.7,393.7l1.8,1.3"/>
		<path id="path13014" inkscape:connector-curvature="0" class="st3" d="M507.5,395.1l5.1,0.4h3.7l2.4,3.7v2.6l0.4,2l2.9,2.4
			l3.1,0.9l5.3,4.8"/>
		<path id="path69085" inkscape:connector-curvature="0" class="st6" d="M503.1,381.4l1.5,4.2v3.3l1.1,4.8"/>
		<path id="path60657" inkscape:connector-curvature="0" class="st4" d="M579.3,481.3l2.1,0.1l2.3,0.6l1.5,1.7l1.1,2.5l1,2.4
			l1.5,2.7l2.1,1.6l2.7,0.2l2.7,0.2l3.2,0.9l3.1,1.9l3.4,3.5l4,4l3.4,4.7l1.8,2.4l1.8,4.2l0.9,2.6l1.8,3.2l3.1,4.9l2,3.4l1.6,4.1
			l1.2,3.3v2.9v2.7l-0.3,4.3l-1.5,3.4l-2.2,2.2l-1.9,1.6l-3.2,1.2l-3.3,1.6l-2.6,2.1l-1.9,1.4l-2.3,1.7l-0.6,2l-0.9,1.1l-2.2,0.5
			l-3.9-0.8l-4.2-0.9l-3.5-1.3l-3.8-0.7l-4.2-1l-4.3-1h-2.7l-3.5,0.5l-3.4,0.5h-4.6l-4.2-0.1c0,0-2.2-0.8-3.6-1.4
			c-1.3-0.6-3.2-3.7-3.2-3.7l-1.9-2.9l-2.4-3.8l-4.8-2.7"/>
		<path id="path59782" inkscape:connector-curvature="0" class="st4" d="M568.2,452.9l1.9,2.1l1.9,4.3l1.5,3.9l1.2,4.3l1.6,4.7
			l2.2,6.8l0.5,3.6l0.3,4.4l-0.6,2.5l-1,2.4l-1.6,1.7l-2.3,2.5l-1.6,2.6L571,502v3.8l0.2,3.3l1.6,3.6l2.6,2.8l3.1,3.2l3.3,3.9"/>
		<path id="path58907" inkscape:connector-curvature="0" class="st7" d="M573.8,449.5l3.4-1.4l3.6-0.8h3.6l2,1.3l3.5,2.3l2.5,2.1
			l3.3,3.3l2.5,2.1l2.2,1.7l5.8,2.9l1.9,1.4c0,0,1,1.5,1.2,1.9s0.5,2.4,0.5,2.4l0.2,1.9l2.4,1.6l2.5,0.7l2,1.2l0.4,1.2v1.5l0.6,3.5
			l1.8,2.6"/>
		<path id="path58032" inkscape:connector-curvature="0" class="st3" d="M556.2,367.6l-2.7-2.3l-2.2-0.6l-3.1-0.3h-3.3l-3.1-0.3H538
			l-4.3,0.8L531,366l-1.1,1.5l-1.2,3.1l-1.8,0.8l-3.2,1.8l-3.2,2.6"/>
		<path id="path57157" inkscape:connector-curvature="0" class="st3" d="M742.6,301.8h1.6l2.6,1.4l2.8,1.3h2.3l1,2.9l0.9,0.8
			l3.1,0.2l3.1-0.5c0,0,2.1-0.9,2.5-0.9s4,0,4,0l0.7,0.2"/>
		<path id="path56282_1_" inkscape:connector-curvature="0" class="st4" d="M646.4,458l3.3-0.4l1.6-0.4l1.8-0.7l1.1-0.1l1.9-0.5
			l3.4-0.8l3.5-1.4l2.4-2.3l2.4-2.3l0.7-3.7l1.6-3.8l3.2-2.1l3.8-2.6l1.8-2.8l1.1-2.6l-2.8-1.2v-2.7l0.9-2.1l1.9-3.4l0.5-2.6
			l-1.7-2.7v-2.9l0.4-7.6v-8.2l-0.4-5.3l-1.8-4.6l-3.1-4.4l-2.7-2.7l-2.9-2.5l-3.7-1.9"/>
		<path id="path56282" inkscape:connector-curvature="0" class="st3" d="M664.9,376.4l-2.4-1.5l-3.1-2l-4.5-1.7"/>
		<path id="path55407" inkscape:connector-curvature="0" class="st4" d="M769.1,416.2l1.3,3.5v3.6l-1.4,2.1l-2.4,3.1l-3.1,3.3
			L762,434l-1.6,2.4l-1.1,2.2v2.5l1.7,1.9l2,2l1.4,2.4v2.5l1,2.5l2,4l1.8,3.7l1.7,3.8l3.6,3.2"/>
		<path id="path54532" inkscape:connector-curvature="0" class="st4" d="M329.9,368.7l-2,1.4l-2,1.2H323l-1.5,0.3l-2.2,0.9l-3.1,0.1
			l-3.7,0.1l-3.5-0.4l-2.8-0.7h-3.3l-3.7-1.5l-2.9-1.2l-1.7-1.8l-1.5-2.5l-1.7-1.7l-2-1.6l-2.5-0.2H285l-2-1.3l-1.5-2.3l-2.2-0.5
			h-3.6h-8.4l-2.4,0.2l-2.7,0.6l-3.5,0.1l-7-0.1H245l-6.6-0.3l-7.4-0.1"/>
		<path id="path53657_1_" inkscape:connector-curvature="0" class="st3" d="M343.4,310.2l1.1,0.7l0.9,1.9l1.2,2.5l0.9,2.4l1.5,2.9
			l1.4,2.5l1.3,2.2l1.3,1.4l1.2,3.3"/>
		
			<path id="path53655_1_" inkscape:connector-curvature="0" sodipodi:nodetypes="ccccccccsccccccccccccccccccccccccccccccccccccccccc" class="st4" d="
			M425,371.4l-4.2-1.4l-3.6-2l-4-1.7l-3.6,0.1l-4.8,0.6l-4.7,1.2l-5.3,0.2l-4.6-0.2l-4.1-1.1l-4.5-0.8h-3.4l-2.6,1.4l-1.3,1.5
			l-2.2,0.3h-1.9l-2.4,0.7l-1.5,1.3l-1.2,1.7l-2,0.4l-3.2-0.1l-2.3-0.6h-3.3l-3.8-0.1l-2.8,1.8l-2.5,2.7l-1.6,0.8l-3.7-1.4l-3.5-2.7
			l-2.2-2l-2-2l-2.5-1.2l-1.3-4.6l-0.8-4.8v-4.8l1.4-4.3l1.3-4.6l0.8-5.6l1.3-5"/>
		<path id="path51032" inkscape:connector-curvature="0" class="st4" d="M443.7,345.9l-1.6,2.1l-2.6,1.5l-3.2,1.4l-2.2,1.6l-2-0.1
			l-1.9-2.1l-2.7-2l-2.8-1.9l-2-0.8H420l-1.7-0.2l-2.2-1.4l-2.2-0.8h-3.1L408,344l-2.5,0.9l-2.7,1.1H399h-3.3l-2.9-1.9L389,341
			l-1.4-2.4l-1.4-2l-1.7-1.7l-1.7-3.8l-0.7-3.8l-0.4-3.1l-0.4-4.6l-0.2-3.1l1-1.6l1.9-0.9l2.8-0.3h4.3h8l4.3-0.8l2.5-0.5l2.7-1
			l1.3-1"/>
		<path id="path51907" inkscape:connector-curvature="0" class="st5" d="M230.7,276.5l-1.4,2.2v2.2l0.4,2.8l2.4,1.6l3.5,1.8l3.3,1.2
			l3.3,1.7l1.9,3.1l2,3.2l1.6,4.1l1,2.5l1.2,3.3l1.5,2.1l1.2,1.2l2,0.8l2-0.1h1.5l2.2,0.3l1.5,0.9l1.5,1.9l1.2,2l1.1,0.9l2.7,0.2
			h3.5l3.9-0.5l4.2-1l4.3-0.5h3.9l1.3,0.3l5.6,3.3l2.4,2.2l2.2,0.9l2.9,0.8l4.9,1.9l5.2,2l4.1,2.2l3.9,2.2l4,2.6l4.3,1.4l3.8,0.5
			l5.5-1.6l3.9-1.5l6-1.2l2.2-0.2l4-0.4l3.3,1.6l1.6,0.4l3.5,1.8l3.5,0.8l4.2,0.7l4.1,0.2l4.1-0.4h3.3l3.1,0.2l2.2,1.7l1.3,2.3
			l1.1,2l3.5,2.6l2.7,1.8l6.8,0.1l8.1-3.2h3.4l2.2,1l1.7,1.3l5,0.1l3.7,1.8l3.7,2.3l1.3,1.9l0.9,0.9h2.1l1.2-1.3l2.5-1.2l2.8-1.4
			l2.5-2.4"/>
		<path id="path50157" inkscape:connector-curvature="0" class="st3" d="M506.9,363.5l-2.1,1.8l-2.1,1.4l-2.5,1.5l-2.7,1.1l-0.7,0.5
			"/>
		<path id="path50150" inkscape:connector-curvature="0" class="st3" d="M487.5,361.5c-3.4-0.1-3.8-0.1-4.2-0.3
			c-0.4-0.2-0.7-2.7-0.7-2.7l0.9-2.5l-1.6-2.5l-2.5-2.7l-2.1-1.6l-2.2-0.1l-2.2,0.4l-1.9,1.4h-1.4l-2.1-1.9l-1.3-3.2"/>
		<path id="path47525" inkscape:connector-curvature="0" class="st4" d="M493.9,259.6l2.2,3.8l1.9,2.1l1.7,1.9l0.5,2.1l0.7,1.5
			l1.4,0.7l0.7,1.1l0.2,2.4l0.1,2.7l1.2,4l0.2,3.6l0.7,2.5l1.7,2.9l4,2.8l4.2,3.8l6.8,5"/>
		<path id="path46650" inkscape:connector-curvature="0" class="st5" d="M563.3,238.4l3.6-1.7l2.6-2.3l2.4-0.5l2.3-0.6l3.5-2.7
			l2.1-2.2l3.6-1.7l3.3-2.1l5.2-2.8l3.7-2.2l2.1-1.8l3.7-2.1l0.8-0.6"/>
		<path id="path45775" inkscape:connector-curvature="0" class="st4" d="M644.1,266.6l1.7-1.6l1.7-2.8l0.9-3.8l-0.2-2.6l-0.2-2.5
			l0.7-1.3l0.5-3.1l-0.4-2l-0.3-2.5l1.6-4.2l3.8-5.5"/>
		
			<path id="path44025_1_" inkscape:connector-curvature="0" sodipodi:nodetypes="ccccccccccccccccccccccccccccccccccccccccc" class="st4" d="
			M722.5,320.3h-2.7h-6.3h-4.6l-4.1,0.1l-4.4,1l-4.2,1.7l-4,1.6l-2.5,1.8L686,328l-2.5,0.3l-3.1-0.7l-2.7-1.7L675,325l-1.9,0.6
			l-0.8,1l-1.4,2.1l-2.1,2.2l-3.3,1.3l-4.1,0.3l-6.1,0.3l-5,0.3l-5.6-0.1l-7.1-0.1h-4.3l-4.4,0.9h-2.7l-3.3-0.9l-2.6-3.6l-3.4-2.9
			l-3.9-3.3l-4-2.1l-5.5-4.3"/>
		<path id="path43150" inkscape:connector-curvature="0" sodipodi:nodetypes="ccccccccccccccccc" class="st3" d="M729.2,337.7
			l-2.3-3.4l-1.7-3.4l-0.8-3.7v-3.3l-1.2-2.7l-2.4-3.3l-2.5-2.5l-3.6-2.3l-2.4-2.3l-1.5-2.6l-0.9-4.2l-0.6-3.4l-2.7-5.2l2.3-1.9
			l3.8-0.6h1.4"/>
		<path id="path42275" inkscape:connector-curvature="0" class="st5" d="M705.4,360.7l2.7-1.7l3.3-2l3.2-2.3l2.4-1l1.9-2.8l2.5-4.7
			l3.7-3.9l2.4-2.6l1.9-1.9l4.1-0.2l4.8-0.3"/>
		<path id="path41400" inkscape:connector-curvature="0" class="st5" d="M680.6,364.2l2.6,2.9l1.8,1l2.7,0.8h3.8l1.8-1.1l2.2-1.6
			l1.1-2.3l1.1-2.2l2-0.9h2.5l3.1,0.4l1.3,1.8l1.6,2.3l2.3,2l3.3,0.3l2.8,0.9l2.5,1.2l2,0.6l3.4,0.6l1.7,0.1"/>
		<path id="path39650" inkscape:connector-curvature="0" class="st4" d="M850.7,369.4l-0.4-3.4l-0.2-2.6L850,361l-1.2-3.4l-2.1-2.7
			l-4.1-3.7l-2.7-1l-2.4-2l-3.2-2.1l-2.3-2.3l-0.9-2.1l-0.1-1.9l-2.3-2l-2-0.6l-2.2,0.1l-2,1.2l-1.2,1.2l-1.4,1.8l-2.5,1l-2.7-0.2
			l-1.2-1.4l-1.9-2.7l-2.1-3.6l-1-2.4L807,328l-0.2,2.3l-2.1,1.4l-1.4,1.5l-0.5,2l0.6,1.8l1.5,2.6l1.1,1.6v2.4l-0.2,2l-1.3,1.1
			l-1.4,1l-0.7,1.5l-0.1,1.9v1.9l1.5,5.1"/>
		<path id="path38775" inkscape:connector-curvature="0" class="st4" d="M848.8,362.5c1-0.8,3.3-2.8,3.3-2.8l2.4-3.4l1-1.5v-1.6
			l-1.1-1.8l-1.3-1.1l-0.6-1.5v-2l0.3-2.9l1-3.3l1.3-2.4l2-0.9l1.7-0.8l0.5-1.6v-4.3"/>
		<path id="path40525" inkscape:connector-curvature="0" class="st4" d="M852.5,348.4l-2.3-1.1l-2.9-1.9l-3.5-4l-2.6-4.4l-2.9-4.4
			l-2.3-2.5l-2.1-1.4l-2-0.1l-2,1.2l-1.3,1.1l-2,0.5l-2.2-0.2l-2.1-1.3L821,329l-1.5-1.1l-2.2-0.4h-2.9h-4l-1.7,0.1h-0.9
			c0,0-1.9,0.1-2.3-0.1c-0.4-0.2-2.3-1.5-2.3-1.5l-2.7-1.3l-1.6-0.7l-2.7-0.7h-2.7H790h-5.4"/>
		<path id="path37900" inkscape:connector-curvature="0" class="st4" d="M851.1,369.6l1.4-2.3l1.7-1.9l2.9-1.6l3.1-2l1.8-1.9
			l1.1-1.1l1.1-2.3l1.7-3.1l1.8-4.4l1.4-4l1.4-3.3l3.5-4.4"/>
		<path id="path37025" inkscape:connector-curvature="0" class="st3" d="M744.7,325.9l2.6,3.2l2.3,1.7l2.1,1.3c0,0,2.1,1.2,2.5,1.4
			c0.4,0.2,3.8,1.2,3.8,1.2l2.5,0.1h2.5l3.5-0.4l2.7-1.9l2.7-1.1l2.8-0.7l3.5-0.5"/>
		<path id="path34402" inkscape:connector-curvature="0" class="st4" d="M834.7,376.7l0.8,1.6l0.9,2.2l0.9,1.9l-0.1,1.9l-0.8,1.3
			l-1.4,2.5l-0.7,3.4l-0.4,3.2v3.3l0.2,3.2v2.3"/>
		<path id="path33527" inkscape:connector-curvature="0" class="st4" d="M776,426.8l2.9-1.8l2.3-2.3l2.7-3.1l1.9-2.8l2.7-1l2.8-1.3
			l3.7-0.8l2.6-0.5l3.4-1.6l1.3-2l1.5-1.2l2.5-1l2.8-1.8l2.5-3.1l1.2-4.4l1.3-5.9l1.4-5l0.8-3.5l4-2.8l5.2-1.9l3.8-1.1l4.3-0.9
			l5.8-2l4.5-0.5l3.6-1.4l2.8-1.7"/>
		<path id="path32652" inkscape:connector-curvature="0" class="st4" d="M810.8,431.9l2.8-1.2l2.3-1l2.8-0.1l3.1-0.8l1.7-1.9l1-1.2
			l1-1l1.8-0.1h1.9"/>
		<path id="path31777" inkscape:connector-curvature="0" class="st4" d="M806.5,442.7l1.7,1.5l1.6,1.8l1.4,1.7l0.6,2.1l0.8,2.1
			l1.9,1l2,0.3l1.7-0.1l1.7-0.2h1.6l2.7,0.1l1.4,0.7l3.4,2.8"/>
		<path id="path29152" inkscape:connector-curvature="0" class="st4" d="M599.9,749l0.6-4l-0.6-3.2l-1.1-3.8l0.1-3.1l1-2.6l1.9-1.4
			l2-0.6h3.5h3.7l2.9-1.3l1.7-3.2l0.4-4.3l1.9-2.8l4-2.2l3.2-2l4.5-2.2l1.4-2.9l0.4-3.2l-1.8-2.2l-2.2-2.4l0.3-4l0.7-2.4l0.2-3.3
			l-1-4.8l-2.1-7.3l-2.3-7.1l-3.5-7.5l-3.1-5.9l-1.5-4.7l-0.6-4.2l-0.6-4.6"/>
		<path id="path28277" inkscape:connector-curvature="0" class="st4" d="M544.2,670.4l3.6-1.1h2.2l2,0.4l2.2,0.8l1.3,0.6h1.7
			l2.1-1.1l1.9-1.3l2-1.5l2.9-0.1l2.2-0.1l3.5-1l2-3.1l2.8-1.3h3.5l3.6-0.1l2.8,1.2l2.8,2.3l1.4,1.9l1.6,0.9l2.5,0.2h3.4l2.4,0.8
			l2.5,2.4l2.1,1.4l1.4,1.8l1.7,3.5l1.7,3.1l0.1,4l0.2,3.3l1.3,2.9l2.3,4.5l2.1,2l4.1,2.1l4.3,1.8l4.5,2l2.6,2.6"/>
		<path id="path27402" inkscape:connector-curvature="0" class="st4" d="M406.3,683.6l2.1,1.3l0.7,1.7l-0.4,2.5l-1,2.5l0.1,2.2
			l0.2,2.2v1.5l1.2,1.9l0.8,0.3l2.2,0.2l2.2,0.6l1.6,0.9l1.9,1.3l1.8,2.4l1.3,2.7l0.7,3.3v3.2l0.3,13.5l0.3,1.5l1.1,2.9l1.2,1.6
			l2.2,2.9l1.9,1"/>
		<path id="path26523" inkscape:connector-curvature="0" class="st4" d="M556.1,715.1l-1.9-0.5l-1.5,0.2l-2,0.8l-1.1,1.1l-0.2,1.8
			l0.4,2l0.7,2l0.7,2.6l-1.5,2.1c0,0-1.8,1.7-2.3,1.7s-2.2,0.8-2.2,0.8l-2.7,2.5l-2,2.9l-2.7,3.9l-1.3,1.8l-2.4,0.6h-2.2l-2.4,0.4
			l-2.3,0.9l-1.7,0.3l-1.5-0.3l-2.2-0.1l-1.2,0.4l-2.2,2l-1.4,1.6l-1.3,2.1l-1,2.1l-2.2,2.7l-3.9,3.6l-4,3.2l-3.6,1.1l-2.7,0.1
			l-2.5-0.1l-2.2,0.5l-4.5,0.2l-3.9-0.7l-3.8-2.7l-2.7-2l-2.8-1l-6.3-1h-4.5l-2.1,1.8l-2.7,0.3l-1.7,0.2l-2.4,1.4l-2.7,0.9h-4.2
			h-4.1l-3.3-0.4l-1.1-2.7l-0.4-4.3l-1.2-4.5l-2.2-4.2l-1.7-2.7l-2.5-3.7"/>
		<path id="path23024" inkscape:connector-curvature="0" class="st4" d="M613.8,839.6l1.5-2.5l2.1-2l2.6-1.8l1.9-2.4l0.4-2.4l-0.3-2
			l-1.5-0.5l-0.5,0.8l-1.8,0.3l-3.8-2.2"/>
		<path id="path30027" inkscape:connector-curvature="0" class="st4" d="M547.2,657.9l1.4-3.8l0.3-3.8l1.9-2.8l1.7-3.1l0.1-3.3
			l0.2-4.7"/>
		<path id="path22149_1_" inkscape:connector-curvature="0" class="st7" d="M542.5,675.3l1.9,1l2.9,2.1l1.9,2.6l2.1,4.4l1.1,4.3
			l0.6,4.8l0.2,3.8l0.9,6.3l0.8,6.8l0.9,3.4l1.4,3.7l2.2,2.9l2.9,1.6l2.9,1.3l2.9,1.3l1.8,2l1.4,2.2v2.8l-0.8,2.1l-0.1,1.8l0.8,2.5
			l2.2,3.7l1.9,4.1l6.6,13.2l2.3,3.9l2.6,3.5l4,5.4l3.2,4.2l1.9,3.6l1.6,2.8l0.9,3.1l0.9,3.8l0.3,3.9l0.1,1.6l0.9,3.1l0.8,3.2
			l0.9,5.7l1.1,5.6l0.3,2.7l1,5l1.2,4.5l2.2,4.9l2.7,5l1.4,3.2l2.3,4.6l0.3,2.4l1.1,2.5l2.1,2.5l1.8,2l1.5,2.3l0.3,3.6v3.3l1.1,2.2
			l2.8,3.1l4.2,4"/>
		<path id="path22149" inkscape:connector-curvature="0" class="st5" d="M559.9,590.1l-0.7,4.5L559,599l-0.2,4.2v4l1.4,3.5l2.1,4.3
			l1.6,3.2l1.4,3.5l0.2,2.5v6.5v5.7l-0.3,5.6l-2.3,4l-3.8,2.4l-2.8,1.8l-1.8,1l-0.9,1.9l-0.7,1.8l-1.6,1.7l-1.7,0.6l-2,0.5l-1.6,1.6
			l-0.4,2.5v2.5l-0.2,2.7l-1.2,2.7l-0.8,1.9l-0.7,1.9l-0.1,1.5"/>
		<path id="path21274" inkscape:connector-curvature="0" class="st4" d="M520.4,695.8L518,692l-2.4-2l-3.4-3.5"/>
		<path id="path20399" inkscape:connector-curvature="0" class="st4" d="M489.5,536.1v2.5l-1.2,2.5l-1.7,2.1l-0.8,2.2l0.2,2.2
			l0.7,3.1v1.9l0.3,2.5l1,2.8l0.5,3.3l1.4,3.5l2.2,1.6l2,1.9c0,0,1.5,1.6,1.7,2s2.1,3.7,2.1,3.7l1.9,1.7l2.7,2.5l2.3,2.4l2.1,2.4
			l0.9,2.2l0.3,3.1l0.1,4.8v6.4l0.4,4.6v4.3l0.4,4.1l-2.5,4.4l-2.3,2.9l-1.5,2.9l-0.6,3.4l-0.5,16.7l-0.6,13.1l-0.7,6.7v4.1
			l-0.8,3.9l-0.7,4.1l-1.2,2.9l-0.4,3.6v2.3v2.8l1.1,2.9"/>
		<path id="path19524" inkscape:connector-curvature="0" class="st4" d="M430.6,532.6l2.5-0.4l2.5-1l3.5-1.4l2.6-3.4l1.5-3.8
			l2.1-4.4l2.2-3.5l2.7-2.5l2.9-2.5l3.4-1.5h3.8l2.3,0.4l1.9,0.5l2.1-0.1l1.3-0.9c0,0,1.6-0.1,2-0.2s2.1-0.3,2.1-0.3"/>
		<path id="path18649_1_" inkscape:connector-curvature="0" class="st4" d="M374.7,503.4l1.9-3.7l2.5-1.9l1.2-0.2h3.1l1.9-0.6
			l3.8-2.2l2-2.7l1.2-3.5l0.7-2.8l0.9-2.5l1.4-0.9l3.7-1.4l3.7-1.8l1.4-2.6l1.4-3.6l1-3.3l0.4-2.8v-3.3l0.4-1.4l1-2.7l1.5-0.8
			l2.5-0.2l1.8-1l2.1-2.8l1.4-6l0.6-2.4l1.2-1.4l2.5-1.1l2.2-2.3l0.5-5.1l1.3-3.5l1.3-3.1l3.3-2l3.9-1.2l4.2-1.4l4.3-2.6l2-3.4
			l2.6-6.1l1.5-3.9l2.5-4.3"/>
		<path id="path17774" inkscape:connector-curvature="0" class="st4" d="M430.8,401.8l-7.1,5.1l-2.8,3.1l-1.9,3.5l-2.4,3.3l-1.6,3.1
			l-1.5,4l-0.8,4.8l-0.2,3.7l0.3,4.7v2.2"/>
		<path id="path16899" inkscape:connector-curvature="0" sodipodi:nodetypes="ccccccccccccccccccccccccc" class="st5" d="M488.6,361
			l-0.9,1.6l-2.2,0.9h-2.1h-2.2l-3.7,0.5l-3.5,1.7l-2.7,1.2l-4.3,2.2l-3.6,1.9l-2.1,2.5l-1.9,3.9l-1,2.9l-1.5,2.3l-2.6,0.2l-2.2,1
			l-2.7,0.6l-3.4,1l-3.2,0.5l-0.3,2.6l-0.2,2.7l-1.1,1.8l-1.6,1.9l-3.3,3.4L433,401l-3.3,0.7l-4.1-1.2l-3.8-0.9l-2.9-0.1l-3.1,0.7
			l-2.3-0.7l-2.4-1l-3.6-0.1h-5.7l-2.9,0.5l-2.8,1.6l-1.6,2.3l-2.9,3.7l-0.9,2l-1.1,1.9l-0.6,2.2l-1.4,2.1l-2.5,1.1l-3.1,0.7
			l-1.8,1.8l-1.4,2.3l-1,3.3l-0.5,1.8l-1.5,2.1l-1.2,1.2l-1.6,2.3l-1,2.3l-1.4,1.6l-2.4,1.8l-3.5,1.6l-3.8,1.5"/>
		<path id="path16024" inkscape:connector-curvature="0" class="st4" d="M494.3,256.3l3.6,0.9l2.8,0.5l3.2,1.3l3.2,2.3l3.3,2.3
			l2.4,2l4.2,2.5l4.9,2.2l6.6,1.5l4.9,0.9l5.9,0.4l4.9-0.3l6.3-0.4l1.6,3.5l1.2,1.5l3.9,0.5l3.5,0.1l3.9,0.4l3.9,2.5l2.9,2.7
			l3.6,1.7l3.8,0.7l3.8,0.3l4.1,1.5l3.5,1.9l3.9,2.7l2.4,2.2l1.4,2.6l0.5,2.8v3.1l0.7,2.1l0.9,2.3l2,2.9l1.5,4.7"/>
		<path id="path50153" inkscape:connector-curvature="0" sodipodi:nodetypes="ccccccccc" class="st5" d="M487.1,352.9l-4.4-2.6
			l-2.6-2l-2.8-1.6l-2.5-1.1l-2.1-0.3h-2.9H467h-2.1"/>
		<path id="path13399_1_" inkscape:connector-curvature="0" class="st3" d="M477.1,303.4l-0.2,3.7l0.2,5.5l0.4,5.1l0.1,4.6l2.7,2.6
			l4.1,3.9l2.4,3.2l2,2.9l0.8,3.1v2.4l1.1,1.7l1.5,2.5l1,8.3"/>
		<path id="path13399" inkscape:connector-curvature="0" class="st4" d="M432.3,236.7l3.2,1.8l1.5,1.5l1.8,1.6l1,2.2l0.8,2.7
			l1.3,1.9l1.9,2.1l2.2,2.1l1.7,1.5l1.4,2.6l1,2.7l0.1,2.3l0.8,2.4l1.3,3.5l0.9,4.5l0.2,3.3l1.5,1.7l3.6,0.8l2.9-0.2l2.5,0.3
			l1.3,1.1l0.2,1v2.7v3.1l0.1,4l0.7,3.1l2.9,3.6l2.9,3.2l4.2,2.4l0.5,0.9"/>
		<path id="path11649" inkscape:connector-curvature="0" class="st4" d="M362.4,272.4l0.2,3.5l1.3,2.8l0.9,3.8"/>
		<path id="path9899" inkscape:connector-curvature="0" class="st5" d="M429.5,647.7c-0.4-0.1-3.2-3.7-3.2-3.7l-2.1-3.3l-0.5-3.5
			l0.7-4l2.5-2.1l1.2-2.3v-3.7l0.1-4.8l0.6-3.3l2.2-3.7l4.7-8.1l0.8-3.1l-0.2-4.2l-0.9-3.9l-0.9-4.8l-0.5-4.1l0.8-3.2l1.9-1.5
			l1.3-4.9l1.1-3.5l2.9-2.7l4.5-2.6l5.7-4.3l4.6-2.7l5.8-3.5l3.6-3.5l1.1-3.7l1.2-3.3l1.7-3.4v-3.5l0.3-4.4l0.3-3.4l1.6-2.4l0.7-3.3
			v-2.6l-1-1.9v-3.4v-5.7l0.2-9.7v-5.2l-0.6-7.1l-2-4.6l-2.6-6.3l-1.2-3.8l-0.2-4.6l0.2-4.7l0.5-4.4l-1.3-2.7l-1.5-3.9"/>
		<path id="path17932" inkscape:connector-curvature="0" class="st5" d="M429,740.7l-0.3-4v-3.8l-2.4-5.3l-0.4-4.1l1.2-5.2l1.9-4.3
			l1.3-4.6l0.9-5.1l-0.6-6.6l-2.3-5.6l-6-6.3l-5.7-5.1l-3.5-4.1l-0.5-2.6l0.8-5"/>
		<path id="path9024" inkscape:connector-curvature="0" class="st5" d="M415.9,851.1l0.8-5.6l2.9-3.3l4.3-2.9l5-3.7l1.9-2.4
			l-1.1-3.1l-1.7-4.6l-0.9-4.6v-4L425,814l-3.1-2.8l-1-2.3l0.3-2.4l-0.4-3.7l-2.1-5.3l-1.3-5l-0.8-4.2l-0.1-6l-0.1-5.3l1.4-4.8
			l2-4.7l2.2-2.6l1.3-1.5l1.7-2.5l0.8-4.8l0.4-4.8l0.7-3.9l1.1-4.1l0.9-2.7"/>
		<path id="path8149" inkscape:connector-curvature="0" class="st7" d="M532.7,348.3l2.6-2l1.4-0.5l2.5-1.6l0.8-4.5l0.2-5.4l0.6-3.7
			l2-2.8l2.5-1.4l3.7-1.4h3.4l12.3,0.2l2.6-1.6l3.1-3.9l2-3.3l1.6-1.6l2.8-1.1h4h3.6l3.3,1.2l3.9,0.9h3.3l5.9,0.2h2.8"/>
		<path id="path44900" inkscape:connector-curvature="0" class="st3" d="M599.8,340.3l1.9-1.2l2.3-2.3l-0.5-3.6l-0.3-4.2l-1.1-6
			l0.4-1.5"/>
		<path id="path7274" inkscape:connector-curvature="0" class="st5" d="M498.3,355.2l3.9-0.9l4.5-0.9l3-0.3h5.3l5.4,0.2h5.3l1.7-2
			l2.5-2l2.6-0.5l3.7,0.6l3,1.2l3.1-0.2l2.6-0.5l1.9-0.5l2-1.1h1.9l0.8,1.2l1.4,2h3l2.8-2.2l4-3.4l2.8-3.6l2.3-1.1l2.8-1.2h2.8
			l3.3-1.9l3.7-1.1h4.7l4.8,0.6l4.2,0.3l3.9,1.4l4.2,1.6c0,0,4.8,1.6,5.4,1.6s2.8,0,2.8,0l5.3,0.3l4.7,1.9l2.5,2.5"/>
		<path id="path5524" inkscape:connector-curvature="0" class="st3" d="M797.3,654.9l4.8-0.9l5.3-1.1"/>
		<path id="path2018_1_" inkscape:connector-curvature="0" class="st5" d="M691,630.7l2-6.1l4-6.7l2.2-6.8l1.1-10.6l2.6-6.8l4.4-6.4
			l5.8-9l3.7-8.2l1.1-6.8l3.3-7.2l5.9-6.7l4-5.8l1.9-11.7l1.2-5.9l2.3-4.7l2.5-5.3l7.8-3.3l2.2-3.7l3.1-1.1l4.8-1.1l3.3-1.9l4.8-3.6
			l3.9-2.5l7.3-2.3l2.3-2.2l3.4-2.5l7.3-1.6l3.7-1.6l2.3-2.8l1.6-2.6l-1.4-3.3l-0.8-2.3l0.5-1.9l3.1-2.5l1.9-2.2"/>
		<path id="path2018" inkscape:connector-curvature="0" class="st7" d="M669.8,667l2.8-5.3l3.3-8.6l2.5-5.3l4-7.3l4.7-5.6l3.9-4.8"
			/>
		<path id="path55915" inkscape:connector-curvature="0" class="st5" d="M665.3,670.4l4.5-2.2l5.1-0.6l3.9-0.6h7.9l4.1-1.8l1.6-4.1
			l2.6-2.6l3.5-1.6l3.5-2.4"/>
		<path id="path52111" inkscape:connector-curvature="0" class="st5" d="M520.3,409.9l-1.2,2.2l-4.9,1.8l-2.4,1.6l-1.6,3.3l0.8,2.8
			l2.2,4.7l1.2,3.3l1.6,3.9v5.3v3.1v4.3l1,3.1v5.5l-0.4,4.7l-1,4.7l-2.8,4.3l-1.8,2.2l-0.8,2.4v3.1l1.6,2.8l4.3,5.1l2.8,3.3l4.1,4.5
			l3.1,4.1l2,4.1l0.8,4.1l-1.8,4.9l-0.8,3.1l1.4,2.2l2.8,3.3l2.2,1.8l1.8,3.3l0.2,4.1l0.6,3.5l2.2,5.1l1.2,4.9c0,0,0.2,1.4,0.6,2.2
			c0.4,0.8,2.2,4.1,2.2,4.1l5.5,0.8l-3.7,3.9l-4.3,3.7"/>
		<path id="path15149_1_" inkscape:connector-curvature="0" class="st4" d="M456.1,317.7l-2.1-2.6l-2-4.4l-2.1-5.3l-0.5-2.6l1.5-1.9
			l0.7-3.2l-0.4-3.8L450,291l-1-3.2l-1.5-1.2l-2.2-0.2h-1.5l-2,0.9l-1.7,0.3l-2.3-0.6l-1.7-1.9l-3.8-3.9"/>
		
			<path id="path49428" inkscape:connector-curvature="0" sodipodi:nodetypes="ccccccccccccccccccccccccccccccccccccccccc" class="st5" d="
			M539.8,208.2l1.6,5.5l3.7,5.9l1.8,3.9l3.1,5.1l4.9,2.8l3.9,1.6l3.1,1.4l1.2,3.7l-0.4,5.5l-1.8,8l-6.3,6l-2.8,4.1l-1,5.3l-0.8,4.5
			l2.8,6.1v1.4l-2.4,3.1l-4.7,2.8l-4.1,1.2H539l-3.5,0.4l-2.6,2.4l-3.3,2.8l-2,3.9l-1.6,3.1l-1.6,2.4l-3.7,3.5l-5.3,3.7l-3.7,2.8
			l-4.5,1.8l-4.9,2l-2.8,2.4l-5.5,4.9l-3.5,3.7l-2,3.1l-3.9,1.8l-2.8,2l-0.4,5.1L481,342l0.6,0.4"/>
		
			<path id="path48553" inkscape:connector-curvature="0" sodipodi:nodetypes="ccccccccccccccccccccccccccccccccccccccccccccccccc" class="st5" d="
			M534.7,186.8l3.9,2.8l6.7,3.7l4.5,1.6l5.1,1.4l4.1,1.8l2.8,3.7l1.8,4.1l1.8,3.9l2,3.7l4.1,3.7l4.9,2.6l4.9,2l3.6,2.5l3.5,3.4
			l2.1,2.1l4.7,1.3l4.1,3.3l2,3.9l2.4,5.5l0.2,9.2l2.8,3.5l2.4,1.6l2.8,2.8l4.1,1.4l4.1,1.8l1.4,2.4l4.5-0.8l4.5-2.4h4.3l5.3,1.8
			l6.5,2.8l4.7,3.5l4.7,1.8l4.9,0.8l7.9,2l6.1,1.8l4.1,3.9l4.1,5.7l3.1,3.5l5.9,3.3l4.1,1.2l6.1-0.6l7.3,1l4.2,3.1l8.1,2.2l7.9,1.2
			l8,1l4.7-0.6"/>
		<path id="path14274" inkscape:connector-curvature="0" class="st4" d="M477,302.9l2.4,1.1l1.4,1.1l3.2,2.9l1.3,1.3l1.6,1.5
			l1.5,0.6l1,0.8l0.7,1.4l0.9,2.4l1.5,1.1l3.3,0.8l2.4,0.4"/>
		
			<path id="path43247_2_" inkscape:connector-curvature="0" sodipodi:nodetypes="cccccccccccccscccccccccccccccccccccccccc" class="st5" d="
			M487,255.4l3.5,1l3.5,3.1l0.4,4.9l-2.8,3.9l-0.2,4.1l0.4,5.1l1.6,3.9l1.8,3.7l1.4,6.1l-0.2,4.1l-1.4,6.9l0.2,5.1l2,4.5l1.2,5.3
			l0.2,3.1l-0.4,4.7l2,4.3l1.4,2.2l-0.2,4.5l-2,6.9"/>
		
			<path id="path43247_1_" inkscape:connector-curvature="0" sodipodi:nodetypes="cccccccccccccscccccccccccccccccccccccccc" class="st5" d="
			M441.2,172.2l0.6,4.5l1.6,5.7l1.4,4.7l1.6,5.7v5.1v4.3l0.4,6.9v4.1"/>
		
			<path id="path43247" inkscape:connector-curvature="0" sodipodi:nodetypes="cccccccccccccscccccccccccccccccccccccccc" class="st7" d="
			M446.9,213.1l1.4,6.2l0.7,5l5.2,6.5l4.5,4.5c0,0,4.5,2.4,5.3,2.8c0.8,0.4,5.5,3.3,5.5,3.3l2.4,4.1l3.3,2.8l5.5,2.4l4.1,2l2.2,2.6"
			/>
		<path id="path12524" inkscape:connector-curvature="0" class="st4" d="M405.2,291.2l1.3-2.6l2-3.5l0.3-5v-3.3l0.1-4l0.8-5.9
			l-0.1-4.8l-1.2-2.7l-1.8-2.5"/>
		<path id="path42372" inkscape:connector-curvature="0" class="st5" d="M409.7,300.1l6.5-3.7l3.7-5.1l3.1-4.7l4.3-4.7l4.7-0.8
			l5.7-1.6l6.9-1l5.9-2.2l4.9-4.7l4.5-3.3l8.1-1.8l6.7-2.4l6.1-5.7l4.1-3.7l7.1,2l6.1-1.8l7.1-4.1l4.3-4.5l2.2-3.7v-3.5l2.6-2.8
			l3.7-3.7l1.6-4.7l0.2-7.3"/>
		<path id="path40534" inkscape:connector-curvature="0" class="st4" d="M351.5,592.8l2.3,3.6l3.6,2.6l6.5,3.9l4.9,2.7l4,2l4.5,1
			l3.3-0.1l2.4-1.2h1.7l2.9,1l2.3,2.7l2.3,3.9l2.4,3.7l2.2,3.7l2,2.6l1.3,2l1.6,1.9l0.4,2l-0.9,0.9l-0.3,1.4l0.7,2.4l1.4,6.2l1.6,5
			l2.2,4.2l2,4l2.3,3.7l1.7,3.5l1,2.3l0.4,3.3l-3.2,1.7l-3.3,0.3l-2.3-2l-1.6-2.2l-2.7-2.2l-2.2-1.2l-2.4-0.4l-2.4,0.6l-3.5,0.1
			l-3.9,1.3l-5,0.3h-3.6H375l-4.9-0.9h-3.2l-3.6,1.4l-3,1.9l-2.2,1.6l-1.6,2.3l-1.2,2.2l-0.3,2.7l-1.6,2.9l-1.7,2l-3.3,1.4l-4,0.4
			l-5.2,0.1l-2.6,0.7c0,0-2.9,0.4-3.5,0.7s-3.3,1.4-3.3,1.4l-2.9,1.7l-3.6,0.6l-3.6-0.6l-2.4-3.2l-3.2-1l-4.2-0.7l-8.5-0.7l-5.8-0.7
			l-4-1l-3.6-1.9l-3.3-3.3l-2.3-0.9l-3.5-0.1l-3.2,1.7l-3.9,1.4l-4.2,1.2l-5.5,2l-5.8,1.3l-4.2,1.7l-3.5,1.9"/>
		<path id="path13992" inkscape:connector-curvature="0" class="st5" d="M464.7,453.9l-1-3.7l0.3-9.3l1.6-7.3l1.7-6.9l2.3-7.2
			l3.7-8.5l4.5-6l3-3.9l4.2-4.2l3.6-2l2-2.7l0.7-4.3l1-6.9l1.2-4.3l0.4-5.9l-1.7-4l-2.3-2l-1.3-3.2"/>
		<path id="path38786" inkscape:connector-curvature="0" class="st5" d="M382.7,508.1l9.1-3.5l6.2-1.9l6-2.2l4-1.9l5-2.9l4.7-4
			l4.2-3.7l5-4.9l3.7-4.3l4.5-3l5.3-4l4-5.3l3.9-4.3l3.5-2.3l5.2-2.6h5.3"/>
		<path id="path37030" inkscape:connector-curvature="0" class="st4" d="M221.5,428.2v4.2l0.7,6l3.7,4.5c0,0,3.6,3,3.9,3.6
			c0.3,0.6,3.7,3,3.7,3l2.9,2.6l1.6,2.6l1,3.2v5.3l-1.2,3.2l-1.2,3.9"/>
		<path id="path35276" inkscape:connector-curvature="0" class="st5" d="M189.2,474.5l-0.7,3.9l0.4,5.9l1.2,2.6l1.7,1.6l0.6,2.4
			l1,2.6l2.9,2l2.2,2.9l0.9,2.4l2,4.2l1.7,3.3l3,3.6l2.6,5"/>
		<path id="path29962_1_" inkscape:connector-curvature="0" class="st5" d="M495.5,353.6l4.9-0.4l3.5-0.8l7.1-2.8l4.5-6.7l4.3-4.9
			l2.8-6.1l2.2-6.1l3.7-3.3"/>
		<path id="path29962" inkscape:connector-curvature="0" class="st4" d="M528.4,322.5l5.1-1l4.1-0.4l3.7-3.1h4.1l2.2-0.6l5.5-3.9
			l3.1-4.7l1.4-7.1l3.5-2.2v-3.1l3.9-2.2l5.9-2.8l2-3.9l3.5-1.6l0.8-4.3l1.2-7.1l3.9-5.7l4.3-5.3l7.1-3.9l2.4-1.2l3.1-2.8l4.3-2.6"
			/>
		<path id="path24787" inkscape:connector-curvature="0" class="st5" d="M796.4,468.4l3.4,2.7l3.1,0.6h5.1l4.5-0.2l6.9-0.8l4.3-1.8
			l4.3-5.1l1.6-6.7"/>
		<path id="path29079_2_" inkscape:connector-curvature="0" class="st7" d="M570,394.4l4.5-1.4l13.8-0.4l4.9,1.8l8,9l6.1,10l3.7,3.3
			l5.3,0.6l4.3,0.6l2.8,2.8l4.5,0.4l6.9-2.4l4.9-1.4l2.2-3.1l4.5,0.6l4.3,2.4l5.3,4.9l4.5,4.3l5.3,3.5l6.5,1.6l4.7-1l3.3,0.8
			l3.7,3.5l2.2,2l2.4,0.4l1.4,3.9l1.2,2.8l1.6,2l1.8,3.5l2.6,3.5l3.9,4.1l2.4,2.6l3.7-2.6l5.3-1.2l4.9,0.8l5.5-0.4l5.1-1l4.1-1
			l3.5,0.6l4.3,3.1l3.7,3.9l1.2,2.8l1.2,4.3l2.2,3.1l3.9,2l2.4-1.6l4.1-1.8l7.5-1.2l4.7-1.2l4.9-0.6l5.3-2l4.3-0.8h3.5l4.5,1.2
			l3.4,2.7"/>
		<path id="path29079" inkscape:connector-curvature="0" class="st5" d="M497.9,359.3l5.5,0.8l3.7,2.4l5.3,3.1l3.5,3.5l4.3,5.7
			l3.9,3.5"/>
		<path id="path41672" inkscape:connector-curvature="0" class="st5" d="M884.4,603.3H881l-5.3,1.6l-5,1.6l-4.3,1.2l-4.6,1.6
			c0,0-3,1-3.6,1.3s-4.2,1.3-4.2,1.3l-4.9,0.3l-4.2,0.4l-3.6,1.3l-3.5,0.4l-2.4,1.2l-2.6,1.4l-3.2,2.9l-4.9,2.3l-3.3,1.3l-4.2-2.3
			l-3.2-3.9l-1.9-3.6l-2.9-4.7l-0.7-2.7l-0.9-3.9l-1.3-4.9l-1.9-3.2l-3.9-2.9l-5-2.3l-4.2-1.7l-3.5-1.7l-2.2-2.9l-9.3-7l-4.5-4.9
			l-4.3-5.2l-2.6-4l-3-3.9l-3.2-2l-4-0.6l-3.2-0.1l-2.4,0.1h-2l-5.2-0.6l-3.5-0.3l-4.5-2.2l-3.2-2.6l0.1-5.3l-0.7-4.6l-1.6-2.2
			l-4.6-2l-4.9-1l-2-1.7l-2.9-2.4l-3.9-0.1l-3.3-1.2l-2.6-2.4l-2.3-2.9l-1.9-3l-3.3-2.3l-3.9-0.4l-2.9-1.4l-2.6-1.6l-2-1.3l-1.7-0.7
			l-3.3-0.7l-2.7-1l-1.4-2l-2.2-2l-3.6-0.1l-3.2,1l-3.3,0.3l-3.5-1l-3.9-4l-2.7-3.9L650,494l-3.6-2.7l-6.2-3l-4.3-2L633,485l-2.6-1
			h-2.2l-2.9,0.3l-2,0.1l-4.9-1.7"/>
		<path id="path26437" inkscape:connector-curvature="0" class="st4" d="M616.1,600.3l3.3-3.9l2-3.3v-3.7l3.1-4.1l3.9-2.8l4.9-2.8
			l1.2-3.5l1.4-3.9l1.6-4.5l6.3-3.9l5.1-4.9l2.8-4.1l2.4-1.8l5.5-0.6"/>
		<path id="path38782" inkscape:connector-curvature="0" class="st4" d="M347.5,530.8l3.6-2.3l3.7-1.2l5.2-1.6l3.3-2.4l3.6-2.7
			l3.5-2.7l4.7-1.7"/>
		<path id="path22891_1_" inkscape:connector-curvature="0" class="st5" d="M383.9,508.2l8.4,1.2l7.8,1.6l4.7,0.9h8.1l4,0.6l7.2,2.8
			l6.8,2.5l6.8,0.3l8.4,0.6h6.2h5h4.4l2.5,3.1l3.1,1.2l6.2,0.3l5.3,4.4l4,4.4l3.7,3.4l6.2,1.2l17.7,3.1l5.9,5l3.4,1.2l4.4-0.3
			l1.2,2.2l2.5,1.9l3.4,1.6l5.9,0.9l2.2,3.1l1.9,3.4v3.4v5.3l2.8,5.6l4,4.7l4.4,6.2l7.2,6.2"/>
		<path id="path30902" inkscape:connector-curvature="0" class="st4" d="M652.3,664.5l2.4-1.5l3.3-1.9l2.5-2.1l1.2-2"/>
		<path id="path16959" inkscape:connector-curvature="0" class="st7" d="M414.4,668.9l-2.6,2.8l-2.6,2.8l-1.9,2.8l-0.3,3.4l-0.6,3.4
			l-4.7,4.7l-5.6,2.5l-4.7,3.1l-1.9,3.7l-4.4,11.2l-4.4,7.2l-4.4,3.7l-4.7,2.2l-1.9,4l1.2,4.7l3.1,1.6l-6,0.3l-5.9,1.2l-7.5,5.9
			l-6.5,5.3l-4,4.7l-6.2,1.2h-6.5l-6.8-1.2l-9-4"/>
		<path id="path16955" inkscape:connector-curvature="0" sodipodi:nodetypes="cccccc" class="st5" d="M431.2,645.3l-1.6,2.8
			l-6.2,7.2l-0.4,0.5l-4.6,5.8l-2,3.7"/>
		<path id="path22016" inkscape:connector-curvature="0" class="st7" d="M668.1,674.5l-5.6-5l-5.3-4.4l-6.2-0.6l-3.7-1.2l-4.4-1.2
			l-4-2.2l-4-2.8l-1.6-3.1l-1.9-1.9l-2.5-1.9h-7.8h-4c0,0-1.9-3.4-3.1-4c-1.2-0.6-7.5-5.6-8.7-6.2c-1.2-0.6-3.7-3.1-3.7-3.1
			l-3.1-5.6l-1.6-3.7l-2.2-1.6l-3.1,1.2l-5,0.3c0,0-1.9-0.3-3.1-0.9c-1.2-0.6-2.8-1.2-2.8-1.2l-4.7,0.9h-3l-7.5,2l-7.8,6.1l-0.3,0.9
			l-4.7,1.2l-6.2-3.3l-10.8-8.5l-9.7-5l-6.8-3.1l-7.2-3.1l-4-1.6l-6.8-1.2L495,611l-5.6,3.4l-4.7,5.6l-5.9,9.6l-5.9,7.2l-4.4,4.4
			l-4.7,0.9l-1.6-1.9l-2.2-3.7l-7.5,0.3l-9,2.8l-7.5,2.8l-5,2.8"/>
		<path id="path19023" inkscape:connector-curvature="0" class="st7" d="M228.7,579.3l2.6,5.9l1.8,4.8l4,5.7l4.8,2.4l4.4,0.2
			l2.9-0.4h3.3l6.6,2l3.7,3.5l0.9,5.3l-0.7,3.7l-2.4,3.1l-2.2,0.4l-5.5,1.5l-4.2,3.3l-2.6,4.4l-1.3,2.9v3.5l2.6,5.5l1.8,4l0.2,5.5
			l0.4,5.1l3.1,4l6.2,2.6l4.6,2l4,1.1l3.3,0.9l5.9,3.7l5.3,5.3l3.7,4.2l1.1,8.1l-0.2,6.8l0.2,4.2l2.2,4.4l4,4.4l1.8,4.6l0.4,4
			l-0.2,3.3l1.1,5.5l0.2,6.2l-0.9,6.2v7.7l-0.7,3.7l-1.8,2.4l-4.4,1.5h-3.3l-2.2,2.6l-0.2,1.3"/>
		<path id="path6744_2_" inkscape:connector-curvature="0" class="st3" d="M495.9,993.9l6.9-4.5l8.5-1l8.9-1.4l10.6-1.2l1,5.9
			l1.8,5.1l2.8,5.1l3.1,2.6l2.6,5.1l1,5.1"/>
		<path id="path6744_1_" inkscape:connector-curvature="0" class="st3" d="M418.2,901l0.6,4.1l0.6,5.7l0.8,5.1l2.8,4.3l4.5,4.9
			l3.5,4.3l3.5,2.8l0.4,4.7v6.5l0.2,7.5l-1.6,4.3l0.2,3.5l1.6,3.9v4.1l-1.6,2l0.2,2.6l2.8,1.8l5.1,3.5l4.3,3.7l2.4,1l2.8,2.2v3.5
			l-0.8,3.5l-2,3.9l-0.4,4.1l0.2,4.3l1.4,5.1l2.4,3.3l2.6,1.8"/>
		<path id="path2367_1_" inkscape:connector-curvature="0" class="st3" d="M212.2,896.9l4.5,1h5.5l5.1-1l3.9-1.8l3.3-0.8l4.1-1.2
			h3.9h5.7"/>
		<path id="path39031" inkscape:connector-curvature="0" class="st5" d="M666.7,682.1l3.6,0.3l3.7,0.9l4.6,1l2.6,1.7l3.2,1.4
			l3.3,2.6l4.3,3.5l3.7,2.9l4.5,1.6l4.7,0.1h4.3l3.5,0.3h2.4h2.9l3.5,0.3l3.5-0.1l3.5,1l2.9,0.4l0.7-2l1.4-1h3c0,0,1.6,0.9,2.2,0.9
			s2.4,0,2.4,0l0.4-2.4l1.2-5.8l0.4-0.7"/>
		<path id="path13744" inkscape:connector-curvature="0" class="st4" d="M718.9,905.3l-1.7-3.9l-3.7-3.7l-1.4-1.4v-1.7l2.6-2.2
			l4.6-3l4-3.5l-0.1-1.9l-3-1.9l-4.7-0.9l-4.9-0.4l-6.9-0.9l-4.9-1.7l-5.5-2l-7.2-4"/>
		<path id="path4645" inkscape:connector-curvature="0" class="st4" d="M667.2,780.1l3.3,2.2l1.9,1.6l2,1.4l3,1.7l4.2,0.3l5.3-0.8
			l4.8-1.4l2.8-0.3l3.4-0.9l3.3-0.3h2.3l2,1.1l1.6,1.7l0.9,2.8l2.2,3.1l3.9,2.5l5.3,3.3l3.9,1.9l3,0.8l2.3,0.2h3.1h4.5h3.4l1.7,1.7
			l2.2,2.2l4,1.4l3.1-0.6l3.1-2.2l1.7-3.6l0.9-2.6l2.8-1.6h4.4l2.5,1.2l3.6,0.6l5.3-0.2l2.3-0.8l5.1-2l4.7-3.1l3.3-6.1l1.2-7
			l0.2-3.7l1.2-5.3l0.3-3l1.4-3.7"/>
		<path id="path37281" inkscape:connector-curvature="0" class="st5" d="M654.1,883.3l0.7-4.9l1.3-3l2.6-3.7l3-2.4l4-4l1.7-3.3
			l2.6-4.9l1.3-3.6l0.7-3.5v-4.2l-1.2-4l-5.5-3.3l-2.3-2.2l-4.7-3.2l-2-3.7v-5v-6.8l0.9-5.5l1.6-6.6l1.7-7.5l1.7-4.9l0.1-4.3
			l1.2-4.5l2.2-3l2.4-2.3l0.6-5.5v-4.3l1.9-4.3l3.9-7.8l2.4-3.3l1-7.8"/>
		<path id="path12869" inkscape:connector-curvature="0" class="st4" d="M710.1,914.8l1.2-1.7l3.9-3.6l2.2-2.3l2.4-1.9l2.6-2.2
			l4.2-1.4h5.6h5.9h3.7l5.9,1.9l6,2.3l6.5,3.3l3.6,3.7l4.7,7.3"/>
		<path id="path4278" inkscape:connector-curvature="0" sodipodi:nodetypes="cccccccccccccccccscccccccccccccc" class="st8" d="
			M712.6,916.8l-1.8-5.4l-2.1-4.1l-0.9-3.1l-1.7-7.1l-2.8-6l-4.9-6.2l-5.3-5.3l-5-2.9l-7.6-3.3l-7.7-3.1l-6.2-1.2l-3.9-2.4l-1.9-4
			l-0.2-5.4l-0.1-5.1l0.1-5.1c0,0-0.3-3.9-0.4-4.3c-0.1-0.4-1.2-7-1.2-7l0.5-5.8l0.9-6.2v-6.5l0.4-3.8l3.6-5l5.6-6.4l4.8-7.2
			l3.3-7.2l2.1-8.3l1.2-8.2l0.1-8.3l-0.1-7.4l-1.5-5.2"/>
		<path id="path4280" inkscape:connector-curvature="0" class="st8" d="M661.2,864.1l-1.8-1.1l-2.2-0.4l-3.2,0.2l-3.8,1.9l-3.7,3.4
			l-1.5,2.3l-1.2,1.7l-2.1,1.4l-1.5,0.5"/>
		<path id="path4282" inkscape:connector-curvature="0" class="st8" d="M660.4,859l-0.9,1.9l-1,0.8l-1.5,0.9"/>
		<path id="path39033" inkscape:connector-curvature="0" class="st5" d="M683.8,687.1l1.4,3.5l1.9,3.2l0.4,1.7"/>
		<path id="path39035" inkscape:connector-curvature="0" class="st5" d="M689.6,685.4l1.7,4l2,4.9"/>
		<path id="path20098" inkscape:connector-curvature="0" class="st5" d="M666.5,676.7l-2.4,4l-1.8,2.4l-0.9,2.2l-0.7,4.6l1.5,4.6
			l2.2,3.7l1.1,4.2l0.2,4l-2,3.7l-1.5,5.7l-0.2,5.5v4.4l1.1,5.9l3.3,3.3l2.2,5.5l1.3,5.5l0.4,7.5v9"/>
		<path id="path5157" inkscape:connector-curvature="0" sodipodi:nodetypes="cccccccccccccccccc" class="st8" d="M680,750.2
			l-2.1-4.6l-0.8-4.5l-0.1-4.5l1.3-6.9l2.2-8l2.4-9.1l1.1-5l1.1-5.1l1.5-3.9l2.1-5l0.6-7.4v-6l-1.8-5l-3.2-7.4l-2.9-3.9l-4.2-2
			l-6.9-0.7"/>
		<path id="path6907" inkscape:connector-curvature="0" sodipodi:nodetypes="ccccccccccccccc" class="st8" d="M521.3,390.9l-1-3.5
			l-1.3-4.5v-4.1l1-4.5l1.7-5.2l0.6-3.6l-0.5-4.7l-2.1-5.1l-3.2-4.2l-2.8-2.6l-2.3-1.7l-2.1-2.8l-0.3-3.9l1.1-3.3"/>
		<path id="path38156" inkscape:connector-curvature="0" class="st5" d="M631.8,706l3.6,2.2l2.6,0.1l3.2-1.4l2.3-3.7l2.6-2.9
			l3.7-2.4l2.3-1.7l4.6-2l3.3-0.7l3.9-2l1.6-2.2l1.2-3.9v-4.6l1.4-8.3l1-4.7"/>
		<path id="path25546" inkscape:connector-curvature="0" class="st3" d="M679.7,749.3l5.3-0.6l3.5-2.8l3.1-0.6l3.5,0.8l3.5,0.8
			l2.2-3.9l3.1-5.5l4.9-3.3l4.1-4.7l1.6-4.9l1.6-2.6l2.8-0.8"/>
		<path id="path39037" inkscape:connector-curvature="0" class="st5" d="M729.5,736.5l-0.7-6l-2-2.3l-2.6-2l-3-2l-2-2v-2.3l-0.6-2.2
			l-2.9-0.7h-3l-2.2-1.2l-1.9-2.6l0.4-4l2.9-3.3l4-4.2l2.7-3.3"/>
		<path id="path28195" inkscape:connector-curvature="0" class="st7" d="M664.9,616.7L662,622l-2.2,4.7l-2.2,5.3l-1.2,4.1l0.2,4.1
			l2,5.3v4.5l2,6.1l3.9,3.1l4.5,7.9"/>
		<path id="path3768" inkscape:connector-curvature="0" sodipodi:nodetypes="ccccccccccccccccc" class="st5" d="M691.4,630.1
			l2.2-0.6h1.9l1.6,0.3l1.2,2.8l1.2,0.5l1.4-0.9l1.1-2.3l1.7-2.6l3.3-0.5l3.1,1.4l3.9,2.5l2.8,1.7l1.7,0.3l4.1,0.7l7.7,3.5l2.1-0.5"
			/>
		<path id="path6399" inkscape:connector-curvature="0" class="st4" d="M711.3,432.3l3.9-1.9l3.4-0.6l4.5-0.6c0,0,3.4-1.2,4-1.6
			c0.6-0.3,3-4,3-4l1.2-2.3l3-2l5-2.5l4.2-3l2.6-2.6l-0.5-2.6l-2.3-4.4l-1.1-5.3l-0.2-5.8l0.8-6.2l0.5-7l1.2-4l0.8-8.4"/>
		<path id="path43426" inkscape:connector-curvature="0" class="st5" d="M664.8,620l0.1-2.4l1-3.9l0.3-3.9l0.3-5l1.4-4l1.6-3.3
			l2.3-3.9l-0.6-2.3l-0.9-2.7v-2.4l0.9-2.2l-1.2-3.5l-2.4-4l-2-4.9l-1-5.8l-2.4-4.7l-2.2-4.7l0-4.4l1.3-4.9l2.7-5.2l1.6-1.9l2.4-3.9
			l3-4.3c0,0,2.4-5.2,2.4-5.9s2.3-6.2,2.3-6.2l1-5.8l0.7-3.5l1.7-2.6l0.3-1.7l1-3.5l1-1.7l1.6-2l0.4-8.2l0.7-3.3l1.7-3l2.2-1.7
			l2.4-1l2-3.2l2.4-6.3l1-5.2l1.2-2.3l2.6-2.9l2-2l3.2-1.7l1.3-3.3v-3.6l0.6-4.9l1.9-4.9l1.3-4.6l1.3-2.4v-3.9l-0.1-4.3l-0.6-4.3
			l0.7-3.7c0,0,2.9-4,3-4.6s1.2-3.9,1.2-3.9s0-2.7,0-3.5c0-0.7-0.1-4.6-0.1-4.6l2-3.2l2-3.7l2.7-4.5l2-3.6l1.3-2.9l0.6-3.7l0.1-3.6
			l-0.3-2.9l1.6-3.7l3-2.7l2.6-1.3l2.6-1.2l3.2-0.7h2h2l3.2,2.9l-1.4-3.9l-0.9-4.7l-2.2-2.6L740,351l-0.4-3l-1-3.7l-0.4-5.5l1.2-4.9
			l1.9-2.7l1.4-1.9l1.5-3.3"/>
		<path id="path3770" inkscape:connector-curvature="0" class="st4" d="M679.5,512.4l4.5,8.4l2.3,4.4l2.2,3.3l2,1.2l1.9,0.5l1.4,1.6
			l-0.2,1.9l-1.6,2.6l-2.6,3.7l-2,3.4l-1.1,3.4l0.2,5.1l0.2,7.5l1.1,5l1.4,3.3l0.8,3l1.1,5l0.2,3.1l0.5,2.8l1.7,2.3l3,3.3l1.1,2.3
			l0.3,4.8l2.6,4.5"/>
		<path id="path10774" inkscape:connector-curvature="0" class="st3" d="M496.3,387.7c0.1,0.4-0.9,3.8-0.9,3.8l-1,2.4l-0.3,2.6
			l-0.6,2.5l0.1,2.9l0.3,2.2v2.7l0.7,2.4l1.1,2.2l-0.2,2.5l-1.6,1.8v1.8l1.4,2.5"/>
		<path id="path6032" inkscape:connector-curvature="0" class="st9" d="M668.6,669.2l0.7-2.8l0.8-3.1l0.4-5.7l-0.6-4.4l-0.5-5
			l-1.6-6.8l-0.7-5.9l0.7-5.5l0.4-4.7l-1.7-3.2l-4-3l-2.5-2.5l-2.8-3.9l-1.1-4.2l-1.3-7.8l-0.7-4.6l-1.4-5l-2.3-4.8l-2.7-4.9l-2.4-5
			l-2.6-6l-1.2-4.7l-1.6-6l-1-6.1l-0.8-5.7l-2.1-4.1l-2.2-2.9l-1.8-2l-1.9-3.2l-0.1-4.4l-0.8-4.9l-2.2-7.7l-2.1-5.8l-3.3-7l-2.2-5
			l-2.8-6.9l-2.9-6.6l-3.7-6.5l-3.2-5.3l-3.2-3.9l-4.3-5l-5.7-5.8l-6-5.4l-5.4-4.5l-8.6-7l-6.6-5.5l-4.6-5.8l-3.7-6.4l-2.5-5.2
			l-4-5.8l-4.9-3.1l-7.2-4.1l-6.1-3.4l-5-3.8l-4.3-4.6l-2.4-3.9l-3.5-1.2l-4.3-1.2l-6.5-3l-4-4.6"/>
		<path id="path51236" inkscape:connector-curvature="0" class="st5" d="M493.1,378l1.4,5.3l1.4,3.3l3.1,4.9l1.6,1.8l3.5,1.2
			l1.8,0.2"/>
		
			<path id="path28518" inkscape:connector-curvature="0" sodipodi:nodetypes="ccccccccccccccccccccccccccccccccccccc" class="st5" d="
			M495,361.7l2.4,3.2c0,0,1.4,2.7,1.5,3s0.7,2.8,0.7,2.8l0.4,2.7l0.9,2.5l1.4,3.7l1.5,2.4v4.7l2.4,8.7l3.9,1.4l3.2,2.9l1.2,3.5
			l0.9,2.4l1.7,2.2l2.7,2l4.3,1.2l3.9,0.6l4.3,1.7l3.9,1.7l4.2,2l4,2.4l2.9,3.2l2,3.9l1.3,3.5v3.6l0.6,3.9l1,4.9l0.6,3.9l2.2,3.3
			l3.7,2l3.2,0.9l3.9,0.7h2.4l2.4-1.3l3.2-1.9l6.6-0.3"/>
		<path id="path11549" inkscape:connector-curvature="0" sodipodi:nodetypes="ccccc" class="st5" d="M464.6,345.2H461h-3.7l-3.3,0.4
			l-3.2,0.7"/>
		<path id="path28520" inkscape:connector-curvature="0" class="st5" d="M500.1,371.2l-1.4-0.6l-2.2-0.6h-3.7l-3.5,0.3l-4.5,0.1
			l-3.1-0.3l-5.1-3l-1.9-0.4l-4.1,0.1l-2.3-1.1l-0.5-1.4l-0.9-0.8l-1.4-0.4l-1.3-0.4l-1.8-1.1l-1.1-1.7l-0.5-2.2l-0.3-2.9l-2.2-3.4
			l-2.4-2.5l-2.5-1.3l-2.2-0.9l-2.4-0.6l-1.9-0.1h-2.2l-1.4-0.5l-0.9-2.1l-0.5-1.5l-1.4-0.6l-1.4-0.6l-1.2-1.2l-1.1-1.4l-1.6-2.7
			l-1.6-1.9l-1.9-1.9l-2.3-2.3l-2.1-1.9l-2-1.2l-2.6-1.2l-1.6-0.4l-1.7-0.5l-1.3-1l-0.4-1.9v-2.5l-0.4-2.4l-0.9-2.2l-1.7-1l-1.7-0.4
			l-1.9-0.7l-1.3-1.5l-1-2.1l-0.1-2.3l-0.1-3.1v-2.2l-0.4-2.2l-1.2-2.8l-0.9-2.3l-1.3-1.4l-0.9-0.9l-1.9-0.9l-1.8-0.9l-1.7-1.7
			l-1.7-1.8l-1.3-1.7l-1.2-1.7l-1.1-1.9l-0.8-0.8l-0.9-0.3l-1.6-0.1l-0.9,0.7l-0.9,0.6l-1.9,0.1h-2.1l-2.1-0.1l-1.8,0.6l-2.2,0.4
			l-1.9,0.6l-3.5,0.8l-3,0.1h-3h-2.8h-2.5l-2.2,0.4l-1.6,1.2l-1,1.9l-0.8,1.7l-1.7,1.1l-2.5,0.5l-1.9,0.8l-1.8,1.2l-1.8,3.6l5.5,2.4
			"/>
		<path id="path6909" inkscape:connector-curvature="0" class="st8" d="M518.9,379.4l-1.5-2.7l-1.9-1.3l-2.5-0.2l-3.5-0.5l-2.7-0.3
			l-2.3-1.2l-2.1-0.9l-2.6-1"/>
		<path id="path6911" inkscape:connector-curvature="0" class="st8" d="M515.6,375.3l2.2-0.4l1.8-0.8"/>
		<path id="path7786" inkscape:connector-curvature="0" sodipodi:nodetypes="cccc" class="st9" d="M609.6,479.2
			c0.9,0.2,4.8,1.8,4.8,1.8l3.9,1.6l1.5,0.7"/>
		<path id="path55000" inkscape:connector-curvature="0" sodipodi:nodetypes="cc" class="st4" d="M667.2,615l7.1,7.9"/>
		<path id="path4647_1_" inkscape:connector-curvature="0" class="st4" d="M728.8,740.1l-2.6,5.8l-2.5,5.9l-3.1,8.4l-0.8,5.8
			l-0.3,4.4l1.4,4.7l3.1,4l3.4,6.2l3,5.8l1.6,3.9l1.2,10.7l1.2,4.5l2.3,5.8l3.1,5.8l3.6,6.1l3,4.8l3.4,4l1.1,3.3l0.6,3.9l-0.6,3.1
			l-2,5.1l-1.7,4.4l-2.8,6.1l-3.1,6.1l-3.9,5.3l-5.3,5.9l-5,3.7l-3.7,1.9"/>
		
			<path id="path39912" inkscape:connector-curvature="0" sodipodi:nodetypes="cccccccscccccccccccccccccccccccccccccccccccccccccccccccccccccccccccccccccccccccccccccccc" class="st5" d="
			M970.1,713.6c-0.6-0.1-3.2-1.2-3.2-1.2l-4.3-0.7h-4.5l-3.5,0.3l-3.7,0.4l-4.5,1.2c0,0-4.2,2.3-4.7,2.6s-3.6,2.2-3.6,2.2l-2.9,3.5
			l-2.4,2.9l-5.6,4.3l-3.6,3.3l-4,3l-5,2.2l-5.3,0.7l-5.9,0.6h-6.8l-7.3,0.9h-6.8l-5.2,0.6l-6,2l-6.5,2.7l-5.6,1.4l-5.6,2.2h-3.9
			h-5.9l-5,0.6l-4.7,0.7h-5.6l-5-1.4l-6.2-3l-2.7-3.9l-2.9-3.2l-3.2-2.2l-2.3-1.7l-2.4-2.4l-0.6-2.9l-6.2-1.9l-6.2,0.3l-5.9-2.2
			l-3.7-2.9l-3.6-2.4l-2.7-4.3l-2.3-4l-0.4-3.9l0.6-4.2v-4.5l0.3-3.2l-1.7-2.9h-3.9l-4.5-0.4l-1.7-0.7l-2.9,0.7l-2.6,1.7l-3.5,1.4
			l-2.7-0.3l-1.9-1.6l-3.3-2.9l-1.7-2.6l-1-4.9l0.1-3.5l0.3-2.7l-2.4-4.3l-3.2-5l-2.4-4.3l-3.2-3.2l-2.7-0.9l-3.3,1.2l-3.7,2
			l-3.5,0.9l-3.9-2.9l-1.3-2.2l-2.9-2.4l-3.9-1.3l-3.7-1.6l-1.6-4.2l-1.9-3.7l-3.2-7.8l-2.9-4.2l-1.2-3.3l-1.2-2.4l-3.6-1.9h-3.7
			l-4-0.4l-1.4-2l-2.2-0.1l-1.7-0.4"/>
		<path id="path8661" inkscape:connector-curvature="0" sodipodi:nodetypes="ccc" class="st9" d="M666.7,622.1l3.5,0.7l3.8,0.3"/>
		<path id="path38784" inkscape:connector-curvature="0" sodipodi:nodetypes="cccccccc" class="st4" d="M375.1,509.1l3.5,3.3
			l3.6,3.7l3.3,2.4l4.3,2.6l4.5,3.3l2.4,2.7l1.6,7.3"/>
		<path id="path37907" inkscape:connector-curvature="0" class="st4" d="M375.4,509.1l-1.9-2.9l-0.3-4.9c0,0-0.1-4.9-0.4-5.5
			s-2.3-3.5-2.3-3.5l-2.9-3.5l-2.9-1.6l-1.7-2.9l-0.6-3.3l-1.2-1.9l-2.2-2l-3.2-0.3l-2.4,0.7l-2.9-0.4l-2.3-1.4l-1-2.9l0.6-1.7
			l0.9-2.9v-3.6l-1.7-3.9l-1.2-3.3l-2-5.3l0.4-6.6l1.7-5.5l1.7-3.7l-0.3-6.5l-3.2-6.3l-2.4-3.6l-0.9-4.6l1-4.3l0.9-2.9l-0.1-5
			l-1.2-3.5l1.6-4.2l1.6-2l1.3-3.6l-1.4-6.3l-0.4-5.8"/>
		<path id="path31149" inkscape:connector-curvature="0" class="st5" d="M292.1,497l2.1,0.6l2.2,1.2l2.8,1.3l1.7,0.1l2.8,0.3
			l4.2,1.2l3.2,1.4l2.8,2.7l3.2,3.7l2.4,2.6l3.7,3.5l2.5,2.4l1.7,0.9l3.5,1.6l3.3,0.6l3.6,0.3l3.5-0.6l5-1.7l3.9-1.7l3.7-1.3l8-2.5
			l2.9-2l4.1-1.9l3.1-0.7h3.2l3-0.7l6.4-1.9"/>
		<path id="path11008" inkscape:connector-curvature="0" class="st8" d="M488.7,364.4l-0.5,1.8l-0.3,2.2l-0.7,3.2l-0.4,3.2l-1.7,4
			l-3.7,3.7l-3,2.7l-5.2,2.9l-5.1,2.3l-7.7,3.6l-7.2,3.9l-4.3,3.6l-1.7,3.4l-1.6,4.6l-4.6,7.2l-2.8,2.5l-3.8,2l-6.7,3.4l-6.2,3.2
			l-6.2,3.7l-5.9,3.9l-2.5,2.3l-1.1,2.7l-0.5,4.1l-0.1,3.8l-0.2,3.9l-0.1,2.8l-0.6,3.4l-0.9,3.4l-1.2,2.2l-1.1,2.8l-0.2,2.5
			l-0.2,2.7l-0.1,3.6v3.7l-0.2,4.1l-0.6,4.4l-1.6,4l-2.1,4.5l-2.2,2.7l-3.3,2.4l-3.7,2.9L385,506l-3.3,2.9l-1.6,2l-1.2,1.4l-1.1,2.9
			l-0.8,1.9l-1.4,0.6l-1.6,0.9"/>
		<path id="path47678" inkscape:connector-curvature="0" class="st5" d="M502.4,175.1l7.1,2l5.3,2l4.5,1.2l4.1-3.3l2.4-2.6l5.5,1
			l1.6,1.8"/>
		<path id="path48400" inkscape:connector-curvature="0" sodipodi:nodetypes="cccc" class="st5" d="M530.2,186.5l8.6,0.3l5.5,0.1
			l5.7,1.8"/>
		<path id="path27635" inkscape:connector-curvature="0" class="st5" d="M539.7,207.4l-0.3-2.2l-1.5-3.1l-1.7-2.2l-1.4-1.3l-1.6-2.2
			l-0.9-2.5l0.9-2l2.5-1.7l2.9-1.6l1.6-2.4l-0.9-5.2l-2.2-2.7l-0.6-1.8l0.1-2.1l1.2-1.4l0.3-1.7l-0.2-2.9v-0.8"/>
		<path id="path28514" inkscape:connector-curvature="0" class="st5" d="M500.3,342.3l-1.2,0.9l-1.8,1.6l-1.8,2.1l-1.2,1.9l-0.7,2.8
			v2.1v1"/>
		<path id="path50303" inkscape:connector-curvature="0" class="st5" d="M567.3,211.9l-4.1,1l-2-0.8l-3.1-0.4l-3.3-1.4l-2-3.3"/>
		<path id="path11887" inkscape:connector-curvature="0" class="st8" d="M525.6,226.9l-2.1-1.6l-2.7-2l-0.9-1.8"/>
		<path id="path46803" inkscape:connector-curvature="0" class="st3" d="M486.8,169.2l-2.8-3.9l-2.2-4.1l-3.5-3.7l-4.3-0.6l-3.5-1.2
			l-6.5-5.8"/>
		<path id="path11889" inkscape:connector-curvature="0" sodipodi:nodetypes="ccccccccccccccccccccccccc" class="st8" d="
			M543.3,188.7l1-2.5l-0.4-1.9l-2.2-1.1l-4.5-1.5l-2.5-1.7l-3.3-1.6l-3.5-0.1l-5.4-0.3l-4.3-1l-5.3-1.7l-5-2.1l-3.8-2.2l-3.3-2.3
			l-3-1.6l-5.1-2.6l-5-0.7l-4.7-0.6l-4.8-0.4l-5.8-0.3l-4.7-1l-5.1-2.2l-4-2.6l-2.4-2.4l-2.6-2.7"/>
		<path id="path11891" inkscape:connector-curvature="0" sodipodi:nodetypes="ccc" class="st8" d="M543.7,184l5,1.6l2.4,0.3"/>
		<path id="path12766" inkscape:connector-curvature="0" class="st8" d="M552.7,184.9l4-1.4l4.1-1.9l4.8-2.3l4.1-1.9l5.1-2.2
			l7.6-3.7l6.1-2.9l5.3-2.5l6.1-2.7l4.7-2.2l2.7-1.3"/>
		<path id="path30861" inkscape:connector-curvature="0" class="st5" d="M441,172.4l1-5.9l3.1-4.5l2.4-1.6h4.1l5.9-4.3l6.3-6.6"/>
		<path id="path15391" inkscape:connector-curvature="0" class="st8" d="M453.7,151.6l-2-1.1l-3.6-1.8l-4.9-2.5l-3.7-1.3l-6.6-1.3
			l-6.2-1.3l-5.8-2c0,0-6.8-2.3-7.3-2.5s-10.8-3-10.8-3l-9-2.9l-8.3-3.3l-11.2-4.8l-9.1-4.3l-8.6-3.9l-4.5-2.1"/>
		<path id="path21510" inkscape:connector-curvature="0" class="st10" d="M333.9,96l-0.1,1.8l-0.1,2.4v0.9"/>
		<path id="path15393" inkscape:connector-curvature="0" sodipodi:nodetypes="ccccccccccccc" class="st8" d="M334,96.4l1.3-2.1
			l2.3-0.8l3.4,0.6l3,1.1l1.8,1.6l1.1,1.3l0.1,3.6v3.7l-0.1,2.7l0.7,1.8l1.5,1.8l2.8,1.7"/>
		<path id="path46051" inkscape:connector-curvature="0" class="st5" d="M601.7,323.6l0.9-2.6l0.7-2.7l0.6-2.7l2.2-3.7l1.6-3.7
			l5.8-6l4.7-4.3l5.5-8.1l4.9-6.3l5.9-7.2l4-4.9l5.9-5.8"/>
		<path id="path46926" inkscape:connector-curvature="0" class="st5" d="M622.9,337.3v4.9v3.2l-0.1,4.3l1.6,3.3l2.2,3.7l3,4.9
			c0,0,2.6,2.6,3,3.3c0.4,0.7,3.3,3.6,3.3,3.6l3.9,1.3l3.9,0.6l3.7,0.9l5,0.9l3.6-1.9l3.6-3l3.6-4.5l3.2-2h3.7l5.2,1.9l4.6,1.9h1.6"
			/>
		
			<path id="path49551" inkscape:connector-curvature="0" sodipodi:nodetypes="ccccccccccccccccccccccccccccccccccccccccccccccccccccccc" class="st5" d="
			M773,339l5,2.9l4.3,2l4.3,2.6l6.9,3.3l4.7,3l3.2,3.2l2,4l4.3,1.6l5.6,0.9l5.3,0.1l3.2-0.7l4.2-2.9l2.2-2.9l4-0.4h4.7h4l4.5,1.2
			l2.7,3.3l-0.5,6.1l2,4.8l1.4,1.3l-1.9,4.6l-2.4,4.6l-1.7,5.8l-3.2,4.3l-3.3,6l-2.7,5.5l-2.9,5.3l-2,8.2l-1.2,6.5l-1,10.1v5.8v4.6
			l-0.3,5.3l0.1,6.9l2.7,0.7l3.9,0.6l1.9,1.9l1.9,3.2l1.2,5.3l0.4,4.3l2.2,3l5.5,6.6l2.6,2.9l4.9,4.7l5.8,3.3l7.2,2.4l5.2,1.4l5,0.3
			l4.7,1.6l4.9,2l3.7,1l5.5,1.9l5.6,2.4"/>
		<path id="path45176" inkscape:connector-curvature="0" class="st5" d="M772.4,338.7l1.6-3l2.6-2.6l2.3-3l2.6-3.2l2.3-2.9l2.4-3.9
			l3-3.6l2.4-3l1.7-4.6l3.3-5.3l3.5-3.6l2.4-3.7l3.6-2.2l6.5-4.5l4.2-1.3l5.5-1.7l4.5-0.9l5-0.1l5.3-0.1l4,0.7l4.6,1.4l5.5,1
			l5.8,1.9l5.6,1.4l8.8,3.2l6.8,0.7l5.3,0.4l3.9-0.3l0.7-1.9v-4l1.9-7.6l2.3-8.8l1.3-4.7l0.3-6.3l0.7-7.3l1.4-8.3l1.7-2.7l1.3-9.2
			v-6.5l0.3-6.8v-3.5"/>
		<path id="path28516" inkscape:connector-curvature="0" sodipodi:nodetypes="cccccccc" class="st5" d="M511.8,357.5l-2.3,0.2
			l-4-0.5l-2.9-1.4l-1.5-0.9l-2.5-0.8h-1.7l-1,0.4"/>
		
			<path id="path19760" inkscape:connector-curvature="0" sodipodi:nodetypes="ccccccccccccccccccccccccccccccccccccccccc" class="st8" d="
			M510.9,357.7l2.5-1l3.1-1.5l3.3-2.4l2.1-1.6l3.5-2.4l3.5-2.7l3.6-2.6l3.5-1.5l6.6-1.2l4.2-0.9l8.3-1.9l6-1.5l5.9-1.8l6.3-2.7
			l5-3.2l3.8-1.7l4.4-0.2l5.9-0.4l3.3-1.1l4-1.3h3.5l4.8,1.3l3.6,2.8l4.2,2.5l3.5,2.3l2.2,2.4l1.6,2.2l2.3,1.8l3.6,1.2l4.2,0.3
			l3.9,0.5l4.2,0.2l3.7,0.2l3.5,0.4l4.8,0.2l4.5,0.3l5.4,0.1l4.6,0.3l4.1,0.3l3,1l3.9,0.5h4.9l5.1,0.1h6.5h5.4l5.6,0.1h4.6h4.1
			l7.1-0.7l7.3-0.5h5.9h5.1h4h4.4h5.9l6-0.2l5.1-1.2l3.7-2l1.5-0.8l1.7-0.4"/>
		<path id="path5894" inkscape:connector-curvature="0" sodipodi:nodetypes="cccccccccc" class="st9" d="M766.7,342.4
			c4.5-2.4,16.6,7.6,16.6,7.6l12.3,6.2l7.6,2.1l13.9,0.1l11.5-4.4l3.7,0.2l3.7,2l2.1,2.3l10.3,8.6"/>
		<path id="path50305" inkscape:connector-curvature="0" class="st5" d="M549.6,227.9l3.1-3.9l1.8-3.1l1.4-4.1l0.6-4.7l0.2-1.2"/>
		<path id="path27633" inkscape:connector-curvature="0" class="st8" d="M519.9,221.6l-0.4-2v-1.9l0.9-1.8l2-0.8l3.8-0.7l3.4-1.2
			l3.5-1.4l3.5-1.7l3.1-2.3l3.2-0.6h3.7l6.3-0.7l3.1-0.1l3.1,0.1l2.4,0.5l2.4,1.5l1.7,1.5"/>
		<path id="path44154" inkscape:connector-curvature="0" class="st3" d="M496.3,140.9l-5.9,0.6l-5.3,1.8L480,146l-4.7,2h-6.7
			l-5.2,1.9"/>
		<path id="path45928_1_" inkscape:connector-curvature="0" class="st4" d="M491.2,207.4l3.5-5.3l2.6-4.3l2.6-1.6l6.8-4.3"/>
		<path id="path27639" inkscape:connector-curvature="0" class="st5" d="M486.1,169.1l2.2,1.9l1.6,1.3l2.3,0.9h2h2.8l1.9,0.1l3,1.8"
			/>
		<path id="path33522" inkscape:connector-curvature="0" class="st7" d="M38.6,385l2,3.5l2.9,1.7l3.7,1.3l3,2.2l2.7,2.9l-0.3,3.3
			l-1.6,3.6l-1,5.3l-0.1,4.5l0.6,5.9l1,5l2,2.7"/>
		<path id="path33524" inkscape:connector-curvature="0" class="st4" d="M60.8,364.8l3.9,3.3l3.7,1L71,371l2.4,3.6"/>
		<path id="path33526" inkscape:connector-curvature="0" class="st4" d="M93.1,404l3-2.9l2-2.3l0.1-2.3l2-2.3l2.4-1.7l2.7-0.9l1-3.9
			l1.9-2.4l2.2-0.1l3.6-1.7l4-2.4l2-3l0.9-5.2v-4.6l0.6-5.2l1.2-1.2l1.7-0.7l1.2-2.3l1.3-1.6"/>
		<path id="path33528" inkscape:connector-curvature="0" class="st4" d="M145.3,385.3c-0.6-0.3-2,1.4-2,1.4l-0.4,3.2l-0.6,3.2
			l-2.7,1.6l-0.9,1.9v2.2l1.6,2.3l0.7,2.4l2.3,2.3l1.7,3.2l0.1,3.6v5.9"/>
		
			<path id="path37032_1_" inkscape:connector-curvature="0" sodipodi:nodetypes="cccccccccccccccccccccccccccccccccccccccccccc" class="st4" d="
			M164.6,390.1l2.6-1.6l4.6-1.3l2.4-0.6l4.5-0.1l3.9-0.7l3.5,0.1l2.6,1l1.7,3.2l2.6,1l3-0.7l1.7-1.6h2.4l2.3-1.3l2.4-1.9l2.3-0.6
			l6.8-1.7l5.5,1.6l4.7,1.7h4.6l4.3-1.9l4.3-3.2l3.2-2.4l2.3-2.2l1.2-2.2l-0.1-2.9l-1.9-2.2l-0.4-5.9l-0.6-5.3l-0.4-6.8v-5l-1.2-4.6
			l-0.4-2.7l1.3-2.2l4.9-2.9l3.6-0.6l5-0.7l3.6-0.6l4.3-0.9"/>
		<path id="path31141" inkscape:connector-curvature="0" class="st5" d="M361.1,440.5l-2.4,0.3l-1.7,0.5l-2.7,0.8l-3.3,1.2l-2.9,0.8
			l-2.5,0.1l-2.3-0.1l-0.8-1.4l-0.6-2.7l-0.1-2.4l-0.7-2.1l-1.2-1.2l-3.2-0.6l-2.5-0.9l-2.5-1.5l-1.6-1.4l-1.9-1.8l-1.8-1.4
			l-1.7-0.9l-2.8-0.4l-1.6-0.1l-2.2,0.4l-2.2,1.1l-1.6,0.8l-2,1.2l-2.2,0.6h-2.4l-1.9-1.5l-2.1-1.2l-2.5-0.5h-3.5l-1.9,0.9l-2.7,0.9
			l-3.7,0.8l-2.4,0.1l-2.8,1.2l-1.7,1.4l-1.2,1.8l-1.4,0.7h-2.4l-2.4-0.5l-3.1-1.2l-1.8-1.2l-1.8-1l-2.7-0.6l-2.9,0.1l-3.2-0.2
			l-2.3-0.8l-1.8-0.4h-3h-2.2l-3.3,0.7l-2.3,0.8h-3.4H238l-4.1-0.6l-2.5-0.7l-2.5-0.1l-1.8-0.2l-5,0.2l-3.2,0.4l-1.8,0.3l-3.7-0.9
			L210,427l-2.9-1.2l-3.1-1.2l-3.2-1.4l-4-2.2l-3.2-2l-2.9-2.2l-1.8-2.1l-1.4-3.4l-1.7-3.5l-1.9-2.7l-3.9-3.3l-3.5-2.2l-4.3-3
			l-2.7-1.9l-3.7-3.2l-3.7-1.4l-3.2-0.6l-4-0.4l-2.9-0.3l-3.3-1.8l-2.7-2l-4-0.6l-2.7-0.6l-3-1.2l-2.7-1.4l-2.4-1.4l-2.4-0.7
			l-2.6-0.2l-5-1.2l-3.4-2.2l-4-1.6l-3.3-1.5l-3.3-1.3l-3-0.6l-4-0.3l-5.9,0.7l-3.4,1.3L88,374l-3.5,0.3l-3.2-0.8l-3.2-1.3l-1.9-0.1
			l-2.1,0.9l-0.9,1.8l-1.2,2.1l-2.4,1.1l-3.4,1.3h-3.7l-3.5-0.1l-2.9,0.1l-3,1.2l-5.4,2.3l-4.1,1.1l-4.4,0.9l-3.6,0.1l-2.7-0.4h-3.4
			h-3.2l-2.8,0.6l-1.3,1.3l-1,1.8"/>
		<path id="path11010" inkscape:connector-curvature="0" sodipodi:nodetypes="cccccccccccccc" class="st8" d="M406.4,437.7l-3.2,0.5
			l-3.9,0.1l-3.9-0.2l-3.6-0.7l-4.5-0.4h-3.7h-3.7l-3.7,1l-2.8,0.9l-4.5,1.5l-3.1,0.3l-2.4-0.1h-2.7"/>
		<path id="path31143" inkscape:connector-curvature="0" class="st5" d="M102.8,358.3l-0.1,2.1l-0.7,1.8v1.7l-0.8,2.3l-0.6,2.2v1.6"
			/>
		<path id="path41473" inkscape:connector-curvature="0" class="st4" d="M115,486.4l0.6-6.3l-1.6-5.7l-1.2-8.1l1.4-4.7"/>
		<path id="path31145" inkscape:connector-curvature="0" class="st5" d="M53.4,426.6l2.1,2.4l1.4,2.4l1.9,2.4l2.2,1.5l2.9,0.8
			l2.4,0.9l2.8,0.7l2.2,0.4l3.2,1.4l1.9,1.4l2.7,1.6l2.4,1.9l3.6,2.1l2.8,2.4l2.7,2.7l3.2,3.5l3.7,3.7l2.2,3.7l1.9,0.4l2.7-0.8
			l3-0.8l3.7-0.1h2.9l3.5,1.2l2.7,1.6l2.4,1.2c0,0,3.5,1,3.8,1.2c0.3,0.1,3.5,1.3,3.5,1.3l2.7,0.1c0,0,3.2,0.5,3.5,0.6
			s2.5,2.5,2.5,2.5l2.2,2.6l2.4,0.8l1.7-0.9l2.2-2.9l1.4-2l2.6-0.9h2.9l3.5,1.1l2.9,0.7l3.5,0.9l4.2,0.9l5-0.4l3-0.6h4.7l2.9,1.1
			l2.2,1.9l2.4,1.1l2.5,0.1l3.2-0.9l4-0.8l4-1.1l2.4-2l0.4-2.2l0.4-3.7l0.4-3l0.4-2.6l1.2-1.1l1.8-0.4l2-1.4l0.4-3.2l-0.2-4.3l0.4-4
			l0.6-3.5l0.8-2.2l1-3.6l1.4-2.1l2-2.2l0.6-1.7"/>
		<path id="path35278" inkscape:connector-curvature="0" class="st4" d="M182.4,530.8c1-0.6,3-1.3,3-1.3l2.3,0.6l2.2,2.6l2.6,1.9
			h4.9l2.7-2.4l2.9-0.3l4.5-0.6l4.3-1.6l2.7-1.7l3.3-0.3l3.3-2.9l2.7-3.9"/>
		<path id="path35282" inkscape:connector-curvature="0" class="st4" d="M240.4,535.2l4.2,3l3.7,1.2h4.6l3.3,0.4l3,1.7l3.6,0.9
			l3-1.3l2.9-3.9l3.3-3.9l3.3-5.9l3.2-5.2l1.4-4.9l-0.3-5.3l0.1-3l1.4-2.4"/>
		<path id="path31147" inkscape:connector-curvature="0" class="st5" d="M155.1,510l2.2,0.8l2.4,0.1h1.8h2.1c0,0,1.7,0.8,1.9,0.8
			s1.7,0,1.7,0l2.7-1.3l2.4-0.9l3-0.9l2.7-1.2l3.2-1.2l2.9-0.6l2.7-0.2h2.9l3.5,0.3l2.2,1.4l2.4,1.4l1.8,1.7l1.7,1.7l1.7,1.6
			l1.7,1.4l10.1,5.8l3.5,0.7h3.7l2.9-0.8l2.6-2.4l3.5-3.5l3.2-3.3l3.5-1.9l4.7-2.3l3.7-1.4l4.7,0.1l4.7-0.1l4.7-0.6l3.2-1.7l2.7-1.2
			l3.4-0.4l4.2,1l4.2,2.2l3.5,0.7l4.5-1.9l2.2-2.6l3.5-3.4l4.1-7.8l1.5-5l1.7-5.2l0.8-4.6l1.7-4.7l2.1-3.9l1.9-1.9l1.7-4l1.4-2.5
			l2.3-1.7l2.9-0.9h4.8h5.6h3.7l3.1-0.6l3.4-2l2.4-2.8l1.3-2.7l1.4-1.3l2.4-0.9l2.5-1.4"/>
		<path id="path35280" inkscape:connector-curvature="0" class="st4" d="M192.1,572.4l3.6-2.4l2.6-4.3l1.6-7l1.2-4.9l-0.6-3.9l2-3.2
			l1.2-5.3l0.4-3.6l0.7-6.2"/>
		<path id="path31151_2_" inkscape:connector-curvature="0" class="st5" d="M236.8,470.2c0,0-2.9,13.6-4.4,15.1s-7.7,4.3-7.7,4.3
			s2.6,9.5,2.6,10.8s-3.3,13.3-3.5,14.9c-0.2,1.7,1,5.7,1,5.7l0.9,1.5l1.5,1.5l2.1,1.4l2.7,0.5l2.3,1.2l2.2,2.7l1.9,1.9l1.7,2.9
			l0.9,3c0,0,0.1,2.4,0,2.7s-1.9,2.7-1.9,2.7l-1.4,1.7l-0.6,2.1l-0.3,3l-0.7,2.4l-1.1,2.9l-1.4,2.2l-2.1,2.2l-1.6,1.4l-0.6,1.9
			l-0.1,2.2l-0.1,4.4v3.5l-0.1,2.4l-0.4,3.9l-2.2,0.9l-2.7,0.8l-2.4,0.8l-2.4,0.1l-2.3,0.4l-2.7,0.8l-2.7,1.4l-2.7,1.6l-2.4,2.2
			l-2.2,1l-3.7,1.8"/>
		<path id="path31153" inkscape:connector-curvature="0" class="st5" d="M217.4,428.4l-0.4-1.9l0.6-1.9l2-2.5l0.9-2.8L220,416
			l-0.6-3.7l-1.1-3.5l-1.3-3.5l-1.1-4l-1.1-4.8l-0.6-3.3l-0.4-4.5l0.4-3.9l0.4-2.6l-1.4-1.4l-3.1-1.4l-3.6-1.3l-3.1-1.2l-4.2-0.4"/>
		<path id="path3244" inkscape:connector-curvature="0" class="st4" d="M254.3,844.5l4.1,2.6l2.6,1.6l3.9,0.4l2.8,1.2l3.1,3.1
			l3.1,2.2l3.3,2.2l5.9,1.6"/>
		<path id="path32901" inkscape:connector-curvature="0" class="st5" d="M375.7,508.7v2.2v2.6l-0.6,2.4l-1.2,3.7l-0.9,2.5l-0.3,2.7
			l-0.9,2.6l-0.9,2.8l-1.2,1.7l-0.2,2.3l-0.3,2.1l-0.4,4.2v3.7l0.6,2l1.6,2.1l1.4,2.2l0.1,2.6l-0.9,2.4l-1,2.9l-1,2.9
			c0,0-0.9,2.2-1.1,2.5c-0.1,0.3-1.6,2.9-1.6,2.9l-1.3,2.9l-1.7,2.5l-3.5,3.1l-3,3.2l-2,2.6l-1.5,2.9l-1.3,3.7l-0.6,2.1l-0.8,2.4
			l-1,3.1l-0.9,3.5l-1.4,6.1l-2.4,9.6l-1.2,5.7l-1.2,4.4l-1,4.3l-1.3,4.7l-1.3,4.2l-0.6,3.6l-0.9,3.2l-0.6,2.5l-1.3,6.6
			c0,0-1,4.2-1,4.5s-1,3.8-1,3.8l-0.2,3.1l-0.1,4.2l-0.4,3.9v3.5l-0.1,3.2l0.1,3.5v3.3l0.4,3.9l0.1,4.2l0.6,3.9l0.9,2.5l0.4,3.5v3.2
			l-0.9,3.7l-1.6,4.7l-2,5l-2.5,5.3l-3.5,5l-3.5,5.7l-4.4,6.2l-2.4,3.4l-2.2,3.4l-3,3.7l-2.4,2.9l-3.8,2h-3.9l-4.4-2l-3.6-2.1
			l-3.7-2.1l-3.3-0.7l-1.7,0.4l-1.8,1.6l-0.7,3l-0.4,5l-6.2,7.9l-2.3,3.4l-2.9,2.9l-3.2,3.2l-3.3,2.2l-4.2,2.4l-3.3,1.7l-3,1.4
			l-1.2,2.6l-0.1,2.8v5v3.6l0.1,2.5l0.1,2.7l0.6,3.2l0.1,2.7l0.1,2.6v2.3l0.6,3.2l0.1,3.6l0.5,3.2l0.1,3.1l0.3,3.5
			c0,0,0.4,4.2,0.4,4.6s0,4,0,4l0.1,2.5l-0.7,5l-0.6,3.5l-1.2,3.6l-0.8,2.9l-1.5,4.2l-2.3,3.6l-2.4,3.3l-2.4,2.2l-3.6,1.2l-3.6,0.9
			l-2.3,2l-2.7,1.9l-4.1,0.1l-3.7,1.2l-3.4,1.4l-2.2,1.7l-2.7,3.7l-0.9,2.9v3.6l-0.8,3.2l-2.1,1.1l-2.1,0.4c0,0-2.8,0.1-3.2,0.3
			s-2.4,2.4-2.4,2.4l-1.9,3l-1.2,2.2l-2.4,2.9l-2.9,2l-4.7,2.2l-4.5,1.9l-4.5,1.1"/>
		<path id="path3242" inkscape:connector-curvature="0" class="st4" d="M272.2,931.1l1-1.8l1.2-0.2l1.4,0.8l2.6,1.6l3.7,1l2.6-2.6
			l1.2-3.1l0.8-3.5l2-5.5"/>
		<path id="path32903" inkscape:connector-curvature="0" class="st5" d="M322.1,925.3l-2.7,1.5l-1.9,2.3L316,932l-1.4,3.2l-0.9,3
			l-2.7,1.3h-2.5l-3.5-2.8l-3.2-4.9l-2.4-3.5l-2.4-3.2l-3.3-3.5l-3.5-3.2l-2.7-1.9l-4.2-3.4l-4.2-3l-4.4-2.7l-4.6-2.5l-5.2-2.3
			l-4.6-2.7l-9.8-5.5l-2.9-3.8l-1.2-3.6l-0.4-3.2l-1.7-4.2l-2.4-2.4l-1.5-2.5l-0.5-1.1"/>
		<path id="path53917" inkscape:connector-curvature="0" class="st4" d="M283.2,672.2L282,667l2-4.3l4.5-5.9l1.2-5.5l0.6-8.9v-4.5
			l2.2-5.1l3.1-4.9l2.4-6.5l-0.8-5.1"/>
		<path id="path32905" inkscape:connector-curvature="0" class="st5" d="M243.2,630.4l2.4,0.1l2.4,1.2l2.9,2.2l2.4,1.8l2.9,1.6
			l2.3,0.4h2.2l2.3-0.6l2.2-0.1l3.4-0.1l2.2-0.1l3.8-0.7l1.2-3.2l1.5-3.9l2.4-2.1l6.8-3.7l4.4-2.2l3.1-2.4l1.9-2.7l2-1.1l2.7-0.3
			l3.6-0.7l3.9-1.3l2.7-2.2l1.9-2.9l1.9-0.6l3,0.3h4.8h3.9l4.8-0.5l3.8-1l3.7-2l2.4-2.7l1.9-1.5l1.9-1.3l2.9-0.6l2.7-1.8"/>
		<path id="path33781" inkscape:connector-curvature="0" class="st5" d="M232.9,786.9l3.7-0.4l3,0.1l3.2,0.3l3.7,0.4h2.3h2.3"/>
		<path id="path4119" inkscape:connector-curvature="0" class="st4" d="M361.5,886.8h6.1l5.1,0.4l6.5,1.2h5.3l4.5,2.2l5.9,2.4
			l5.1-0.6l5.5-1.8l3.9-0.2l5.1,0.4l5.5,1l5.5,0.2l4.3-2.8l1.8-3.5l3.7-5.1l1.4-2.4l3.3-1.8l3.9-4.3l5.7-4.1l5.5-4.5l3.3-1.8h5.1
			h4.5h4.5h1.4l-1-4.1l1.6-4.3l6.1-6.9l8.1-9.4l7.7-5.9l6.1-5.1l2.2-5.5l3.7-3.5l5.3-3.5l4.7-0.4l3.5,2.8l3.7,2l5.3,1.8l3.5,0.4
			l6.5,0.4"/>
		<path id="path6746" inkscape:connector-curvature="0" class="st4" d="M487.8,931.3l-1.8,1.6l0.2,3.5l-0.2,3.5l-1.6,3.1l-3.3,3.3
			l-0.2,2.2l0.4,3.1l-0.8,3.5l-3.3,6.1l-1.2,5.3"/>
		<path id="path5867" inkscape:connector-curvature="0" class="st3" d="M321.6,925.6l6.3,1l3.5,2.4l3.7,3.1l4.1,2.6l0.8,3.1l1.4,1.4
			l4.1,1.6l5.5,0.8l5.7,1h4.5l4.3-0.4l4.5-1.2l3.5,0.2l5.9-0.4l4.9-2.6l4.9-3.1l6.1-3.5l4.9-4.5l6.1-5.3l3.7-6.7l2.6-6.5l2.8-4.9
			l3.5-2.6l3.7-2.2l2-5.7"/>
		<path id="path6748" inkscape:connector-curvature="0" class="st4" d="M440,875.2l3.5,2.2l1,4.5l2.6,2l3.1,0.8l5.1,0.4l3.9,0.8
			l3.3,2.2l3.5,1.6l3.7,2l4.1,1.2l4.1,0.6l1.2,2.6l0.6,2l2.4,2.4l2.4,1.6l3.1,0.8l4.5,1.4"/>
		<path id="path18148" inkscape:connector-curvature="0" class="st3" d="M244.7,698.7l4.6,6.4l2,4.4l2.6,4l3.7,3.1l2.2,1.8l1.8,5.5
			l1.1,7.5l2.4,8.1l2.9,5.3l5.5,5.1l8.8,3.3"/>
		<path id="path21133" inkscape:connector-curvature="0" class="st4" d="M307.2,757.2l6.6,4.6l4.6,1.3l6.6,2.6l5.5,0.9h7.5h7.9h8.1
			l6.6,0.2l9.2-1.1c0,0,5.5-0.4,6.6-0.4s7.5,0,7.5,0l4.8,2.4l2.9,3.3l2,4.4l0.7,4.8l-0.7,9.5l-2.4,4l-2,2.9l-1.8,4.8l-7.3,11.2
			l-1.3,3.5l-3.7,6.2l-5.3,4.4l-3.1,4.2"/>
		<path id="path5906" inkscape:connector-curvature="0" sodipodi:nodetypes="cssssssssc" class="st9" d="M284.2,752.4
			c0.9-0.9,4.9-9.9,13-19c5.3-6,13.8-9.5,19.6-20.2c3.6-6.7,9.8-15.8,10.3-26.9c0.6-14.7,1.5-24.4,3.9-41.4
			c2.3-16.2,10.7-38.8,16-52.2c1.1-2.7,1.5-8.1,2.5-10.7c2.6-6.6,5.5-19,11.4-28.6c4.8-7.7,12.9-12.9,14.6-17.1
			c6.9-17,4.9-25.1,6-25.9"/>
		<path id="path34656" inkscape:connector-curvature="0" class="st5" d="M282.5,752.7l1.3,5.9l2.9,9.8l2.6,8.2l3.5,7.2l4.7,4.2l6,1
			h6.6l7.8,1.4l7,2l5.3,3.5l5.3,5l4.6,6.9l2,2.7l0.9,4l1.6,3.5l4.2,4.3l7.2,5.3l8.5,4.5l8.8,4.7l7.9,3.2l9.8,3.7l7.6,1.7l9.2,3.6
			c0,0,5,1,5.6,1.4s1.3,1.9,1.3,1.9l-0.7,2.4l-1.7,3.2l-0.9,4.3l1,4.9l2,4.2l2.4,4.5l2.2,5.8l1.4,6l3.9,5.8l4.6,6l5,5l5,5l5.2,3.5
			l6.8,4l6.5,3.6l9.2,5.3l5.6,3l5.3,1.7l6.2,0.3l3.2,0.3l3.6,1.4l5.6,3.2l4.6,2.3l5,0.1l4.6,0.3l5-0.9l4.7-0.7l4.9-0.9l6.9-0.7
			l6.3,1.6"/>
		<path id="path11119" inkscape:connector-curvature="0" class="st4" d="M617.1,901.1l1-4.5l2-3l3.2-4.2l2-3.3l1.4-5.9"/>
		<path id="path15492" inkscape:connector-curvature="0" class="st11" d="M848,874.1l2.6-4.2l1.9-2.6l2.4-2.7l1.9-2.3l1.3-2.4v-2.4
			l1.2-1.6l2.3-0.6l2.4-1l1.4-2.9v-3.9l1.4-2.9l2-1.6l2-3.9l0.9-3.5l0.9-2.2l-1.3-1.9l-1.7-2.7"/>
		<path id="path36406" inkscape:connector-curvature="0" class="st5" d="M760,935.3l3.7,0.4l2.2,0.9l3.6,3l1.7,0.4"/>
		<path id="path40787" inkscape:connector-curvature="0" class="st5" d="M730.1,659.8l2.7-0.6l1.6-1.9l0.6-3l-1.2-4.5l-1.3-4
			l-0.1-3.2V640l1.2-3.2l2.9-2.3l2.7-1.2l3.9-3l3.7-2.3l3-1.3l3.6-0.6l2.3-0.3"/>
		<path id="path40789" inkscape:connector-curvature="0" class="st5" d="M734.4,636.1l4-0.4l5-1.6l4-2l5-0.6l3.9-0.3l3-1l3.7-3.3
			l2.3-3.3l4-4.9l4-3.5l2.3-2l2.2-2.3l4.5-1.4l5.2-0.6"/>
		<path id="path40791" inkscape:connector-curvature="0" class="st5" d="M761.5,628.2l2.3,0.9l2.7,3l1.9,3.6l2.3,2.4h2.7l3.5-0.7
			l4.3-1.3h4.6l2.9,0.7l2.2,1.6l1.2,3.7v3.2l-0.3,3.2l-0.4,1.7l0.1,2.4l1,1.3l1.9,0.4l2.7,0.3l1-0.1"/>
		<path id="path40793" inkscape:connector-curvature="0" class="st5" d="M742.2,677.9l0.7-3.6l0.9-3.7l0.6-3.5l0.3-3.9v-3.6l0.7-1.9
			l1.3-0.3l2.7-0.4l2.4-0.3l3.6-1.6l1.4-2.9l1.9-3.6l2.2-2.6l2.4-2.3l1.9-2.9l1.7-1.7l3.5-1.3"/>
		<path id="path40795" inkscape:connector-curvature="0" class="st5" d="M761,691.6l1.2-2.7l5.3-4l2.9-1.6l2.7-2l2.3-1.2l1.9-0.6
			h2.7l2,1.7l0.9,2.7v2.4l1.2,2.9l1.2,3.9l1.4,1l1.7,0.1l3.2-1l2.2-2l1.9-1.2l2.7-0.4l1.6-1.3l1.6-3l2.2-4.2"/>
		<path id="path41676" inkscape:connector-curvature="0" class="st5" d="M758,555.3l2.7-1.9l2.9-0.9l5.3-0.3l7.2-0.3l5.8-0.9l5-1.3
			l7.8-1.3l6.2-1l8.9-1.2l5.6-0.7l8.1-1.9l6.5-2.2l6-2l4.2-1.4l2.7-1"/>
		<path id="path44301" inkscape:connector-curvature="0" class="st5" d="M743.5,326.5l-2.2-0.9l-1.7-3.3l0.1-4.7l0.1-5.8l0.3-4
			l1.6-4.2l0.9-3.5l-0.9-6l-1.3-5.5l-1.6-5.9"/>
		<path id="path47801" inkscape:connector-curvature="0" class="st5" d="M745.5,367.1l1.9,2.9l2.2,2.4l3,2.4l3.6,1.9l3.6,1l3.7,1
			h3.6l4.2-0.6l3.5,0.7l3.5,2.7l5.3,3.2l3.9,2.7l4,3.5l2.6,4.2c0,0,1,2.7,1.2,3.5c0.1,0.7,3.2,6,3.2,6l3.5,1.9"/>
		<path id="path48676" inkscape:connector-curvature="0" class="st5" d="M779.7,433.1l-2.9-3.9l-3.7-5.3l-2.3-5l-2.6-3.5l-2.9-6.2
			l-3-4.5l-1.9-3.6l-1.6-3.2l-0.4-3.5l1-5.2l1.7-3.2l1.7-3.2l-0.7-4"/>
		<path id="path50426" inkscape:connector-curvature="0" sodipodi:nodetypes="cccccccccccccccccccccccccc" class="st5" d="
			M850.9,370.5c1.3,0.6,3.7,1.2,3.7,1.2l3,0.3l1.9-0.3l2.2-0.7l3.9-0.3l3-1.9l4.3-3.7l2.9-3.5l2.3-3l3.5-6.2l3.9-7.8l1.6-4.3
			l2.9-5.6l1.4-3.9l1.4,6l2.3,6.8l2.7,8.2l2.3,6.3l2.7,6.2l3.3,5l5.5,2.9l5.3,2l5.2,1.3l7.3,2.2l7,2.2"/>
		<path id="path5869_1_" inkscape:connector-curvature="0" class="st3" d="M364.3,949l0.2-6.3"/>
		<path id="path7623" inkscape:connector-curvature="0" sodipodi:nodetypes="cccc" class="st9" d="M530.7,986.9v4.9l0.2,7.3
			l0.3,12.4"/>
		<path id="path21135" inkscape:connector-curvature="0" class="st4" d="M406.8,766.4l-2.6,1.3l-4.6-0.7l-3.3,0.4l-4.4,3.5"/>
		<path id="path21137" inkscape:connector-curvature="0" sodipodi:nodetypes="cccccccccc" class="st4" d="M350.7,766.2l5.5-4.2
			l5.5-2.2l5.9-2.2l4-1.8l2.6-3.1l0.7-5.5l0.9-4.4l2.6-4.2l1.5-2.6"/>
		<path id="path26439" inkscape:connector-curvature="0" class="st4" d="M617.3,555.3c0.8,0.2,3.1,1.6,3.1,1.6l4.7,0.8l3.9,0.8
			l3.5,2.8l2.4,5.1l1.2,3.5"/>
		<path id="path31768" inkscape:connector-curvature="0" class="st4" d="M375.5,733l2.4,1.4l1.6,2l3.3,1.2l4.7,0.2l3.3-1l3.3-1.4
			l4.1-0.4h3.1l3.9,0.4l2,2.2l3.1,1.8l4.1-1l1.8-0.4h2l3.5,0.8h2.8l3.7-0.6l3.9-1l5.3-1.8l6.5-3.7l7.7-5.5l6.5-3.3l5.5-3.3l5.5-4.5
			l3.5-6.3l2.6-5.7c0,0,2-1.8,2.4-2.8s6.1-2.6,6.1-2.6l2.6-0.6l4.7-0.4l1-2.8l2-2.2l5.9-2.4l6.7-1.8l7.3-1l5.1-4.7l3.9-6.3l3.7-5.7
			l5.7-6.1"/>
		<path id="path31770" inkscape:connector-curvature="0" sodipodi:nodetypes="cccccccccccccccc" class="st4" d="M529.1,622.8
			l-1.8,4.5l-2.6,4.3l-2.8,4.3l-0.6,5.1l0.2,5.5l-0.2,6.1l1,4.9l1.4,1.6l2.8,1l2.6,0.8l2.6,1.8l1.6,3.9l3.3,4.5l2.2,3.9l4.2,1.4"/>
		<path id="path31772" inkscape:connector-curvature="0" class="st4" d="M468.5,642.1l4.1,2.6l2.6,3.1l0.4,2.4l0.2,3.7l2,4.3
			l-0.2,6.1"/>
		<path id="path31774" inkscape:connector-curvature="0" class="st4" d="M419.9,661.5l3.9,2.6l5.9,3.3l6.5,4.7l6.9,4.3l4.7,1.8
			l2.2,2.2l1.8,4.9l2.2,4.5l4.3,0.6l3.7,1.8l4.3,3.3l5.5,3.1l5.1,1.8"/>
		<path id="path45053" inkscape:connector-curvature="0" class="st4" d="M446.9,192.1l5.7,1.6l2.8,3.3l2.2,2.2l3.9,4.5l3.5,1.2
			l5.3,0.6l5.3-1.6l5.3-0.8h5.7l3.9,2.4l3.9,2.8l6.5,2.2l7.3,2.6l7.9,3.1"/>
		<path id="path24772" inkscape:connector-curvature="0" class="st4" d="M551.3,806.1l1.7-0.6l3.7-0.4l2.5-0.7l4.9-0.7l3.4-1.9
			l3.9-1.4l4-0.6l4.3-0.4l2.5-1.4l2.3-1.4l2.7,0.1l1.4,1.2l2,0.6l3.5,0.4l2-0.6l1.9-1l1.9-1.7"/>
		<path id="path53042" inkscape:connector-curvature="0" class="st3" d="M324.7,517.5l-0.2,6.1l0.8,2l-1.2,2.4l-2.8,3.3l-1,2.6
			l-1,3.9l-0.6,3.5l-2.8,5.9"/>
		<path id="path2893" inkscape:connector-curvature="0" class="st4" d="M745.7,513.8c2.8,2.6,3.3,2.6,3.3,2.6l4.2,1.6h3.1l4.8,1.7
			l3.1,0.8l3,0.2l2.6,0.2l3.9,1.6l3.9,3.3l2.2,2.8l3.1,1.7l2,1.1l1.4,0.2l1.9-0.3l2.3-0.5l3-1.6l1.7-1.2"/>
		<path id="path4649" inkscape:connector-curvature="0" class="st4" d="M779.6,844.5l-3.3,2.2l-3.1,3.9l-3.1,3.4l-0.9,1.4l-2.6-0.3
			l-4.8-3l-7-6.4l-4-6.5"/>
		<path id="path26525" inkscape:connector-curvature="0" class="st4" d="M457.6,861.4l1-2l-0.5-3.5l-0.7-4.3v-4l-0.5-2.4l-0.2-2.5
			l-0.4-2.3l1.2-2.7l1.9-1l2.7-1.4l1.1-3.4l0.8-4.8l1-3.6l0.4-2.5l1.7-5.2l1.7-4.7l1.7-11.1l-0.7-4.1l-1.7-2.9l1.9-2.8l2.6-1.8
			l1.5-1l3.1-0.2l1.5-0.9v-2.2l1.3-2.6l1.7-2.9l0.5-6.1v-4l-1-2.1v-2.2l0.6-1.5l1.9-0.8"/>
		<path id="path26527" inkscape:connector-curvature="0" class="st4" d="M441.1,759v2.5v2.8l-1.5,4.5l1,4l1.3,3.1l2.6,3.5l2.9,2.5
			l3.4,3.1l4,2.9l3.3,2l4.9,1.5l3.7,1.4h1.7l1.4,3.1l3.1,1l3.6,1.1l3.6,1.6l4.6,1.6l2.8,1.2l2.1,2l4,1.2l2.9,0.2l0.9,0.7l0.3,2.1
			l1.4,1.3l3.6,1.2l2.2,1.1l0.6,1.8v2l0.6,2.5"/>
		<path id="path35277" inkscape:connector-curvature="0" class="st5" d="M773.1,377.3l4.5-0.3l4.4-0.5l4.9-1.8l4.2-1.9l5.4-3.8
			l3.8-3.4l2.8-2.9l1-2.4"/>
		<path id="path49275" inkscape:connector-curvature="0" class="st4" d="M436.9,239.6l2.4-1.4l2.8-1.7l2-2.1l2.2-1.6l2.1-1.9
			l1.3-0.1l2.5,0.3l2.8,1.1"/>
		<path id="path50155" inkscape:connector-curvature="0" class="st3" d="M481.3,342.5l-0.5,1.5l-0.4,2.4v1.6l0.4,2.4l-0.3,1.1"/>
		<path id="path10769" inkscape:connector-curvature="0" sodipodi:nodetypes="ccccccccccccc" class="st12" d="M465.9,345.7l1.3,3.2
			l2.1,1.9h1.4l1.9-1.4l2.2-0.4l2.2,0.1l2.3,0.3l3.2-2.1l4.2-4l5.5-1.9l5.5,0.4l3.8-0.2"/>
		<path id="path11885" inkscape:connector-curvature="0" class="st8" d="M500.3,342.5l2.6-1.6l3.6-1.8l5.4-3.1l3.5-2.8l2.3-3.7
			l0.8-4.8l-0.4-3.5l-1.6-6.4l-2.1-6l-1.4-5.1v-4.9l0.9-6.3l1.8-8l1.8-9.7l1.9-9.1l1.1-5.2l1.8-3.6l2.8-4.8l1-3.7v-12.6v-5.2
			l-0.5-4.6v-7.2l0.7-5.1l2.2-3.4l2.8-2.9l1.2-4.6l0.5-4.5l1.1-3.2l4.9-3.5l4-2.2l3.8-1.6l5.8-2.3"/>
		<path id="path5292" inkscape:connector-curvature="0" sodipodi:nodetypes="ccccccccccccccccccccccccccccccccc" class="st4" d="
			M719.6,631.8l-0.3-1.3v-3.3l0.9-3.6l2.3-4.4l2.6-5l5.4-6.5l4.5-3.7l9-9.2l4.8-7.2l0.3-1.9l-0.6-0.3l-2.2-0.6l-2.5-2.3l-3-7.5
			l-0.8-7.2l-0.3-7.3l-0.2-6.4"/>
		<path id="path5764" inkscape:connector-curvature="0" sodipodi:nodetypes="cccc" class="st5" d="M645.2,267l6.1,4.4l4.5,1.8
			l8.8,1.5"/>
		<path id="path11060" inkscape:connector-curvature="0" class="st5" d="M745.3,513.4l-6.2-3.9l-0.9-2.6l2.1-1.7l1.1-2.5l0.6-4.5"/>
		<path id="path10087" inkscape:connector-curvature="0" sodipodi:nodetypes="cccccccccccccccccccccc" class="st9" d="M799.6,471.7
			l-3,0.9l-3.4,2.1l-4.3,1l-4.8,1.9l-5.8,1.6l-5.7,3.1l-7.2,2.5l-6.6,3.6l-6.6,3.6l-6.8,3.8l-10,5.5l-5.1,2.6l-3.2,1.9l-2.1,1.1
			l-2.3,2.1l-1.9,2.5l-4,3.4l-6.2,0.4l-5.7-0.2l-5.1,1.1l-5.7,1.5"/>
		<path id="path5730" inkscape:connector-curvature="0" sodipodi:nodetypes="cc" class="st8" d="M524.3,214.9l3.3-3.3"/>
		<path id="path6003" inkscape:connector-curvature="0" sodipodi:nodetypes="ccc" class="st9" d="M531,1011l8.7,18.7l1,12.7"/>
		<path id="path5118" inkscape:connector-curvature="0" sodipodi:nodetypes="csssssssssc" class="st8" d="M224.7,427.7
			c0,0,12.1,3.7,18.3,5.2c5.8,1.4,11.7,4.7,17.5,3.5c3.4-0.7,5.3-4.4,8.4-6c2.6-1.3,5.4-2.5,8.3-2.8c2.7-0.3,5.5-0.1,8,0.9
			c10.6,4.3,15.9,20.1,27.3,20.9c6.1,0.4,10.5-6.3,15.9-9.1c4-2.1,7.9-5.3,12.4-5.9c3.7-0.5,7.4,0.9,10.9,2.1c3.1,1,8.9,4.3,8.9,4.3
			"/>
		<path id="path5904" inkscape:connector-curvature="0" sodipodi:nodetypes="cc" class="st8" d="M308.9,458.6
			c4.7-5,9.7-11.5,14.5-15.2"/>
		<path id="path45928" inkscape:connector-curvature="0" class="st5" d="M506.8,191.6l0.7,0.2l4.1-0.4l3.5,1c0,0,4.1-0.6,4.9-0.6
			s5.5-1.8,5.5-1.8l1.8-1.8l5.9-1.6"/>
		<path id="path15149" inkscape:connector-curvature="0" class="st13" d="M489.2,352.5l-1.1-3.5l-1.5-2.7l-2.5-2.5l-1.6-1.6
			l-1.6-0.5l-2.3-0.4l-2.7-0.8l-2.8-1.3L471,338l-2.1-1.1l-3.4-1.7l-1.2-1.9l-0.3-2.5l-0.4-2.2v-1.8l-0.9-3.3l-2.5-2.5l-3.8-2.9"/>
		<path id="path2367" inkscape:connector-curvature="0" class="st4" d="M224.6,930.7l-3.5-5.9L219,920l-2.6-5.1l-4.1-3.3l-2.4-5.5
			v-5.3l2-4.1"/>
		<path id="path6744" inkscape:connector-curvature="0" class="st3" d="M454.8,1012.6l3.9-0.2l3.1-2.2l2.4-2.6l3.5-2.6l4.5-1.8h5.7
			l6.9-0.8l4.5-3.1l6.7-5.3"/>
		<path id="path25647_2_" inkscape:connector-curvature="0" class="st3" d="M555,921.1l1.4-5.1l-0.3-4.1c0,0-1.7-3.7-1.7-4.1
			s-2.9-3.9-2.9-3.9l-3.2-3.2l-2-2.9l-1.7-3.6l0.1-1.7l0.6-3.9l0.7-4.5l0.8-5.3v-4.3l-1.3-6L543,865l-3.8-3.7l-3.5-4l-0.5-5.1
			l0.1-4.5l1.2-3.3l2.9-1.2l2.1-2.3l0.1-2.4l-1.4-1v-1.6l0.7-2v-4.6l-0.4-11.2l0.3-4.6l1.9-2l3.9-1.5l3.4-2l1.2-1.8l1.1-0.5V801
			l0.5-4.4l0.7-4.3l0.9-5l0.6-6.1l-0.4-4.8l-2.3-6.3l-2.5-6.7l-0.9-3.2l-0.4-5.3l-1.9-3.1l-3.3-3.7l-3.7-2.7l-4-3.8"/>
		<path id="path22891" inkscape:connector-curvature="0" class="st7" d="M559.9,590.1l6.8,3.1l8.4,0.9l7.5-0.3h5.9l5.9-2.2l3.7,1.9
			l5.3,2.8l5.3,0.3l4.7,2.5l5.6,3.7l6.5,5.6l4,6.2v4.7l3.7,7.2l4.4,4.4l3.4,3.1l1.6,6.8l0.6,4.7l3.4,6.2l5.6,5.3l3.4,3.4l4,2.5
			l4,2.8l3.7,4.7"/>
		
			<path id="path44025" inkscape:connector-curvature="0" sodipodi:nodetypes="ccccccccccccccccccccccccccccccccccccccccc" class="st3" d="
			M739.9,310.5l-2.8,1.4l-1.3,1.5l-2,2.3l-2.5,1l-2.9,0.7l-2.2,1.1l-1.4,1.2l-2,0.5"/>
		<path id="path41674" inkscape:connector-curvature="0" class="st5" d="M710.1,529.5l0.7-2.2l3.6-2.4l3.3-1l3.3-1l4.2-1.4l4-1.6
			l3.7-1.6l4.6-1.6l5.6-2l3.1-1.7"/>
		<path id="path11121" inkscape:connector-curvature="0" class="st4" d="M712.6,917.8l-3.7-2.9l-3.6,0.6l-3.2,1.4l-2.6,1.7l-5.3,0.9
			l-3.9-0.4l-3.7-2.6l-3.3-5.2l-2.9-3.2l-3.7-2.4"/>
		<path id="path11121_2_" inkscape:connector-curvature="0" class="st3" d="M668.7,909l5-2.6l2.9-0.8l1-3.6l1.9-4.9l5.2-4.7l2-5.8
			l-0.7-7.2l0.1-6.8l-1.4-5l-4.3-5.2l-3.6-2.3l-3.3-0.6l-4.7-0.3"/>
		<path id="path35531" inkscape:connector-curvature="0" class="st5" d="M530.8,985.4l-2-3.2l0.3-4.6l2.2-4.2l1.7-4.6v-4l1.9-4.9
			l2.2-5.5l0.7-4.6v-4.6l0.1-5.3v-3.2l2.4-3.2l4.5-5.5l3.3-3.3l4.3-1.9l4.2-1.3l4,0.3l5,0.6l4.9,0.1l5.5,0.1l4.7-2.7l4.2-3l4.2-3.6
			l4.6-5.5l3.2-5.6l3.3-7l3.2-2.9l4.3-1l5.9-1.7l4.6-2.2l5.2-4l4.2-4.7l3.5-5.9l1.7-0.7l3.5,0.6l2.9,1.2l3.9,2.7l2.4,0.7l1.2-0.3
			h2.4l2.9,0.6l1,2.7l1,2.4l2.6,4.2l2.7,2.9l4.3,2.3l3.9,0.9l4.2,0.3l7,0.4l4.3,0.7l3.5,2l3.9,1.9l3.2,0.1l2.7,2l1.6,1.4l1.2-0.6
			h2.2l1,1l-0.4,2l-0.1,3l0.9,2.9l2.9,1.9l2.4,0.9l3,2.7l2.6,2.2l3.5,4.2l4.5,3l4.7,2.3l6,2.7l4.7,2.3l4.6,2l4.9,2l4.6,0.1l5.5-1
			l4.3-0.1l3.2-3.7l2.7-6.3l0.7-3.6l3-2.4l4-0.9l4.5-1.6l1.9-3.2l2-5l2.3-1.7l3.2-0.3l3.2-2.3l1.4-2.6l3.2-0.3l4.6,0.3l5.3,0.3
			l3.9,1.4h3.2l3.5-1.2l5.6-2.2l2.4-3.3l1.6-3.2l3.5-2.6l3.7-1.3l3.3-2l1.6-2.6l4.5-5.2l5-5l4.9-3l2.4-1.2l3-1.4l3.7-1.7l1.6-2.6
			l2.6-1.9l5-1.4l3.5-0.3l2.9,0.7l2.2,1.2"/>
		<path id="path4647" inkscape:connector-curvature="0" class="st3" d="M751.5,696.3l1.1,3.3l-0.5,3.4l-0.8,5.1l-1.7,5.9l-2,3
			l-3.3,4.8l-3.1,4.7l-3.9,2.6l-2.6,2.6l-3.6,3.3l-2.3,5.1"/>
		
			<path id="path37032" inkscape:connector-curvature="0" sodipodi:nodetypes="cccccccccccccccccccccccccccccccccccccccccccc" class="st3" d="
			M261.7,331.7l1.4-2.2l-1.3-2.6v-2.7l1.3-2.3l1.9-6.2"/>
		<path id="path29079_4_" inkscape:connector-curvature="0" class="st14" d="M607.6,413.4"/>
		<path id="path29079_1_" inkscape:connector-curvature="0" class="st14" d="M524,378.4l5.7,5.7l4.7,3.9l6.9,2.4
			c0,0,3.9,1.2,4.7,1.2s4.9,1.8,4.9,1.8l2.8,2l3.1,1.6l4.1,0.4l9.5-3.3"/>
		
			<path id="path53655" inkscape:connector-curvature="0" sodipodi:nodetypes="ccccccccsccccccccccccccccccccccccccccccccccccccccc" class="st3" d="
			M462.7,361.6l-1.5,1.8l-3.3,0.2h-3.3l-3.1-0.6h-3.2h-3.2l-3.1,1.2c0,0-5,2.6-5.5,2.6s-5.1,1.9-5.1,1.9l-4.7,1.6l-1.9,0.9"/>
		<path class="st13" d="M394.4,282l3.9-0.8c0,0,9-0.2,10.5,0.8c2.5-0.7,5.4-1.2,7.1-0.8c1.7,0.3,10.1,2.1,10.1,2.1"/>
	</g>
</g>
</svg>
